<?xml version="1.0" standalone="no"?>
<!DOCTYPE svg PUBLIC "-//W3C//DTD SVG 1.1//EN" "http://www.w3.org/Graphics/SVG/1.1/DTD/svg11.dtd" >
<svg xmlns="http://www.w3.org/2000/svg" xmlns:xlink="http://www.w3.org/1999/xlink" version="1.1">
<metadata>
Created by FontForge 20161013 at Fri Mar 29 22:16:38 2013
 By ,,,
Copyright (c) 1995 ParaGraph Intl., (c) 1998 ParaType Inc., ParaType Ltd. All rights reserved.
</metadata>
<defs>
<font id="FuturaPTCond-ExtraBoldObl" horiz-adv-x="500" >
  <font-face 
    font-family="Futura PT Cond Extra Bold Ital"
    font-weight="400"
    font-style="italic"
    font-stretch="condensed"
    units-per-em="1000"
    panose-1="2 11 10 6 2 2 4 9 2 3"
    ascent="763"
    descent="-237"
    x-height="467"
    cap-height="667"
    bbox="-272 -250 1024 930"
    underline-thickness="50"
    underline-position="-200"
    slope="-7"
    unicode-range="U+0020-FB02"
  />
<missing-glyph horiz-adv-x="233" 
 />
    <glyph glyph-name="afii10017.var.accented" unicode="&#x410;`" horiz-adv-x="524" 
d="M491 0h-183l-3 85h-119l-25 -85h-184l240 667h217zM300 305v87q0 1 3 115q-3 -11 -10.5 -43.5t-12.5 -50.5q-6 -21 -24 -86t-29 -100h75q-2 52 -2 78zM459 868l-105 -148h-98l65 148h138z" />
    <glyph glyph-name="afii10022.var.accented" unicode="&#x415;`" horiz-adv-x="405" 
d="M430 667l-20 -157h-152l-12 -97h137l-19 -151h-136l-13 -102h152l-19 -160h-330l82 667h330zM409 868l-105 -148h-98l65 148h138z" />
    <glyph glyph-name="afii10026.var.accented" unicode="&#x418;`" horiz-adv-x="557" 
d="M18 0l82 667h170l-23 -185q-14 -118 -47 -225q45 105 92 195l115 215h158l-82 -667h-170l22 178q12 102 37 214q-27 -79 -87 -190l-109 -202h-158zM465 868l-105 -148h-98l65 148h138z" />
    <glyph glyph-name="afii10032.var.accented" unicode="&#x41e;`" horiz-adv-x="558" 
d="M337 679q86 0 140 -57q69 -72 69 -208q0 -96 -30.5 -195t-94.5 -161q-71 -70 -167 -70q-87 0 -146 62q-70 72 -70 213q0 116 34.5 203t88.5 139q75 74 176 74zM315 511q-17 0 -35 -19q-25 -27 -41 -91q-17 -67 -17 -139t22 -94q11 -11 26 -11q19 0 33 16q28 31 44 99
q15 61 15 134q0 77 -22 96q-10 9 -25 9zM486 868l-105 -148h-98l65 148h138z" />
    <glyph glyph-name="afii10037.var.accented" unicode="&#x423;`" 
d="M54 667h184l23 -109q15 -70 17 -141q22 78 49 146l41 104h186l-318 -667h-177l108 230zM437 868l-105 -148h-98l65 148h138z" />
    <glyph glyph-name="afii10045.var.accented" unicode="&#x42b;`" horiz-adv-x="751" 
d="M674 0h-177l79 667h183zM220 0h-202l82 667h177l-30 -245h8q118 0 174 -55q52 -50 52 -131q0 -105 -65 -170q-67 -66 -196 -66zM229 278l-16 -133q44 -6 73 24q18 18 18 51q0 30 -20 46q-22 17 -55 12zM562 868l-105 -148h-98l65 148h138z" />
    <glyph glyph-name="afii10047.var.accented" unicode="&#x42d;`" horiz-adv-x="496" 
d="M40 29l11 193q16 -25 43 -44q29 -20 66 -20q45 0 77 28q31 28 40 75h-151l19 151h150q-7 48 -36 74t-76 26q-32 0 -61 -16q-24 -14 -44 -35l24 188q55 30 117 30q115 0 184 -69q37 -37 59 -97.5t22 -132.5q0 -87 -30.5 -176t-92.5 -147q-73 -69 -183 -69q-40 0 -69 9.5
t-69 31.5zM388 868l-105 -148h-98l65 148h138z" />
    <glyph glyph-name="afii10048.var.accented" unicode="&#x42e;`" horiz-adv-x="810" 
d="M247 425h69q24 109 97 182q73 72 174 72q88 0 142 -57q69 -72 69 -208q0 -97 -30.5 -195.5t-94.5 -161.5q-69 -69 -172 -69q-84 0 -137 53q-70 70 -70 227h-66l-33 -268h-177l82 667h177zM567 511q-17 0 -35 -19q-25 -27 -41 -91q-17 -67 -17 -139t22 -94q11 -11 26 -11
q19 0 33 16q28 31 44 99q15 61 15 134q0 77 -22 96q-10 9 -25 9zM602 868l-105 -148h-98l65 148h138z" />
    <glyph glyph-name="afii10049.var.accented" unicode="&#x42f;`" horiz-adv-x="541" 
d="M0 0l155 269q-41 18 -63 50q-28 40 -28 102q0 107 63 172q73 74 250 74h172l-82 -667h-177l19 147q12 91 18 120l-128 -267h-199zM334 358l19 159q-43 5 -70 -20q-28 -24 -28 -70q0 -30 19 -49q22 -20 54 -20h6zM497 868l-105 -148h-98l65 148h138z" />
    <glyph glyph-name="afii10023.var.accented" unicode="&#x401;`" horiz-adv-x="405" 
d="M430 667l-20 -157h-152l-12 -97h137l-19 -151h-136l-13 -102h152l-19 -160h-330l82 667h330zM357 847l-85 -124l-73 12l59 133zM206 799q0 -2 -4 -18q-8 -20 -27 -33.5t-41 -13.5q-25 0 -41.5 16.5t-16.5 41.5q0 28 22 50t51 22q28 0 42.5 -18t14.5 -47zM483 806
q0 -28 -22 -50t-51 -22q-25 0 -41 16.5t-16 41.5q0 29 21.5 50.5t50.5 21.5q25 0 41.5 -16.5t16.5 -41.5z" />
    <glyph glyph-name="afii10065.var.accented" unicode="&#x430;`" horiz-adv-x="489" 
d="M479 467l-57 -467h-171q3 13 8 39.5t7 39.5q-53 -89 -130 -89q-33 0 -56.5 17t-35 45t-16.5 56t-5 59q0 69 14 128q8 33 21 63t32.5 58t48.5 44.5t63 16.5q40 0 62 -21.5t37 -62.5q0 12 1.5 36.5t2.5 37.5h174zM282 288q0 46 -28 46q-31 0 -45 -51t-14 -95q0 -55 31 -55
q30 0 43 54.5t13 100.5zM431 678l-105 -148h-98l65 148h138z" />
    <glyph glyph-name="afii10070.var.accented" unicode="&#x435;`" horiz-adv-x="474" 
d="M266 157h166q-26 -80 -84 -123.5t-141 -43.5q-89 0 -136.5 51t-47.5 140q0 116 68 205.5t180 89.5q87 0 133.5 -55.5t46.5 -144.5q0 -27 -8 -79h-250q-1 -6 -1 -19q0 -53 32 -53q31 0 42 32zM207 290h79q0 2 0.5 6t0.5 6q0 47 -34 47q-20 0 -31.5 -18t-14.5 -41zM423 678
l-105 -148h-98l65 148h138z" />
    <glyph glyph-name="afii10074.var.accented" unicode="&#x438;`" horiz-adv-x="504" 
d="M68 467h166l-16 -131q-7 -59 -22 -123q24 53 46 90l94 164h158l-57 -467h-166l15 125q4 35 22 129q-23 -55 -46 -94l-93 -160h-158zM439 678l-105 -148h-98l65 148h138z" />
    <glyph glyph-name="afii10080.var.accented" unicode="&#x43e;`" horiz-adv-x="480" 
d="M270 477q82 0 131 -47q55 -53 55 -152q0 -66 -22 -126.5t-62 -99.5q-64 -62 -164 -62q-79 0 -127 44q-57 52 -57 156q0 137 85 222q67 65 161 65zM254 346q-13 0 -24 -11q-18 -18 -29 -60.5t-11 -79.5t11 -57q10 -17 26 -17q15 0 25 12q19 19 29 61t10 79q0 35 -11 56
q-8 17 -26 17zM427 678l-105 -148h-98l65 148h138z" />
    <glyph glyph-name="afii10085.var.accented" unicode="&#x443;`" horiz-adv-x="458" 
d="M487 467l-301 -682h-176l110 234l-82 448h172q2 -18 7 -57t7.5 -61.5t5 -55.5t2.5 -61q0 -5 -0.5 -15t-0.5 -15q36 133 48 164l38 101h170zM411 678l-105 -148h-98l65 148h138z" />
    <glyph glyph-name="afii10093.var.accented" unicode="&#x44b;`" horiz-adv-x="694" 
d="M626 0h-172l57 467h172zM219 301h49q87 0 131 -36q43 -36 43 -100q0 -75 -45 -119q-48 -46 -139 -46h-248l57 467h172zM196 110h5q36 0 50 7q21 11 21 38q0 14 -9 24q-13 14 -51 14h-6zM524 678l-105 -148h-98l65 148h138z" />
    <glyph glyph-name="afii10095.var.accented" unicode="&#x44d;`" horiz-adv-x="389" 
d="M20 22l17 133q29 -33 75 -33q33 0 53 15q22 18 27 45h-107l13 104h103q-5 30 -26 45q-18 14 -51 14q-37 0 -68 -23l17 135q46 20 95 20q90 0 142 -54q55 -57 55 -162q0 -51 -17.5 -109t-59.5 -101q-58 -61 -152 -61q-68 0 -116 32zM331 678l-105 -148h-98l65 148h138z
" />
    <glyph glyph-name="afii10096.var.accented" unicode="&#x44e;`" horiz-adv-x="706" 
d="M217 306h55q17 74 76 122q60 49 144 49q85 0 135 -48q55 -54 55 -153q0 -68 -22 -128t-62 -99q-62 -59 -164 -59q-84 0 -130 49q-47 49 -49 131h-56l-20 -170h-168l57 467h168zM480 346q-13 0 -24 -11q-18 -18 -29 -60.5t-11 -79.5t11 -57q10 -17 26 -17q15 0 25 12
q19 19 29 61t10 79q0 35 -11 56q-8 17 -26 17zM540 678l-105 -148h-98l65 148h138z" />
    <glyph glyph-name="afii10097.var.accented" unicode="&#x44f;`" horiz-adv-x="478" 
d="M0 0l104 162q-30 11 -48 35q-22 31 -22 76q0 85 50 137q34 35 79.5 46t121.5 11h183l-57 -467h-172l12 102q5 43 10 73q-7 -18 -15.5 -36.5t-9.5 -19.5l-55 -119h-181zM270 250l11 95h-9q-36 0 -50 -12q-15 -13 -15 -37q0 -22 15 -34t42 -12h6zM436 678l-105 -148h-98
l65 148h138z" />
    <glyph glyph-name="afii10071.var.accented" unicode="&#x451;`" horiz-adv-x="474" 
d="M266 157h166q-26 -80 -84 -123.5t-141 -43.5q-89 0 -136.5 51t-47.5 140q0 116 68 205.5t180 89.5q87 0 133.5 -55.5t46.5 -144.5q0 -27 -8 -79h-250q-1 -6 -1 -19q0 -53 32 -53q31 0 42 32zM207 290h79q0 2 0.5 6t0.5 6q0 47 -34 47q-20 0 -31.5 -18t-14.5 -41zM340 662
l-91 -128l-63 16l64 131zM190 609q0 -8 -5 -18q-8 -20 -26.5 -33.5t-40.5 -13.5q-25 0 -41.5 16.5t-16.5 41.5q0 29 22 50.5t51 21.5q28 0 42.5 -18t14.5 -47zM466 616q0 -28 -22 -50t-51 -22q-24 0 -40.5 16.5t-16.5 41.5q0 28 22 50t50 22q25 0 41.5 -16.5t16.5 -41.5z
" />
    <glyph glyph-name="fi" unicode="fi" horiz-adv-x="539" 
d="M352 728l-20 -161q-17 17 -33 17q-27 0 -32 -48l-8 -69h61l-17 -140h-61l-40 -327h-171l40 327h-49l17 140h50q1 9 4.5 45t5.5 51.5t8.5 41t16.5 43.5q22 43 62 67.5t88 24.5q35 0 78 -12zM563 624q0 -44 -34.5 -78.5t-78.5 -34.5q-37 0 -62.5 25.5t-25.5 63.5
q0 45 34 79t79 34q38 0 63 -25.5t25 -63.5zM529 467l-57 -467h-171l58 467h170z" />
    <glyph glyph-name="fl" unicode="fl" horiz-adv-x="539" 
d="M352 728l-20 -161q-17 17 -33 17q-27 0 -32 -48l-8 -69h61l-17 -140h-61l-40 -327h-171l40 327h-49l17 140h50q1 9 4.5 45t5.5 51.5t8.5 41t16.5 43.5q22 43 62 67.5t88 24.5q35 0 78 -12zM562 729l-90 -729h-171l90 729h171z" />
    <glyph glyph-name=".notdef" horiz-adv-x="233" 
 />
    <glyph glyph-name=".null" horiz-adv-x="0" 
 />
    <glyph glyph-name="nonmarkingreturn" horiz-adv-x="333" 
 />
    <glyph glyph-name="space" unicode=" " horiz-adv-x="233" 
 />
    <glyph glyph-name="exclam" unicode="!" horiz-adv-x="314" 
d="M303 690l-54 -450h-173l54 450h173zM242 103q0 -44 -34.5 -78.5t-78.5 -34.5q-38 0 -62.5 25.5t-24.5 63.5q0 45 33.5 79.5t78.5 34.5q39 0 63.5 -25.5t24.5 -64.5z" />
    <glyph glyph-name="quotedbl" unicode="&#x22;" horiz-adv-x="413" 
d="M422 667l-25 -268h-95l-24 268h144zM234 667l-24 -268h-96l-24 268h144z" />
    <glyph glyph-name="numbersign" unicode="#" horiz-adv-x="600" 
d="M639 498l-32 -116h-100l-23 -83h101l-32 -117h-102l-51 -182h-134l52 182h-84l-52 -182h-132l52 182h-102l33 117h101l23 83h-100l32 116h101l48 169h131l-47 -169h84l48 169h133l-48 -169h100zM374 382h-85l-23 -83h84z" />
    <glyph glyph-name="dollar" unicode="$" horiz-adv-x="532" 
d="M472 642l-24 -202q-45 71 -99 71q-20 0 -34.5 -12.5t-14.5 -31.5q0 -15 14 -30.5t34.5 -32t41 -36.5t34.5 -53t14 -72q0 -94 -62 -169q-33 -38 -90 -67l-12 -101h-84l10 85q-43 2 -68.5 7.5t-62.5 22.5l26 208q16 -33 43.5 -54t60.5 -21q23 0 40.5 13t17.5 36
q0 18 -21.5 41.5t-46.5 45t-46.5 59t-21.5 80.5q0 105 72 180q45 47 98 65l11 93h84l-10 -88q47 -10 96 -37z" />
    <glyph glyph-name="percent" unicode="%" horiz-adv-x="713" 
d="M335 531q0 -78 -44.5 -136t-115.5 -58q-61 0 -94.5 38t-33.5 105q0 85 44 142t122 57q61 0 91.5 -40t30.5 -108zM219 533q0 48 -20 48t-28 -32t-8 -66q0 -49 21 -49q19 0 27 33t8 66zM599 667l-370 -667h-92l372 667h90zM692 189q0 -78 -44.5 -136t-115.5 -58
q-61 0 -94.5 38t-33.5 105q0 85 44 142t122 57q61 0 91.5 -40t30.5 -108zM576 191q0 48 -20 48t-28 -32t-8 -66q0 -49 21 -49q19 0 27 33t8 66z" />
    <glyph glyph-name="ampersand" unicode="&#x26;" horiz-adv-x="620" 
d="M508 316l76 -122q-50 -48 -77 -70l76 -124h-192l-22 36q-76 -48 -153 -48t-129.5 52.5t-52.5 128.5q0 129 136 202q-36 52 -36 111q0 80 62.5 138.5t143.5 58.5q73 0 125.5 -45t52.5 -117q0 -112 -134 -192l54 -86q39 39 70 77zM369 511q0 14 -9 22.5t-23 8.5
q-17 0 -29 -12t-12 -29t23 -61q50 40 50 71zM295 160l-54 87q-38 -21 -38 -57q0 -20 12.5 -33.5t32.5 -13.5q23 0 47 17z" />
    <glyph glyph-name="quotesingle" unicode="'" horiz-adv-x="225" 
d="M234 667l-24 -268h-96l-24 268h144z" />
    <glyph glyph-name="parenleft" unicode="(" horiz-adv-x="330" 
d="M231 737l119 -69q-153 -252 -153 -501q0 -170 54 -315l-136 -69q-73 172 -73 356q0 316 189 598z" />
    <glyph glyph-name="parenright" unicode=")" horiz-adv-x="330" 
d="M86 668l136 69q73 -167 73 -358q0 -315 -189 -596l-119 69q71 111 112.5 241.5t41.5 258.5q0 169 -55 316z" />
    <glyph glyph-name="asterisk" unicode="*" horiz-adv-x="525" 
d="M486 530l-108 -15l59 -93l-98 -55l-47 99l-69 -85l-82 77l79 76l-101 40l48 103l95 -52l7 110l111 -14l-20 -108l105 28z" />
    <glyph glyph-name="plus" unicode="+" 
d="M480 280h-151v-153h-130v153h-152v120h152v153h130v-153h151v-120z" />
    <glyph glyph-name="comma" unicode="," horiz-adv-x="289" 
d="M250 159l-154 -320h-140l120 320h174z" />
    <glyph glyph-name="hyphen" unicode="-" horiz-adv-x="317" 
d="M262 186h-217l16 134h217z" />
    <glyph glyph-name="period" unicode="." horiz-adv-x="289" 
d="M228 102q0 -44 -34 -78t-78 -34q-38 0 -63.5 26t-25.5 64q0 44 34 78t78 34q38 0 63.5 -26t25.5 -64z" />
    <glyph glyph-name="slash" unicode="/" horiz-adv-x="526" 
d="M565 729l-489 -945h-120l489 945h120z" />
    <glyph glyph-name="zero" unicode="0" horiz-adv-x="532" 
d="M516 426q0 -95 -20 -178q-12 -50 -32.5 -93.5t-51 -82.5t-74 -61.5t-95.5 -22.5q-55 0 -95.5 22.5t-62.5 62t-32 84.5t-10 97q0 93 21 171q27 106 93.5 180t165.5 74q53 0 91.5 -21.5t60 -58.5t31.5 -80t10 -93zM343 436q0 87 -43 87q-26 0 -44 -37t-25.5 -93t-10.5 -96
t-3 -71q0 -82 38 -82q35 0 56.5 66t26.5 123.5t5 102.5z" />
    <glyph glyph-name="one" unicode="1" horiz-adv-x="532" 
d="M438 667l-82 -667h-177l62 510h-71l19 157h249z" />
    <glyph glyph-name="two" unicode="2" horiz-adv-x="532" 
d="M260 425h-172q9 110 75.5 182t174.5 72q84 0 134.5 -51.5t50.5 -135.5q0 -51 -18 -100.5t-51.5 -93.5t-66.5 -78t-77 -72q37 3 165 5l-19 -153h-452l209 243q29 33 45.5 53.5t41.5 56.5t37.5 69t12.5 63q0 18 -9 32t-26 14q-49 0 -55 -106z" />
    <glyph glyph-name="three" unicode="3" horiz-adv-x="532" 
d="M257 477h-171q18 92 81.5 147t155.5 55q78 0 130.5 -47.5t52.5 -124.5q0 -66 -42 -117q-19 -24 -57 -45q71 -44 71 -131q0 -99 -74.5 -162.5t-174.5 -63.5q-82 0 -138 45t-56 125q0 7 2 20t2 18h173q-1 -6 -1 -18q0 -42 37 -42q26 0 41.5 22.5t15.5 49.5q0 60 -63 60
q-6 0 -16 -1t-16 -1l18 142q7 -1 21 -1q81 0 81 80q0 43 -31 43t-42 -53z" />
    <glyph glyph-name="four" unicode="4" horiz-adv-x="532" 
d="M508 279l-17 -144h-56l-17 -135h-177l16 135h-238l17 141l247 391h217l-48 -388h56zM183 279h98q25 165 31 200q-78 -134 -129 -200z" />
    <glyph glyph-name="five" unicode="5" horiz-adv-x="532" 
d="M514 667l-19 -157h-187l-24 -75q10 1 30 1q76 0 122.5 -50.5t46.5 -126.5q0 -113 -84 -192t-197 -79q-92 0 -174 52l40 158q73 -46 135 -46q40 0 70.5 22t30.5 61q0 66 -96 66q-56 0 -119 -23l98 389h327z" />
    <glyph glyph-name="six" unicode="6" horiz-adv-x="532" 
d="M456 667l-128 -190q-16 -24 -39 -52q34 18 64 18q67 0 102.5 -54.5t35.5 -124.5q0 -114 -73.5 -195t-186.5 -81q-90 0 -139 56t-49 148q0 36 12.5 81t26 79t44 89t45 78.5t52 81.5t42.5 66h191zM320 254q0 23 -10.5 41t-31.5 18q-18 0 -31 -13t-19 -33.5t-8.5 -38.5
t-2.5 -35q0 -61 39 -61q34 0 49 40t15 82z" />
    <glyph glyph-name="seven" unicode="7" horiz-adv-x="532" 
d="M583 667l-377 -667h-191l201 355q46 80 104 155h-222l19 157h466z" />
    <glyph glyph-name="eight" unicode="8" horiz-adv-x="532" 
d="M512 513q0 -67 -40 -116q-24 -29 -69 -50q84 -37 84 -130q0 -100 -74.5 -164.5t-175.5 -64.5q-82 0 -141.5 49t-59.5 129q0 90 67 146q22 18 66 35q-43 15 -63 43t-20 75q0 92 70 153t163 61q79 0 136 -44.5t57 -121.5zM335 492q0 17 -7.5 30t-23.5 13q-23 0 -33.5 -22.5
t-10.5 -48.5q0 -45 33 -45q21 0 31.5 24.5t10.5 48.5zM308 225q0 52 -36 52q-24 0 -38 -27.5t-14 -54.5q0 -53 36 -53q26 0 39 27t13 56z" />
    <glyph glyph-name="nine" unicode="9" horiz-adv-x="532" 
d="M102 0l128 189q20 30 39 53q-33 -19 -65 -19q-66 0 -101.5 54.5t-35.5 124.5q0 114 74 195.5t187 81.5q90 0 138.5 -56t48.5 -148q0 -36 -12.5 -81.5t-25.5 -78.5t-45 -90t-44.5 -77t-53 -82t-42.5 -66h-190zM342 475q0 60 -39 60q-24 0 -40 -23.5t-20.5 -49t-4.5 -50.5
q0 -23 10.5 -41t31.5 -18q24 0 39 24t19 48.5t4 49.5z" />
    <glyph glyph-name="colon" unicode=":" horiz-adv-x="289" 
d="M263 387q0 -44 -34 -78t-78 -34q-38 0 -63.5 26t-25.5 64q0 44 34 78t78 34q38 0 63.5 -26t25.5 -64zM228 102q0 -44 -34 -78t-78 -34q-38 0 -63.5 26t-25.5 64q0 44 34 78t78 34q38 0 63.5 -26t25.5 -64z" />
    <glyph glyph-name="semicolon" unicode=";" horiz-adv-x="289" 
d="M296 387q0 -44 -34 -78t-78 -34q-38 0 -63.5 25.5t-25.5 63.5q0 45 33.5 79t78.5 34q38 0 63.5 -26t25.5 -64zM250 159l-154 -320h-140l120 320h174z" />
    <glyph glyph-name="less" unicode="&#x3c;" 
d="M466 58l-433 222v109l433 220v-128l-296 -147l295 -148z" />
    <glyph glyph-name="equal" unicode="=" 
d="M480 370h-433v113h433v-113zM480 197h-433v113h433v-113z" />
    <glyph glyph-name="greater" unicode="&#x3e;" 
d="M493 279l-433 -221v129l296 147l-295 147l-1 128l433 -221v-109z" />
    <glyph glyph-name="question" unicode="?" horiz-adv-x="501" 
d="M242 478h-171q10 79 45 129q31 45 83 70t109 25q86 0 137 -52t51 -138q0 -72 -40 -129.5t-111 -77.5l-7 -65h-169l19 160q18 -2 27 -2q104 0 104 102q0 54 -31 54q-37 0 -46 -76zM337 103q0 -44 -34.5 -78.5t-78.5 -34.5q-38 0 -62.5 25.5t-24.5 63.5q0 45 33.5 79.5
t78.5 34.5q39 0 63.5 -25.5t24.5 -64.5z" />
    <glyph glyph-name="at" unicode="@" horiz-adv-x="733" 
d="M554 98l10 -80q-94 -30 -206 -30q-141 0 -228 79t-87 219q0 158 119 275t278 117q121 0 201.5 -69t80.5 -188q0 -86 -47 -163q-27 -43 -66 -73.5t-83 -30.5q-25 0 -45.5 15t-24.5 39q-52 -63 -133 -63q-55 0 -88.5 39t-33.5 95q0 80 60.5 151.5t139.5 71.5q68 0 92 -48
l12 38l88 -1l-60 -189q-12 -41 -12 -53q0 -22 20 -22q21 0 48 32q54 64 54 152q0 89 -58.5 138t-149.5 49q-124 0 -214.5 -90.5t-90.5 -215.5q0 -91 53 -154q60 -70 186 -70q95 0 185 30zM457 349q0 27 -14 43.5t-40 16.5q-40 0 -70 -37t-30 -78q0 -26 16 -42t41 -16
q39 0 68 36t29 77z" />
    <glyph glyph-name="A" unicode="A" horiz-adv-x="524" 
d="M491 0h-183l-3 85h-119l-25 -85h-184l240 667h217zM300 305v87q0 1 3 115q-3 -11 -10.5 -43.5t-12.5 -50.5q-6 -21 -24 -86t-29 -100h75q-2 52 -2 78z" />
    <glyph glyph-name="B" unicode="B" horiz-adv-x="522" 
d="M100 667h206q206 0 206 -165q0 -68 -36.5 -111t-103.5 -49q60 -8 88.5 -37.5t28.5 -89.5q0 -94 -64.5 -154.5t-158.5 -60.5h-248zM259 522l-14 -114q4 -1 12 -1q33 0 55 17.5t22 48.5q0 50 -56 50q-13 0 -19 -1zM229 272l-16 -127q5 -1 15 -1q34 0 58 20t24 54
q0 28 -19 41.5t-48 13.5q-3 0 -7 -0.5t-7 -0.5z" />
    <glyph glyph-name="C" unicode="C" horiz-adv-x="438" 
d="M461 662l-23 -190q-35 40 -77 40q-50 0 -83.5 -39.5t-45 -87t-11.5 -96.5q0 -55 22 -91t73 -36q47 0 97 43l-34 -193q-59 -24 -109 -24q-113 0 -172.5 77.5t-59.5 194.5q0 77 21 150t61 134t106 98t147 37q48 0 88 -17z" />
    <glyph glyph-name="D" unicode="D" horiz-adv-x="529" 
d="M100 667h153q126 0 195 -71.5t69 -197.5q0 -158 -75 -270q-47 -69 -108.5 -98.5t-149.5 -29.5h-166zM257 500l-42 -339q34 2 59 24.5t37 57.5t17.5 68t5.5 65q0 124 -77 124z" />
    <glyph glyph-name="E" unicode="E" horiz-adv-x="405" 
d="M430 667l-20 -157h-152l-12 -97h137l-19 -151h-136l-13 -102h152l-19 -160h-330l82 667h330z" />
    <glyph glyph-name="F" unicode="F" horiz-adv-x="382" 
d="M413 667l-19 -157h-136l-12 -97h127l-19 -151h-126l-33 -262h-177l82 667h313z" />
    <glyph glyph-name="G" unicode="G" horiz-adv-x="552" 
d="M543 514l-180 -64q0 68 -44 68q-25 0 -43.5 -23t-24.5 -42.5t-14 -50.5q-21 -93 -21 -161q0 -93 53 -93q32 0 50 30t23 67h-65l17 140h247q-8 -85 -24 -148q-26 -111 -91.5 -180t-172.5 -69q-111 0 -163.5 74.5t-52.5 190.5q0 95 24 177q31 107 102.5 178t174.5 71
q156 0 205 -165z" />
    <glyph glyph-name="H" unicode="H" horiz-adv-x="531" 
d="M539 667l-82 -667h-177l33 268h-85l-33 -268h-177l82 667h177l-29 -236h85l29 236h177z" />
    <glyph glyph-name="I" unicode="I" horiz-adv-x="269" 
d="M277 667l-82 -667h-177l82 667h177z" />
    <glyph glyph-name="J" unicode="J" horiz-adv-x="349" 
d="M357 667l-57 -463q-11 -85 -37 -125q-57 -91 -177 -91q-53 0 -113 22l23 186q25 -39 66 -39q55 0 65 82l52 428h178z" />
    <glyph glyph-name="K" unicode="K" horiz-adv-x="533" 
d="M564 667l-181 -322l117 -345h-191l-79 319l-35 -319h-177l82 667h177l-40 -298l140 298h187z" />
    <glyph glyph-name="L" unicode="L" horiz-adv-x="363" 
d="M348 160l-19 -160h-311l82 667h177l-62 -507h133z" />
    <glyph glyph-name="M" unicode="M" horiz-adv-x="755" 
d="M712 667l-18 -667h-185q10 130 35 425q-28 -110 -126 -425h-145l-11 321q0 5 -0.5 17t-0.5 17q0 24 2 70q-13 -100 -71 -425h-190l158 667h221l9 -225q2 -34 2 -50q0 -12 -0.5 -25.5t-1.5 -29.5t-1 -25q10 43 24 94t23 81t30 95t27 85h219z" />
    <glyph glyph-name="N" unicode="N" horiz-adv-x="554" 
d="M562 667l-82 -667h-169l-59 245q-19 81 -28 139q-1 -17 -3 -53t-3 -53q-2 -35 -31 -278h-169l82 667h169l60 -234q8 -32 20 -93.5t15 -74.5q0 176 10 252l19 150h169z" />
    <glyph glyph-name="O" unicode="O" horiz-adv-x="558" 
d="M546 422q0 -101 -26 -191q-31 -103 -99.5 -173t-166.5 -70q-50 0 -95 24t-74 65q-47 69 -47 186q0 100 29 187q34 98 104 163.5t166 65.5q102 0 155.5 -75.5t53.5 -181.5zM362 408q0 103 -47 103q-19 0 -35 -18t-26 -45.5t-16 -50.5t-9 -42q-7 -41 -7 -89q0 -109 48 -109
q19 0 35.5 18.5t26.5 47t15.5 51.5t8.5 44q6 45 6 90z" />
    <glyph glyph-name="P" unicode="P" horiz-adv-x="498" 
d="M100 667h172q238 0 238 -193q0 -115 -73 -190q-76 -77 -215 -65l-27 -219h-177zM241 368h9q36 0 57.5 25.5t21.5 61.5q0 29 -14.5 47.5t-42.5 18.5h-13z" />
    <glyph glyph-name="Q" unicode="Q" horiz-adv-x="566" 
d="M354 -93l-50 89q-24 -8 -54 -8q-71 0 -121 40.5t-71 99t-21 128.5q0 95 24 174q32 106 102.5 177.5t171.5 71.5q72 0 121.5 -40.5t70.5 -99.5t21 -129q0 -90 -28 -181.5t-83 -150.5l69 -92zM362 403q0 108 -50 108q-32 0 -53.5 -54.5t-29.5 -104.5q-7 -41 -7 -89
q0 -106 49 -106q25 0 44.5 31.5t28 62.5t12.5 60q6 45 6 92z" />
    <glyph glyph-name="R" unicode="R" horiz-adv-x="525" 
d="M100 667h181q230 0 230 -191q0 -147 -124 -199l98 -277h-192q-6 24 -23.5 93t-25.5 107q-3 13 -8.5 38.5t-8.5 38.5q-8 -93 -32 -277h-177zM239 358h12q35 0 59 29.5t24 65.5q0 64 -75 64z" />
    <glyph glyph-name="S" unicode="S" horiz-adv-x="398" 
d="M408 645l-25 -204q-37 73 -95 73q-19 0 -36 -12.5t-17 -31.5t22 -41t48 -41.5t48 -57.5t22 -84q0 -105 -69 -181.5t-173 -76.5q-63 0 -127 29l26 209q44 -73 104 -73q23 0 40.5 13.5t17.5 36.5q0 16 -14 32.5t-34.5 33.5t-41 38t-34.5 54t-14 73q0 95 67.5 170t160.5 75
q62 0 124 -34z" />
    <glyph glyph-name="T" unicode="T" horiz-adv-x="377" 
d="M427 667l-20 -160h-98l-62 -507h-177l62 507h-98l20 160h373z" />
    <glyph glyph-name="U" unicode="U" horiz-adv-x="537" 
d="M545 667l-58 -472q-11 -98 -85 -155q-66 -52 -155 -52q-92 0 -148.5 47t-56.5 137q0 24 3 48l55 447h177l-53 -431q-2 -22 -2 -33q0 -46 39 -46q16 0 26.5 7t16 20.5t7.5 24t4 27.5l53 431h177z" />
    <glyph glyph-name="V" unicode="V" horiz-adv-x="510" 
d="M564 667l-261 -667h-181l-68 667h186q12 -250 12 -312q0 -41 -4 -123q9 42 19 84t25.5 96t23 78t30 95t25.5 82h193z" />
    <glyph glyph-name="W" unicode="W" horiz-adv-x="742" 
d="M796 667l-215 -667h-171q-17 330 -16 417q-8 -30 -20 -92q-4 -21 -20 -83l-63 -242h-173l-64 667h175q3 -78 7 -241q2 -38 2 -57q0 -39 -2 -119q27 129 113 417h152q14 -217 15 -287v-138q26 134 49 218l58 207h173z" />
    <glyph glyph-name="X" unicode="X" horiz-adv-x="509" 
d="M552 667l-190 -321l119 -346h-197q-9 37 -26 124q-8 35 -10 55q-25 -61 -83 -179h-193l202 346l-111 321h197q3 -18 10.5 -55t11.5 -55q1 -5 2.5 -15t3 -18t3.5 -15q14 45 62 158h199z" />
    <glyph glyph-name="Y" unicode="Y" horiz-adv-x="493" 
d="M547 667l-200 -385l-35 -282h-177l35 282l-116 385h185q30 -146 37 -206q21 56 87 206h184z" />
    <glyph glyph-name="Z" unicode="Z" horiz-adv-x="507" 
d="M544 667l-2 -19l-206 -363q-14 -25 -41 -70t-38 -63q35 3 203 8l-19 -160h-453l2 14l181 326q53 95 110 170h-191l19 157h435z" />
    <glyph glyph-name="bracketleft" unicode="[" horiz-adv-x="344" 
d="M372 729l-14 -119h-102l-85 -699h101l-15 -120h-251l115 938h251z" />
    <glyph glyph-name="backslash" unicode="\" horiz-adv-x="562" 
d="M53 729h120l372 -945h-120z" />
    <glyph glyph-name="bracketright" unicode="]" horiz-adv-x="344" 
d="M346 729l-115 -938h-252l15 120h101l86 699h-101l14 119h252z" />
    <glyph glyph-name="asciicircum" unicode="^" 
d="M509 330h-136l-110 233l-110 -233h-135l160 337h170z" />
    <glyph glyph-name="underscore" unicode="_" 
d="M472 -166h-500v120h500v-120z" />
    <glyph glyph-name="grave" unicode="`" 
d="M340 530h-98l-68 148h138z" />
    <glyph glyph-name="a" unicode="a" horiz-adv-x="489" 
d="M479 467l-57 -467h-171q3 13 8 39.5t7 39.5q-53 -89 -130 -89q-33 0 -56.5 17t-35 45t-16.5 56t-5 59q0 69 14 128q8 33 21 63t32.5 58t48.5 44.5t63 16.5q40 0 62 -21.5t37 -62.5q0 12 1.5 36.5t2.5 37.5h174zM282 288q0 46 -28 46q-31 0 -45 -51t-14 -95q0 -55 31 -55
q30 0 43 54.5t13 100.5z" />
    <glyph glyph-name="b" unicode="b" horiz-adv-x="489" 
d="M101 729h171q-3 -21 -15 -122.5t-20 -155.5q-6 -32 -8 -52q25 38 51.5 58t66.5 20q35 0 60 -16t37.5 -43.5t17.5 -56.5t5 -62q0 -70 -14 -129q-18 -73 -60 -126.5t-107 -53.5q-37 0 -57 17.5t-39 55.5q-1 -11 -2 -32t-2 -31h-175zM290 273q0 60 -34 60q-20 0 -33 -29.5
t-16.5 -57.5t-3.5 -51q0 -56 31 -56q30 0 43 46.5t13 87.5z" />
    <glyph glyph-name="c" unicode="c" horiz-adv-x="298" 
d="M309 475l-19 -152q-41 -3 -64 -30t-23 -68q0 -28 14.5 -50.5t40.5 -22.5h11l-19 -159q-22 -3 -46 -3q-88 0 -133.5 60t-45.5 150q0 109 71.5 193t178.5 84q12 0 34 -2z" />
    <glyph glyph-name="d" unicode="d" horiz-adv-x="489" 
d="M511 729l-89 -729h-174q1 12 5.5 34t5.5 29q-27 -36 -52.5 -54.5t-61.5 -18.5q-66 0 -94.5 51t-28.5 123q0 70 14 129q18 74 60 129t107 55q39 0 61 -19.5t39 -58.5q4 62 38 330h170zM288 274q0 59 -29 59q-31 0 -44.5 -46.5t-13.5 -89.5q0 -58 33 -58q29 0 41.5 47
t12.5 88z" />
    <glyph glyph-name="e" unicode="e" horiz-adv-x="474" 
d="M266 157h166q-26 -80 -84 -123.5t-141 -43.5q-89 0 -136.5 51t-47.5 140q0 116 68 205.5t180 89.5q87 0 133.5 -55.5t46.5 -144.5q0 -27 -8 -79h-250q-1 -6 -1 -19q0 -53 32 -53q31 0 42 32zM207 290h79q0 2 0.5 6t0.5 6q0 47 -34 47q-20 0 -31.5 -18t-14.5 -41z" />
    <glyph glyph-name="f" unicode="f" horiz-adv-x="296" 
d="M352 728l-20 -161q-17 17 -33 17q-27 0 -32 -48l-8 -69h61l-17 -140h-61l-40 -327h-171l40 327h-49l17 140h50q1 9 4.5 45t5.5 51.5t8.5 41t16.5 43.5q22 43 62 67.5t88 24.5q35 0 78 -12z" />
    <glyph glyph-name="g" unicode="g" horiz-adv-x="485" 
d="M475 467l-59 -479q-10 -83 -49 -128q-65 -75 -183 -75q-91 0 -137.5 40t-47.5 129h174q0 -38 31 -38q18 0 28.5 11.5t13.5 23t6 31.5q4 34 9 72q-50 -61 -114 -61q-44 0 -73.5 30.5t-40 69t-10.5 81.5q0 62 15 122q19 71 62 126t106 55q52 0 93 -71l4 61h172zM284 279
q0 57 -27 57q-21 0 -34.5 -29t-17 -57t-3.5 -51q0 -63 30 -63q28 0 40 50t12 93z" />
    <glyph glyph-name="h" unicode="h" horiz-adv-x="483" 
d="M272 729l-32 -261q-7 -50 -16 -90q53 99 134 99q47 0 73.5 -33.5t26.5 -82.5q0 -22 -3 -43l-39 -318h-171l31 247q2 18 2 26q0 31 -23 31q-36 0 -44 -69l-29 -235h-171l90 729h171z" />
    <glyph glyph-name="i" unicode="i" horiz-adv-x="249" 
d="M273 624q0 -44 -34.5 -78.5t-78.5 -34.5q-37 0 -62.5 25.5t-25.5 63.5q0 45 34 79t79 34q38 0 63 -25.5t25 -63.5zM239 467l-57 -467h-171l58 467h170z" />
    <glyph glyph-name="j" unicode="j" horiz-adv-x="252" 
d="M274 624v-10q0 -10 -8 -29q-12 -32 -41.5 -53t-62.5 -21q-38 0 -63 25.5t-25 63.5q0 45 33.5 79t78.5 34q39 0 63.5 -25t24.5 -64zM242 467l-85 -682h-170l83 682h172z" />
    <glyph glyph-name="k" unicode="k" horiz-adv-x="487" 
d="M505 467l-139 -215l93 -252h-190l-41 146q-14 48 -18 81l-28 -227h-171l90 729h171l-57 -462q9 19 33 62l75 138h182z" />
    <glyph glyph-name="l" unicode="l" horiz-adv-x="250" 
d="M272 729l-90 -729h-171l90 729h171z" />
    <glyph glyph-name="m" unicode="m" horiz-adv-x="722" 
d="M69 467h170q-5 -39 -12 -78q55 88 130 88q46 0 71 -25t39 -72q22 47 50.5 72t74.5 25q47 0 76.5 -30.5t29.5 -77.5q0 -17 -4 -49l-39 -320h-171l30 245q0 3 2 15.5t2 18.5q0 30 -22 30q-39 0 -47 -73l-29 -236h-171l29 235q4 28 4 41q0 29 -24 29q-14 0 -23 -6t-14 -20
t-6.5 -21.5t-3.5 -25.5l-29 -232h-171z" />
    <glyph glyph-name="n" unicode="n" horiz-adv-x="483" 
d="M69 467h170q-14 -84 -15 -89q53 99 134 99q47 0 73.5 -33.5t26.5 -82.5q0 -22 -3 -43l-39 -318h-171l31 247q2 18 2 26q0 31 -23 31q-36 0 -44 -69l-29 -235h-171z" />
    <glyph glyph-name="o" unicode="o" horiz-adv-x="480" 
d="M456 280q0 -123 -64.5 -206.5t-183.5 -83.5q-90 0 -137 54t-47 146q0 116 66.5 201.5t179.5 85.5q89 0 137.5 -53.5t48.5 -143.5zM291 269q0 77 -37 77q-32 0 -48 -52.5t-16 -95.5q0 -77 37 -77q32 0 48 52.5t16 95.5z" />
    <glyph glyph-name="p" unicode="p" horiz-adv-x="489" 
d="M241 467l-12 -66q49 76 115 76q46 0 75 -32t38.5 -71.5t9.5 -84.5q0 -67 -15 -122q-18 -70 -60 -123.5t-105 -53.5t-99 73q0 -25 -6 -77l-25 -201h-171l85 682h170zM290 272q0 62 -31 62q-15 0 -26.5 -16t-17 -40.5t-8 -44.5t-2.5 -35q0 -62 29 -62q28 0 42 48.5t14 87.5
z" />
    <glyph glyph-name="q" unicode="q" horiz-adv-x="487" 
d="M477 467l-84 -682h-171l25 201q2 16 4 26q2 8 5 25t5 26q-53 -73 -118 -73q-35 0 -60 17t-37.5 45.5t-17.5 58t-5 62.5q0 63 15 123q18 71 61.5 126t106.5 55q68 0 96 -76l4 66h171zM286 272q0 62 -30 62q-29 0 -41.5 -47t-12.5 -88q0 -63 31 -63q27 0 40 49t13 87z" />
    <glyph glyph-name="r" unicode="r" horiz-adv-x="339" 
d="M360 478l-24 -194q-25 15 -46 15q-33 0 -57 -27q-21 -23 -26 -72l-25 -200h-171l58 467h170l-20 -91q51 99 141 102z" />
    <glyph glyph-name="s" unicode="s" horiz-adv-x="389" 
d="M390 439l-74 -127q-35 41 -65 41q-11 0 -20.5 -7t-9.5 -18q0 -17 22 -29.5t49 -22t49 -36.5t22 -69q0 -79 -61.5 -130t-142.5 -51q-45 0 -79.5 11.5t-79.5 37.5l78 129q38 -49 79 -49q14 0 25 7t11 20q0 10 -8 17.5t-13 9.5t-19 7q-49 19 -76.5 46t-27.5 73
q0 79 64 128.5t145 49.5q66 0 132 -38z" />
    <glyph glyph-name="t" unicode="t" horiz-adv-x="297" 
d="M319 467l-17 -140h-56l-41 -327h-170l40 327h-49l17 140h49l17 137h171l-17 -137h56z" />
    <glyph glyph-name="u" unicode="u" horiz-adv-x="492" 
d="M482 467l-35 -287q-12 -99 -85 -147q-66 -43 -145 -43q-78 0 -132 39.5t-54 114.5l3 36l35 287h170l-32 -263q0 -1 -1.5 -14.5t-1.5 -20.5q0 -34 31 -34q13 0 22 6t13.5 19t5.5 20.5t3 23.5l32 263h171z" />
    <glyph glyph-name="v" unicode="v" horiz-adv-x="439" 
d="M468 467l-191 -467h-178l-70 467h173q12 -161 12 -202q0 -31 -2 -93q17 70 88 295h168z" />
    <glyph glyph-name="w" unicode="w" horiz-adv-x="672" 
d="M701 467l-191 -467h-169v280l-87 -280h-168l-57 467h168l8 -150q1 -22 1 -132q6 34 17.5 74.5t20 65.5t26 75t23.5 67h145q9 -201 6 -282q22 87 87 282h170z" />
    <glyph glyph-name="x" unicode="x" horiz-adv-x="475" 
d="M491 467l-163 -223l119 -244h-198q-17 62 -25 110q-20 -45 -61 -110h-191l169 240l-104 227h195q18 -88 20 -101q8 20 26 54t24 47h189z" />
    <glyph glyph-name="y" unicode="y" horiz-adv-x="458" 
d="M487 467l-301 -682h-176l110 234l-82 448h172q2 -18 7 -57t7.5 -61.5t5 -55.5t2.5 -61q0 -5 -0.5 -15t-0.5 -15q36 133 48 164l38 101h170z" />
    <glyph glyph-name="z" unicode="z" horiz-adv-x="428" 
d="M441 467l-138 -238q-26 -46 -55 -88h126l-17 -141h-369l141 242q30 52 55 85h-130l17 140h370z" />
    <glyph glyph-name="braceleft" unicode="{" horiz-adv-x="504" 
d="M462 726l-14 -114q-7 0 -23 0.5t-22 0t-17 -1.5t-16 -5t-11.5 -10t-10 -16.5t-6.5 -24.5q-4 -29 -10 -88.5t-12.5 -95.5t-18.5 -60t-54 -51q27 -19 36.5 -39t9.5 -53q0 -11 -2 -35l-20 -157q0 -1 -1.5 -11t-1.5 -15q0 -27 14.5 -35t45.5 -8q23 0 34 1l-14 -115
q-52 -2 -78 -2q-67 0 -101.5 23t-34.5 87q0 12 2 34l24 189q2 18 2 28q0 48 -46 58l13 110q32 6 46 24t18 52l22 188q10 80 49.5 112.5t120.5 32.5q12 0 24.5 -0.5t28 -1.5t24.5 -1z" />
    <glyph glyph-name="bar" unicode="|" 
d="M318 -250h-130v1000h130v-1000z" />
    <glyph glyph-name="braceright" unicode="}" horiz-adv-x="504" 
d="M415 310l-13 -110q-45 -10 -57 -46q-7 -25 -8 -30l-23 -189q-10 -84 -51.5 -114t-129.5 -30q-21 0 -65 2l14 115q7 -1 21 -1q25 0 35 1t22.5 6t18 17t9.5 33q3 19 9 74.5t13.5 101t19.5 69.5q11 23 54 51q-27 19 -36.5 38.5t-9.5 52.5q0 11 2 35l19 157q0 4 1 10.5
t1.5 12t0.5 10.5q0 11 -5.5 18.5t-12 11t-18.5 5.5t-19.5 2t-21.5 -0.5t-17 -0.5l14 114q9 0 24.5 1t28 1.5t24.5 0.5q67 0 102 -23t35 -87q0 -11 -2 -35l-23 -188q-2 -18 -2 -28q0 -50 46 -58z" />
    <glyph glyph-name="asciitilde" unicode="~" horiz-adv-x="667" 
d="M556 748l73 -43q-29 -63 -65 -98.5t-94 -35.5q-31 0 -92 25t-91 25q-28 0 -42.5 -14.5t-30.5 -46.5l-71 47q12 30 19 45q44 94 132 94q34 0 96 -24.5t94 -24.5q26 0 42 12.5t30 38.5z" />
    <glyph glyph-name="uni00A0" unicode="&#xa0;" horiz-adv-x="233" 
 />
    <glyph glyph-name="exclamdown" unicode="&#xa1;" horiz-adv-x="315" 
d="M279 388q0 -45 -34 -79.5t-79 -34.5q-39 0 -63.5 25.5t-24.5 64.5q0 44 34.5 78.5t78.5 34.5q37 0 62.5 -25.5t25.5 -63.5zM245 227l-56 -450h-173l55 450h174z" />
    <glyph glyph-name="cent" unicode="&#xa2;" horiz-adv-x="532" 
d="M417 590l-18 -148q-40 -2 -63.5 -30t-23.5 -69q0 -28 14 -49t41 -21h11l-19 -161q-9 -2 -25 -2t-23 -1l-10 -86h-84l13 105q-97 62 -97 187q0 109 69 194q31 38 82 62l12 108h84l-10 -86q5 1 16 1t31 -4z" />
    <glyph glyph-name="sterling" unicode="&#xa3;" horiz-adv-x="532" 
d="M503 584l-107 -96q-12 24 -25 37t-34 13q-23 0 -38.5 -18.5t-15.5 -42.5q0 -16 6 -48t6 -48h159l-12 -93h-148q-7 -70 -58 -129q36 -2 71 -21q19 -11 35 -11q31 0 56 32l82 -48q-62 -123 -171 -123q-41 0 -81 17q-7 3 -18 8t-16.5 7t-15.5 4t-21 2q-39 0 -88 -30l-39 82
q49 33 83 48q28 41 28 98q0 22 -8 64h-60l11 93h33q-12 67 -12 85q0 91 63 151t154 60q106 0 181 -93z" />
    <glyph glyph-name="currency" unicode="&#xa4;" horiz-adv-x="667" 
d="M666 138l-70 -71l-103 103q-67 -45 -142 -45q-68 0 -140 44l-102 -102l-70 70l103 103q-44 64 -44 138q0 72 44 137l-104 104l71 71l104 -104q67 44 140 44q71 0 137 -43l103 102l70 -70l-102 -102q45 -70 45 -139q0 -73 -43 -137zM488 377q0 56 -40 96.5t-96 40.5
t-96 -40.5t-40 -96.5t40 -96t96 -40t96 40t40 96z" />
    <glyph glyph-name="yen" unicode="&#xa5;" horiz-adv-x="532" 
d="M567 667l-111 -212h78l-11 -94h-115l-34 -66h141l-12 -93h-146l-25 -202h-177l25 202h-157l11 93h152l-20 66h-124l12 94h84l-64 212h184q32 -157 38 -206q30 82 87 206h184z" />
    <glyph glyph-name="brokenbar" unicode="&#xa6;" 
d="M318 335h-130v415h130v-415zM318 -250h-130v415h130v-415z" />
    <glyph glyph-name="section" unicode="&#xa7;" horiz-adv-x="525" 
d="M19 7h147q0 -3 -1 -9.5t-1.5 -11.5t-0.5 -9q0 -63 61 -63q28 0 47.5 18.5t19.5 46.5q0 9 -4 18t-8 15t-14 13.5t-14.5 10.5t-17 10.5t-14.5 8.5q-8 5 -23 13t-27 15t-22 14q-48 31 -71 64.5t-23 85.5q0 99 89 162q-21 31 -30.5 56t-9.5 62q0 94 70 153.5t166 59.5
q77 0 122.5 -41.5t45.5 -117.5q0 -10 -1 -20.5t-2.5 -24t-2.5 -20.5h-140q3 21 3 42q0 61 -54 61q-26 0 -43.5 -16t-17.5 -42q0 -25 24.5 -46.5t59.5 -40.5t70 -40.5t59.5 -56.5t24.5 -80q0 -95 -82 -156q55 -47 55 -122q0 -100 -75 -167t-177 -67q-82 0 -137 44.5
t-55 124.5q0 10 2 28.5t2 24.5zM335 279q0 27 -16 42t-43 15q-30 0 -51 -21t-21 -51q0 -27 15.5 -43t42.5 -16q31 0 52 21.5t21 52.5z" />
    <glyph glyph-name="dieresis" unicode="&#xa8;" 
d="M463 610q0 -31 -24.5 -55.5t-56.5 -24.5q-27 0 -45 18.5t-18 45.5q0 32 24 56t56 24q28 0 46 -18t18 -46zM273 602q0 -8 -5 -20q-9 -23 -30 -37.5t-45 -14.5q-28 0 -46 18t-18 46q0 32 24.5 56t56.5 24q31 0 47 -20t16 -52z" />
    <glyph glyph-name="copyright" unicode="&#xa9;" horiz-adv-x="760" 
d="M740 333q0 -144 -101 -246t-245 -102t-246 102.5t-102 246.5t102.5 246t246.5 102q143 0 244 -103t101 -246zM660 333q0 113 -77 194.5t-189 81.5t-190 -81t-78 -194q0 -112 78 -194.5t190 -82.5t189 81.5t77 194.5zM497 270l-8 -128q-39 -16 -74 -16q-85 0 -132 59
t-47 147q0 92 51 150t142 58q36 0 62 -11v-127q-4 3 -13 11.5t-13 11.5t-13 6.5t-20 3.5q-36 0 -51.5 -30.5t-15.5 -70.5q0 -39 15 -68.5t50 -29.5q6 0 11.5 1t11 3t9 3.5t9.5 6t8.5 6t9 7.5t8.5 7z" />
    <glyph glyph-name="ordfeminine" unicode="&#xaa;" horiz-adv-x="284" 
d="M279 372h-99l8 45q-12 -24 -31 -37q-19 -14 -39 -14q-31 0 -50 25q-20 26 -20 77q0 49 12.5 102t41.5 81q22 22 52 22q22 0 36 -13t22 -36l2 43h101zM269 297h-242l6 48h242zM147 475q0 -14 5 -20q4 -6 12 -6q10 0 19 15q7 13 14 50q5 28 5 45q0 16 -4 24q-5 8 -13 8
q-7 0 -14 -7q-11 -11 -18 -49q-6 -34 -6 -60z" />
    <glyph glyph-name="guillemotleft" unicode="&#xab;" horiz-adv-x="485" 
d="M237 63l-85 -50l-124 226l179 226l71 -66l-134 -168zM437 63l-85 -50l-124 226l179 226l71 -66l-134 -168z" />
    <glyph glyph-name="logicalnot" unicode="&#xac;" 
d="M455 0h-130v150h-303v117h433v-267z" />
    <glyph glyph-name="uni00AD" unicode="&#xad;" horiz-adv-x="317" 
d="M262 186h-217l16 134h217z" />
    <glyph glyph-name="registered" unicode="&#xae;" horiz-adv-x="760" 
d="M543 154h-117l-54 143v-143h-109v375h109q68 0 111 -30.5t43 -96.5q0 -68 -61 -93zM372 357h5q18 0 29 13t11 31q0 40 -45 40v-84zM660 333q0 113 -77 194.5t-189 81.5t-190 -81t-78 -194q0 -112 78 -194.5t190 -82.5t189 81.5t77 194.5zM740 333q0 -144 -101 -246
t-245 -102t-246 102.5t-102 246.5t102.5 246t246.5 102q143 0 244 -103t101 -246z" />
    <glyph glyph-name="macron" unicode="&#xaf;" 
d="M469 647l-12 -94h-335l12 94h335z" />
    <glyph glyph-name="degree" unicode="&#xb0;" 
d="M439 509q0 -64 -45.5 -108.5t-109.5 -44.5q-63 0 -108.5 45t-45.5 108t45.5 107t108.5 44q64 0 109.5 -44t45.5 -107zM361 509q0 31 -22.5 53t-54.5 22q-31 0 -53.5 -22t-22.5 -53t22 -53.5t54 -22.5t54.5 22t22.5 54z" />
    <glyph glyph-name="plusminus" unicode="&#xb1;" 
d="M471 357h-152v-154h-130v154h-151v120h151v153h130v-153h152v-120zM471 50h-433v120h433v-120z" />
    <glyph glyph-name="twosuperior" unicode="&#xb2;" horiz-adv-x="347" 
d="M193 519h-110q5 67 46.5 111t106.5 44q53 0 85 -30t32 -83q0 -57 -34 -104.5t-91 -97.5q48 3 96 3l-11 -95h-282l130 147q24 27 37 43t29 46t16 54q0 25 -19 25q-28 0 -31 -63z" />
    <glyph glyph-name="threesuperior" unicode="&#xb3;" horiz-adv-x="347" 
d="M193 550h-108q11 56 49.5 90t94.5 34q49 0 82.5 -28t33.5 -76q0 -64 -57 -97q41 -25 41 -77q0 -59 -45.5 -97.5t-105.5 -38.5q-50 0 -86.5 26t-36.5 74q0 9 2 27h110q-1 -4 -1 -13q0 -22 21 -22q15 0 23.5 12.5t8.5 28.5q0 33 -36 33q-8 0 -22 -2l11 89q2 0 7 -0.5
t8 -0.5q47 0 47 46q0 24 -17 24q-18 0 -24 -32z" />
    <glyph glyph-name="acute" unicode="&#xb4;" 
d="M437 678l-105 -148h-98l65 148h138z" />
    <glyph glyph-name="mu" unicode="&#xb5;" horiz-adv-x="582" 
d="M515 0h-156l8 64q-14 -33 -37 -53q-25 -21 -61 -21q-39 0 -62 23q-21 21 -31 53l-34 -281h-156l83 682h172l-27 -219q-3 -36 -3 -42q0 -40 19 -64q20 -24 53 -24q28 0 50 20q31 29 41 114l26 215h172z" />
    <glyph glyph-name="mu" unicode="&#x3bc;" horiz-adv-x="582" 
d="M515 0h-156l8 64q-14 -33 -37 -53q-25 -21 -61 -21q-39 0 -62 23q-21 21 -31 53l-34 -281h-156l83 682h172l-27 -219q-3 -36 -3 -42q0 -40 19 -64q20 -24 53 -24q28 0 50 20q31 29 41 114l26 215h172z" />
    <glyph glyph-name="paragraph" unicode="&#xb6;" horiz-adv-x="667" 
d="M647 667l-12 -100h-73l-81 -667h-110l81 667h-83l-82 -667h-110l52 421h-13q-70 0 -114 38.5t-44 107.5q0 88 61 144t193 56h335z" />
    <glyph glyph-name="periodcentered" unicode="&#xb7;" horiz-adv-x="322" 
d="M291 353q0 -52 -39.5 -91t-91.5 -39q-44 0 -73.5 29.5t-29.5 73.5q0 52 39 91.5t91 39.5q45 0 74.5 -29.5t29.5 -74.5z" />
    <glyph glyph-name="cedilla" unicode="&#xb8;" 
d="M307 -106l-126 -117l-71 54l102 122z" />
    <glyph glyph-name="onesuperior" unicode="&#xb9;" horiz-adv-x="347" 
d="M300 667l-49 -400h-112l37 303h-43l12 97h155z" />
    <glyph glyph-name="ordmasculine" unicode="&#xba;" horiz-adv-x="284" 
d="M54 505q0 81 49 130q37 38 94 38q48 0 78 -31q32 -34 32 -94q0 -88 -49 -137q-37 -37 -94 -37q-48 0 -76 31q-34 35 -34 100zM273 297h-246l6 48h246zM189 598q-8 0 -15 -7q-12 -12 -19 -49q-5 -30 -5 -53q0 -24 7 -32q6 -7 14 -7t15 7q11 10 18 42q7 33 7 57q0 20 -6 31
t-16 11z" />
    <glyph glyph-name="guillemotright" unicode="&#xbb;" horiz-adv-x="485" 
d="M11 79l133 168l-92 168l85 50l123 -226l-178 -226zM211 79l133 168l-92 168l85 50l123 -226l-178 -226z" />
    <glyph glyph-name="onequarter" unicode="&#xbc;" horiz-adv-x="831" 
d="M796 169l-11 -89h-34l-10 -80h-112l10 80h-145l10 86l151 234h135l-28 -231h34zM300 667l-49 -400h-112l37 303h-43l12 97h155zM600 169h54q12 88 16 107q-41 -70 -70 -107zM650 667l-370 -667h-92l372 667h90z" />
    <glyph glyph-name="onehalf" unicode="&#xbd;" horiz-adv-x="831" 
d="M643 252h-109q5 67 46.5 111t106.5 44q53 0 85 -30t32 -83q0 -57 -34 -104.5t-91 -97.5q48 3 96 3l-11 -95h-282l130 147q82 93 82 143q0 25 -20 25q-28 0 -31 -63zM300 667l-49 -400h-112l37 303h-43l12 97h155zM650 667l-370 -667h-92l372 667h90z" />
    <glyph glyph-name="threequarters" unicode="&#xbe;" horiz-adv-x="831" 
d="M796 169l-11 -89h-34l-10 -80h-112l10 80h-145l10 86l150 234h136l-28 -231h34zM193 550h-108q11 56 49.5 90t94.5 34q49 0 82.5 -28t33.5 -76q0 -64 -57 -97q41 -25 41 -77q0 -59 -45.5 -97.5t-105.5 -38.5q-50 0 -86.5 26t-36.5 74q0 9 2 27h110q-1 -4 -1 -13
q0 -22 21 -22q15 0 23.5 12.5t8.5 28.5q0 33 -36 33q-8 0 -22 -2l11 89q2 0 7 -0.5t8 -0.5q47 0 47 46q0 24 -17 24q-18 0 -24 -32zM599 169h55q14 99 16 107q-42 -70 -71 -107zM678 667l-370 -667h-92l372 667h90z" />
    <glyph glyph-name="questiondown" unicode="&#xbf;" horiz-adv-x="501" 
d="M370 387q0 -45 -33.5 -79t-78.5 -34q-39 0 -63.5 25.5t-24.5 64.5q0 44 34.5 78.5t78.5 34.5q38 0 62.5 -26t24.5 -64zM263 -11h171q-5 -43 -13.5 -70t-30.5 -59q-32 -45 -83.5 -70t-108.5 -25q-86 0 -137 52t-51 138q0 72 39.5 129.5t110.5 77.5l9 65h169l-21 -160
q-16 2 -26 2q-104 0 -104 -102q0 -54 30 -54q37 0 46 76z" />
    <glyph glyph-name="Agrave" unicode="&#xc0;" horiz-adv-x="524" 
d="M491 0h-183l-3 85h-119l-25 -85h-184l240 667h217zM300 305v87q0 1 3 115q-3 -11 -10.5 -43.5t-12.5 -50.5q-6 -21 -24 -86t-29 -100h75q-2 52 -2 78zM380 720h-98l-68 148h138z" />
    <glyph glyph-name="Aacute" unicode="&#xc1;" horiz-adv-x="524" 
d="M491 0h-183l-3 85h-119l-25 -85h-184l240 667h217zM300 305v87q0 1 3 115q-3 -11 -10.5 -43.5t-12.5 -50.5q-6 -21 -24 -86t-29 -100h75q-2 52 -2 78zM467 868l-105 -148h-98l65 148h138z" />
    <glyph glyph-name="Acircumflex" unicode="&#xc2;" horiz-adv-x="524" 
d="M491 0h-183l-3 85h-119l-25 -85h-184l240 667h217zM300 305v87q0 1 3 115q-3 -11 -10.5 -43.5t-12.5 -50.5q-6 -21 -24 -86t-29 -100h75q-2 52 -2 78zM356 870l124 -98l-65 -70l-71 55l-94 -57l-53 70z" />
    <glyph glyph-name="Atilde" unicode="&#xc3;" horiz-adv-x="524" 
d="M491 0h-183l-3 85h-119l-25 -85h-184l240 667h217zM300 305v87q0 1 3 115q-3 -11 -10.5 -43.5t-12.5 -50.5q-6 -21 -24 -86t-29 -100h75q-2 52 -2 78zM413 855h88q-5 -56 -35.5 -94.5t-84.5 -38.5q-25 0 -61 16.5t-50 16.5q-25 0 -31 -35h-89q4 34 12 56q13 33 41 54.5
t62 21.5q27 0 63.5 -16.5t52.5 -16.5q26 0 32 36z" />
    <glyph glyph-name="Adieresis" unicode="&#xc4;" horiz-adv-x="524" 
d="M491 0h-183l-3 85h-119l-25 -85h-184l240 667h217zM300 305v87q0 1 3 115q-3 -11 -10.5 -43.5t-12.5 -50.5q-6 -21 -24 -86t-29 -100h75q-2 52 -2 78zM503 800q0 -31 -24.5 -55.5t-56.5 -24.5q-27 0 -45 18.5t-18 45.5q0 32 24 56t56 24q28 0 46 -18t18 -46zM313 792
q0 -8 -5 -20q-9 -23 -30 -37.5t-45 -14.5q-28 0 -46 18t-18 46q0 32 24.5 56t56.5 24q31 0 47 -20t16 -52z" />
    <glyph glyph-name="Aring" unicode="&#xc5;" horiz-adv-x="524" 
d="M491 0h-183l-3 85h-119l-25 -85h-184l240 667h217zM300 305v87q0 1 3 115q-3 -11 -10.5 -43.5t-12.5 -50.5q-6 -21 -24 -86t-29 -100h75q-2 52 -2 78zM238 810q0 40 28 68t68 28t68 -28t28 -68t-28 -68t-67 -28q-40 0 -68.5 28.5t-28.5 67.5zM297 810q0 -16 10.5 -26.5
t26.5 -10.5t26.5 10.5t10.5 26.5t-10.5 26.5t-26.5 10.5t-26.5 -10.5t-10.5 -26.5z" />
    <glyph glyph-name="AE" unicode="&#xc6;" horiz-adv-x="606" 
d="M630 667l-19 -157h-177l3 -97h148l-18 -151h-122l4 -102h119l-20 -160h-252l-2 85h-114l-24 -85h-184l234 667h424zM219 223h74q-2 122 -2 184q0 33 2 99q-17 -77 -74 -283z" />
    <glyph glyph-name="Ccedilla" unicode="&#xc7;" horiz-adv-x="438" 
d="M461 662l-23 -190q-35 40 -77 40q-50 0 -83.5 -39.5t-45 -87t-11.5 -96.5q0 -55 22 -91t73 -36q47 0 97 43l-34 -193q-59 -24 -109 -24q-113 0 -172.5 77.5t-59.5 194.5q0 77 21 150t61 134t106 98t147 37q48 0 88 -17zM331 -113l-126 -124l-77 53l107 137z" />
    <glyph glyph-name="Egrave" unicode="&#xc8;" horiz-adv-x="405" 
d="M430 667l-20 -157h-152l-12 -97h137l-19 -151h-136l-13 -102h152l-19 -160h-330l82 667h330zM340 720h-98l-68 148h138z" />
    <glyph glyph-name="Eacute" unicode="&#xc9;" horiz-adv-x="405" 
d="M430 667l-20 -157h-152l-12 -97h137l-19 -151h-136l-13 -102h152l-19 -160h-330l82 667h330zM417 868l-105 -148h-98l65 148h138z" />
    <glyph glyph-name="Ecircumflex" unicode="&#xca;" horiz-adv-x="405" 
d="M430 667l-20 -157h-152l-12 -97h137l-19 -151h-136l-13 -102h152l-19 -160h-330l82 667h330zM301 870l124 -98l-65 -70l-71 55l-94 -57l-53 70z" />
    <glyph glyph-name="Edieresis" unicode="&#xcb;" horiz-adv-x="405" 
d="M430 667l-20 -157h-152l-12 -97h137l-19 -151h-136l-13 -102h152l-19 -160h-330l82 667h330zM443 800q0 -31 -24.5 -55.5t-56.5 -24.5q-27 0 -45 18.5t-18 45.5q0 32 24 56t56 24q28 0 46 -18t18 -46zM253 792q0 -8 -5 -20q-9 -23 -30 -37.5t-45 -14.5q-28 0 -46 18
t-18 46q0 32 24.5 56t56.5 24q31 0 47 -20t16 -52z" />
    <glyph glyph-name="Igrave" unicode="&#xcc;" horiz-adv-x="269" 
d="M277 667l-82 -667h-177l82 667h177zM255 720h-98l-68 148h138z" />
    <glyph glyph-name="Iacute" unicode="&#xcd;" horiz-adv-x="269" 
d="M277 667l-82 -667h-177l82 667h177zM322 868l-105 -148h-98l65 148h138z" />
    <glyph glyph-name="Icircumflex" unicode="&#xce;" horiz-adv-x="269" 
d="M277 667l-82 -667h-177l82 667h177zM221 870l124 -98l-65 -70l-71 55l-94 -57l-53 70z" />
    <glyph glyph-name="Idieresis" unicode="&#xcf;" horiz-adv-x="269" 
d="M277 667l-82 -667h-177l82 667h177zM368 800q0 -31 -24.5 -55.5t-56.5 -24.5q-27 0 -45 18.5t-18 45.5q0 32 24 56t56 24q28 0 46 -18t18 -46zM178 792q0 -8 -5 -20q-9 -23 -30 -37.5t-45 -14.5q-28 0 -46 18t-18 46q0 32 24.5 56t56.5 24q31 0 47 -20t16 -52z" />
    <glyph glyph-name="Eth" unicode="&#xd0;" horiz-adv-x="533" 
d="M103 667h153q103 0 165 -44q50 -35 74.5 -96t24.5 -128q0 -160 -75 -271q-46 -69 -108.5 -98.5t-149.5 -29.5h-166l35 287h-39l14 110h39zM234 287l-16 -126q51 3 81 52q38 63 38 164q0 124 -77 124l-13 -104h50l-14 -110h-49z" />
    <glyph glyph-name="Ntilde" unicode="&#xd1;" horiz-adv-x="554" 
d="M562 667l-82 -667h-169l-59 245q-19 81 -28 139q-1 -17 -3 -53t-3 -53q-2 -35 -31 -278h-169l82 667h169l60 -234q8 -32 20 -93.5t15 -74.5q0 176 10 252l19 150h169zM438 855h88q-5 -56 -35.5 -94.5t-84.5 -38.5q-26 0 -62 16.5t-49 16.5q-25 0 -31 -35h-89q4 34 12 56
q13 33 41 54.5t62 21.5q27 0 63.5 -16.5t52.5 -16.5q26 0 32 36z" />
    <glyph glyph-name="Ograve" unicode="&#xd2;" horiz-adv-x="558" 
d="M546 422q0 -101 -26 -191q-31 -103 -99.5 -173t-166.5 -70q-50 0 -95 24t-74 65q-47 69 -47 186q0 100 29 187q34 98 104 163.5t166 65.5q102 0 155.5 -75.5t53.5 -181.5zM362 408q0 103 -47 103q-19 0 -35 -18t-26 -45.5t-16 -50.5t-9 -42q-7 -41 -7 -89q0 -109 48 -109
q19 0 35.5 18.5t26.5 47t15.5 51.5t8.5 44q6 45 6 90zM395 720h-98l-68 148h138z" />
    <glyph glyph-name="Oacute" unicode="&#xd3;" horiz-adv-x="558" 
d="M546 422q0 -101 -26 -191q-31 -103 -99.5 -173t-166.5 -70q-50 0 -95 24t-74 65q-47 69 -47 186q0 100 29 187q34 98 104 163.5t166 65.5q102 0 155.5 -75.5t53.5 -181.5zM362 408q0 103 -47 103q-19 0 -35 -18t-26 -45.5t-16 -50.5t-9 -42q-7 -41 -7 -89q0 -109 48 -109
q19 0 35.5 18.5t26.5 47t15.5 51.5t8.5 44q6 45 6 90zM492 868l-105 -148h-98l65 148h138z" />
    <glyph glyph-name="Ocircumflex" unicode="&#xd4;" horiz-adv-x="558" 
d="M546 422q0 -101 -26 -191q-31 -103 -99.5 -173t-166.5 -70q-50 0 -95 24t-74 65q-47 69 -47 186q0 100 29 187q34 98 104 163.5t166 65.5q102 0 155.5 -75.5t53.5 -181.5zM362 408q0 103 -47 103q-19 0 -35 -18t-26 -45.5t-16 -50.5t-9 -42q-7 -41 -7 -89q0 -109 48 -109
q19 0 35.5 18.5t26.5 47t15.5 51.5t8.5 44q6 45 6 90zM371 870l124 -98l-65 -70l-71 55l-94 -57l-53 70z" />
    <glyph glyph-name="Otilde" unicode="&#xd5;" horiz-adv-x="558" 
d="M546 422q0 -101 -26 -191q-31 -103 -99.5 -173t-166.5 -70q-50 0 -95 24t-74 65q-47 69 -47 186q0 100 29 187q34 98 104 163.5t166 65.5q102 0 155.5 -75.5t53.5 -181.5zM362 408q0 103 -47 103q-19 0 -35 -18t-26 -45.5t-16 -50.5t-9 -42q-7 -41 -7 -89q0 -109 48 -109
q19 0 35.5 18.5t26.5 47t15.5 51.5t8.5 44q6 45 6 90zM438 855h88q-5 -56 -35.5 -94.5t-84.5 -38.5q-26 0 -62 16.5t-49 16.5q-25 0 -31 -35h-89q4 34 12 56q13 33 41 54.5t62 21.5q27 0 63.5 -16.5t52.5 -16.5q26 0 32 36z" />
    <glyph glyph-name="Odieresis" unicode="&#xd6;" horiz-adv-x="558" 
d="M546 422q0 -101 -26 -191q-31 -103 -99.5 -173t-166.5 -70q-50 0 -95 24t-74 65q-47 69 -47 186q0 100 29 187q34 98 104 163.5t166 65.5q102 0 155.5 -75.5t53.5 -181.5zM362 408q0 103 -47 103q-19 0 -35 -18t-26 -45.5t-16 -50.5t-9 -42q-7 -41 -7 -89q0 -109 48 -109
q19 0 35.5 18.5t26.5 47t15.5 51.5t8.5 44q6 45 6 90zM518 800q0 -31 -24.5 -55.5t-56.5 -24.5q-27 0 -45 18.5t-18 45.5q0 32 24 56t56 24q28 0 46 -18t18 -46zM328 792q0 -8 -5 -20q-9 -23 -30 -37.5t-45 -14.5q-28 0 -46 18t-18 46q0 32 24.5 56t56.5 24q31 0 47 -20
t16 -52z" />
    <glyph glyph-name="multiply" unicode="&#xd7;" 
d="M374 144l-111 111l-111 -111l-85 85l111 111l-111 111l85 85l111 -111l111 111l85 -85l-111 -111l111 -111z" />
    <glyph glyph-name="Oslash" unicode="&#xd8;" horiz-adv-x="586" 
d="M606 631l-68 -85q22 -67 22 -135q0 -88 -24 -172q-33 -105 -104.5 -178t-172.5 -73q-80 0 -143 60l-54 -68l-57 44l71 92q-27 69 -27 136q0 96 24 176q31 106 101.5 178.5t172.5 72.5q85 0 149 -66l51 64zM229 301l138 174q-10 41 -42 41q-67 0 -95 -209q-1 -4 -1 -6z
M380 364l-138 -174q7 -39 41 -39q25 0 44 24.5t29.5 63.5t15.5 68t8 57z" />
    <glyph glyph-name="Ugrave" unicode="&#xd9;" horiz-adv-x="537" 
d="M545 667l-58 -472q-11 -98 -85 -155q-66 -52 -155 -52q-92 0 -148.5 47t-56.5 137q0 24 3 48l55 447h177l-53 -431q-2 -22 -2 -33q0 -46 39 -46q16 0 26.5 7t16 20.5t7.5 24t4 27.5l53 431h177zM394 720h-98l-68 148h138z" />
    <glyph glyph-name="Uacute" unicode="&#xda;" horiz-adv-x="537" 
d="M545 667l-58 -472q-11 -98 -85 -155q-66 -52 -155 -52q-92 0 -148.5 47t-56.5 137q0 24 3 48l55 447h177l-53 -431q-2 -22 -2 -33q0 -46 39 -46q16 0 26.5 7t16 20.5t7.5 24t4 27.5l53 431h177zM461 868l-105 -148h-98l65 148h138z" />
    <glyph glyph-name="Ucircumflex" unicode="&#xdb;" horiz-adv-x="537" 
d="M545 667l-58 -472q-11 -98 -85 -155q-66 -52 -155 -52q-92 0 -148.5 47t-56.5 137q0 24 3 48l55 447h177l-53 -431q-2 -22 -2 -33q0 -46 39 -46q16 0 26.5 7t16 20.5t7.5 24t4 27.5l53 431h177zM356 870l124 -98l-65 -70l-71 55l-94 -57l-53 70z" />
    <glyph glyph-name="Udieresis" unicode="&#xdc;" horiz-adv-x="537" 
d="M545 667l-58 -472q-11 -98 -85 -155q-66 -52 -155 -52q-92 0 -148.5 47t-56.5 137q0 24 3 48l55 447h177l-53 -431q-2 -22 -2 -33q0 -46 39 -46q16 0 26.5 7t16 20.5t7.5 24t4 27.5l53 431h177zM503 800q0 -31 -24.5 -55.5t-56.5 -24.5q-27 0 -45 18.5t-18 45.5
q0 32 24 56t56 24q28 0 46 -18t18 -46zM313 792q0 -8 -5 -20q-9 -23 -30 -37.5t-45 -14.5q-28 0 -46 18t-18 46q0 32 24.5 56t56.5 24q31 0 47 -20t16 -52z" />
    <glyph glyph-name="Yacute" unicode="&#xdd;" horiz-adv-x="493" 
d="M547 667l-200 -385l-35 -282h-177l35 282l-116 385h185q30 -146 37 -206q21 56 87 206h184zM452 868l-105 -148h-98l65 148h138z" />
    <glyph glyph-name="Thorn" unicode="&#xde;" horiz-adv-x="498" 
d="M277 667l-11 -93q88 -2 137 -26q95 -46 95 -167q0 -116 -73 -190q-65 -66 -186 -66h-28l-16 -125h-177l82 667h177zM229 275h9q36 0 58 25.5t22 61.5q0 29 -15 47.5t-43 18.5q-8 0 -12 -1z" />
    <glyph glyph-name="germandbls" unicode="&#xdf;" horiz-adv-x="518" 
d="M40 467h47q10 88 27 129q26 64 86 104.5t128 40.5q74 0 126.5 -47.5t52.5 -121.5q0 -56 -28.5 -103t-79.5 -60q36 -5 55 -24q41 -41 41 -119q0 -46 -18.5 -96.5t-47.5 -85.5q-67 -81 -185 -84l17 143q57 15 57 122q0 59 -34 62l17 140q23 2 32.5 25.5t9.5 50.5
q0 43 -33 43q-38 0 -45 -63l-64 -523h-171l40 327h-47z" />
    <glyph glyph-name="agrave" unicode="&#xe0;" horiz-adv-x="489" 
d="M479 467l-57 -467h-171q3 13 8 39.5t7 39.5q-53 -89 -130 -89q-33 0 -56.5 17t-35 45t-16.5 56t-5 59q0 69 14 128q8 33 21 63t32.5 58t48.5 44.5t63 16.5q40 0 62 -21.5t37 -62.5q0 12 1.5 36.5t2.5 37.5h174zM282 288q0 46 -28 46q-31 0 -45 -51t-14 -95q0 -55 31 -55
q30 0 43 54.5t13 100.5zM345 530h-98l-68 148h138z" />
    <glyph glyph-name="aacute" unicode="&#xe1;" horiz-adv-x="489" 
d="M479 467l-57 -467h-171q3 13 8 39.5t7 39.5q-53 -89 -130 -89q-33 0 -56.5 17t-35 45t-16.5 56t-5 59q0 69 14 128q8 33 21 63t32.5 58t48.5 44.5t63 16.5q40 0 62 -21.5t37 -62.5q0 12 1.5 36.5t2.5 37.5h174zM282 288q0 46 -28 46q-31 0 -45 -51t-14 -95q0 -55 31 -55
q30 0 43 54.5t13 100.5zM412 678l-105 -148h-98l65 148h138z" />
    <glyph glyph-name="acircumflex" unicode="&#xe2;" horiz-adv-x="489" 
d="M479 467l-57 -467h-171q3 13 8 39.5t7 39.5q-53 -89 -130 -89q-33 0 -56.5 17t-35 45t-16.5 56t-5 59q0 69 14 128q8 33 21 63t32.5 58t48.5 44.5t63 16.5q40 0 62 -21.5t37 -62.5q0 12 1.5 36.5t2.5 37.5h174zM282 288q0 46 -28 46q-31 0 -45 -51t-14 -95q0 -55 31 -55
q30 0 43 54.5t13 100.5zM326 690l116 -117l-64 -63l-65 66l-90 -70l-53 67z" />
    <glyph glyph-name="atilde" unicode="&#xe3;" horiz-adv-x="489" 
d="M479 467l-57 -467h-171q3 13 8 39.5t7 39.5q-53 -89 -130 -89q-33 0 -56.5 17t-35 45t-16.5 56t-5 59q0 69 14 128q8 33 21 63t32.5 58t48.5 44.5t63 16.5q40 0 62 -21.5t37 -62.5q0 12 1.5 36.5t2.5 37.5h174zM282 288q0 46 -28 46q-31 0 -45 -51t-14 -95q0 -55 31 -55
q30 0 43 54.5t13 100.5zM398 665h88q-5 -56 -35.5 -94.5t-84.5 -38.5q-26 0 -62 16.5t-49 16.5q-25 0 -31 -35h-89q4 34 12 56q13 33 41 54.5t62 21.5q27 0 63.5 -16.5t52.5 -16.5q26 0 32 36z" />
    <glyph glyph-name="adieresis" unicode="&#xe4;" horiz-adv-x="489" 
d="M479 467l-57 -467h-171q3 13 8 39.5t7 39.5q-53 -89 -130 -89q-33 0 -56.5 17t-35 45t-16.5 56t-5 59q0 69 14 128q8 33 21 63t32.5 58t48.5 44.5t63 16.5q40 0 62 -21.5t37 -62.5q0 12 1.5 36.5t2.5 37.5h174zM282 288q0 46 -28 46q-31 0 -45 -51t-14 -95q0 -55 31 -55
q30 0 43 54.5t13 100.5zM478 610q0 -31 -24.5 -55.5t-56.5 -24.5q-27 0 -45 18.5t-18 45.5q0 32 24 56t56 24q28 0 46 -18t18 -46zM288 602q0 -8 -5 -20q-9 -23 -30 -37.5t-45 -14.5q-28 0 -46 18t-18 46q0 32 24.5 56t56.5 24q31 0 47 -20t16 -52z" />
    <glyph glyph-name="aring" unicode="&#xe5;" horiz-adv-x="489" 
d="M479 467l-57 -467h-171q3 13 8 39.5t7 39.5q-53 -89 -130 -89q-33 0 -56.5 17t-35 45t-16.5 56t-5 59q0 69 14 128q8 33 21 63t32.5 58t48.5 44.5t63 16.5q40 0 62 -21.5t37 -62.5q0 12 1.5 36.5t2.5 37.5h174zM282 288q0 46 -28 46q-31 0 -45 -51t-14 -95q0 -55 31 -55
q30 0 43 54.5t13 100.5zM188 619q0 40 28 68t68 28t68 -28t28 -68t-28 -68t-68 -28t-68 28t-28 68zM247 619q0 -16 10.5 -26.5t26.5 -10.5t26.5 10.5t10.5 26.5t-10.5 26.5t-26.5 10.5t-26.5 -10.5t-10.5 -26.5z" />
    <glyph glyph-name="ae" unicode="&#xe6;" horiz-adv-x="724" 
d="M88 321l17 135q80 21 140 21q87 0 135 -46q68 46 138 46q88 0 135.5 -56t47.5 -145q0 -26 -8 -78h-252q0 -3 -0.5 -9t-0.5 -9q0 -62 37 -62q27 0 43 35l161 -3q-17 -44 -36.5 -73t-53.5 -51q-56 -36 -135 -36q-77 0 -130 48q-74 -48 -154 -48q-66 0 -111 38t-45 103
q0 79 53 124.5t133 45.5q39 0 86 -10q-1 57 -83 57q-60 0 -117 -27zM453 291h86q0 65 -36 65t-50 -65zM273 156q0 17 -11.5 26t-29.5 9q-20 0 -35 -13.5t-15 -33.5q0 -35 41 -35q22 0 36 13t14 34z" />
    <glyph glyph-name="ccedilla" unicode="&#xe7;" horiz-adv-x="298" 
d="M309 475l-19 -152q-41 -3 -64 -30t-23 -68q0 -28 14.5 -50.5t40.5 -22.5h11l-19 -159q-22 -3 -46 -3q-88 0 -133.5 60t-45.5 150q0 109 71.5 193t178.5 84q12 0 34 -2zM248 -106l-126 -117l-71 54l102 122z" />
    <glyph glyph-name="egrave" unicode="&#xe8;" horiz-adv-x="474" 
d="M266 157h166q-26 -80 -84 -123.5t-141 -43.5q-89 0 -136.5 51t-47.5 140q0 116 68 205.5t180 89.5q87 0 133.5 -55.5t46.5 -144.5q0 -27 -8 -79h-250q-1 -6 -1 -19q0 -53 32 -53q31 0 42 32zM207 290h79q0 2 0.5 6t0.5 6q0 47 -34 47q-20 0 -31.5 -18t-14.5 -41zM347 530
h-98l-68 148h138z" />
    <glyph glyph-name="eacute" unicode="&#xe9;" horiz-adv-x="474" 
d="M266 157h166q-26 -80 -84 -123.5t-141 -43.5q-89 0 -136.5 51t-47.5 140q0 116 68 205.5t180 89.5q87 0 133.5 -55.5t46.5 -144.5q0 -27 -8 -79h-250q-1 -6 -1 -19q0 -53 32 -53q31 0 42 32zM207 290h79q0 2 0.5 6t0.5 6q0 47 -34 47q-20 0 -31.5 -18t-14.5 -41zM424 678
l-105 -148h-98l65 148h138z" />
    <glyph glyph-name="ecircumflex" unicode="&#xea;" horiz-adv-x="474" 
d="M266 157h166q-26 -80 -84 -123.5t-141 -43.5q-89 0 -136.5 51t-47.5 140q0 116 68 205.5t180 89.5q87 0 133.5 -55.5t46.5 -144.5q0 -27 -8 -79h-250q-1 -6 -1 -19q0 -53 32 -53q31 0 42 32zM207 290h79q0 2 0.5 6t0.5 6q0 47 -34 47q-20 0 -31.5 -18t-14.5 -41zM311 690
l116 -117l-64 -63l-65 66l-90 -70l-53 67z" />
    <glyph glyph-name="edieresis" unicode="&#xeb;" horiz-adv-x="474" 
d="M266 157h166q-26 -80 -84 -123.5t-141 -43.5q-89 0 -136.5 51t-47.5 140q0 116 68 205.5t180 89.5q87 0 133.5 -55.5t46.5 -144.5q0 -27 -8 -79h-250q-1 -6 -1 -19q0 -53 32 -53q31 0 42 32zM207 290h79q0 2 0.5 6t0.5 6q0 47 -34 47q-20 0 -31.5 -18t-14.5 -41zM450 610
q0 -31 -24.5 -55.5t-56.5 -24.5q-27 0 -45 18.5t-18 45.5q0 32 24 56t56 24q28 0 46 -18t18 -46zM260 602q0 -8 -5 -20q-9 -23 -30 -37.5t-45 -14.5q-28 0 -46 18t-18 46q0 32 24.5 56t56.5 24q31 0 47 -20t16 -52z" />
    <glyph glyph-name="igrave" unicode="&#xec;" horiz-adv-x="249" 
d="M239 467l-57 -467h-171l58 467h170zM225 530h-98l-68 148h138z" />
    <glyph glyph-name="iacute" unicode="&#xed;" horiz-adv-x="249" 
d="M239 467l-57 -467h-171l58 467h170zM292 678l-105 -148h-98l65 148h138z" />
    <glyph glyph-name="icircumflex" unicode="&#xee;" horiz-adv-x="249" 
d="M239 467l-57 -467h-171l58 467h170zM186 690l116 -117l-64 -63l-65 66l-90 -70l-53 67z" />
    <glyph glyph-name="idieresis" unicode="&#xef;" horiz-adv-x="249" 
d="M239 467l-57 -467h-171l58 467h170zM328 610q0 -31 -24.5 -55.5t-56.5 -24.5q-27 0 -45 18.5t-18 45.5q0 32 24 56t56 24q28 0 46 -18t18 -46zM138 602q0 -8 -5 -20q-9 -23 -30 -37.5t-45 -14.5q-28 0 -46 18t-18 46q0 32 24.5 56t56.5 24q31 0 47 -20t16 -52z" />
    <glyph glyph-name="eth" unicode="&#xf0;" horiz-adv-x="481" 
d="M416 663l-70 -37q57 -56 86 -137t29 -168q0 -156 -63 -238q-71 -93 -185 -93q-93 0 -141 53t-48 147q0 113 64 198.5t174 87.5q-11 51 -34 88l-96 -54l-33 70l78 43q-41 31 -77 48l52 69q72 -21 128 -62l98 53zM291 268q0 77 -38 77q-32 0 -48 -53t-16 -95q0 -77 37 -77
q17 0 31 18t20.5 43.5t10 48t3.5 38.5z" />
    <glyph glyph-name="ntilde" unicode="&#xf1;" horiz-adv-x="483" 
d="M69 467h170q-14 -84 -15 -89q53 99 134 99q47 0 73.5 -33.5t26.5 -82.5q0 -22 -3 -43l-39 -318h-171l31 247q2 18 2 26q0 31 -23 31q-36 0 -44 -69l-29 -235h-171zM375 665h88q-5 -56 -35.5 -94.5t-84.5 -38.5q-26 0 -62 16.5t-49 16.5q-25 0 -31 -35h-89q4 34 12 56
q13 33 41 54.5t62 21.5q27 0 63.5 -16.5t52.5 -16.5q26 0 32 36z" />
    <glyph glyph-name="ograve" unicode="&#xf2;" horiz-adv-x="480" 
d="M456 280q0 -123 -64.5 -206.5t-183.5 -83.5q-90 0 -137 54t-47 146q0 116 66.5 201.5t179.5 85.5q89 0 137.5 -53.5t48.5 -143.5zM291 269q0 77 -37 77q-32 0 -48 -52.5t-16 -95.5q0 -77 37 -77q32 0 48 52.5t16 95.5zM330 530h-98l-68 148h138z" />
    <glyph glyph-name="oacute" unicode="&#xf3;" horiz-adv-x="480" 
d="M456 280q0 -123 -64.5 -206.5t-183.5 -83.5q-90 0 -137 54t-47 146q0 116 66.5 201.5t179.5 85.5q89 0 137.5 -53.5t48.5 -143.5zM291 269q0 77 -37 77q-32 0 -48 -52.5t-16 -95.5q0 -77 37 -77q32 0 48 52.5t16 95.5zM437 678l-105 -148h-98l65 148h138z" />
    <glyph glyph-name="ocircumflex" unicode="&#xf4;" horiz-adv-x="480" 
d="M456 280q0 -123 -64.5 -206.5t-183.5 -83.5q-90 0 -137 54t-47 146q0 116 66.5 201.5t179.5 85.5q89 0 137.5 -53.5t48.5 -143.5zM291 269q0 77 -37 77q-32 0 -48 -52.5t-16 -95.5q0 -77 37 -77q32 0 48 52.5t16 95.5zM311 690l116 -117l-64 -63l-65 66l-90 -70l-53 67z
" />
    <glyph glyph-name="otilde" unicode="&#xf5;" horiz-adv-x="480" 
d="M456 280q0 -123 -64.5 -206.5t-183.5 -83.5q-90 0 -137 54t-47 146q0 116 66.5 201.5t179.5 85.5q89 0 137.5 -53.5t48.5 -143.5zM291 269q0 77 -37 77q-32 0 -48 -52.5t-16 -95.5q0 -77 37 -77q32 0 48 52.5t16 95.5zM373 665h88q-5 -56 -35.5 -94.5t-84.5 -38.5
q-25 0 -61 16.5t-50 16.5q-25 0 -31 -35h-89q4 34 12 56q13 33 41 54.5t62 21.5q27 0 63.5 -16.5t52.5 -16.5q26 0 32 36z" />
    <glyph glyph-name="odieresis" unicode="&#xf6;" horiz-adv-x="480" 
d="M456 280q0 -123 -64.5 -206.5t-183.5 -83.5q-90 0 -137 54t-47 146q0 116 66.5 201.5t179.5 85.5q89 0 137.5 -53.5t48.5 -143.5zM291 269q0 77 -37 77q-32 0 -48 -52.5t-16 -95.5q0 -77 37 -77q32 0 48 52.5t16 95.5zM453 610q0 -31 -24.5 -55.5t-56.5 -24.5
q-27 0 -45 18.5t-18 45.5q0 32 24 56t56 24q28 0 46 -18t18 -46zM263 602q0 -8 -5 -20q-9 -23 -30 -37.5t-45 -14.5q-28 0 -46 18t-18 46q0 32 24.5 56t56.5 24q31 0 47 -20t16 -52z" />
    <glyph glyph-name="divide" unicode="&#xf7;" 
d="M338 510q0 -30 -22 -52t-52 -22q-31 0 -53 21.5t-22 52.5t21.5 52.5t52.5 21.5t53 -21.5t22 -52.5zM480 280h-433v120h433v-120zM338 170q0 -30 -22 -52t-52 -22q-31 0 -53 21.5t-22 52.5t21.5 52.5t52.5 21.5t53 -21.5t22 -52.5z" />
    <glyph glyph-name="oslash" unicode="&#xf8;" horiz-adv-x="480" 
d="M484 472l-58 -72q31 -50 31 -126q0 -119 -66.5 -201.5t-182.5 -82.5q-54 0 -96 21l-54 -67l-60 48l58 73q-32 53 -32 125q0 115 67 201t178 86q55 0 100 -24l54 66zM291 269q0 77 -37 77q-32 0 -48 -52.5t-16 -95.5q0 -77 37 -77q32 0 48 52.5t16 95.5z" />
    <glyph glyph-name="ugrave" unicode="&#xf9;" horiz-adv-x="492" 
d="M482 467l-35 -287q-12 -99 -85 -147q-66 -43 -145 -43q-78 0 -132 39.5t-54 114.5l3 36l35 287h170l-32 -263q0 -1 -1.5 -14.5t-1.5 -20.5q0 -34 31 -34q13 0 22 6t13.5 19t5.5 20.5t3 23.5l32 263h171zM325 530h-98l-68 148h138z" />
    <glyph glyph-name="uacute" unicode="&#xfa;" horiz-adv-x="492" 
d="M482 467l-35 -287q-12 -99 -85 -147q-66 -43 -145 -43q-78 0 -132 39.5t-54 114.5l3 36l35 287h170l-32 -263q0 -1 -1.5 -14.5t-1.5 -20.5q0 -34 31 -34q13 0 22 6t13.5 19t5.5 20.5t3 23.5l32 263h171zM422 678l-105 -148h-98l65 148h138z" />
    <glyph glyph-name="ucircumflex" unicode="&#xfb;" horiz-adv-x="492" 
d="M482 467l-35 -287q-12 -99 -85 -147q-66 -43 -145 -43q-78 0 -132 39.5t-54 114.5l3 36l35 287h170l-32 -263q0 -1 -1.5 -14.5t-1.5 -20.5q0 -34 31 -34q13 0 22 6t13.5 19t5.5 20.5t3 23.5l32 263h171zM307 690l116 -117l-64 -63l-65 66l-90 -70l-53 67z" />
    <glyph glyph-name="udieresis" unicode="&#xfc;" horiz-adv-x="492" 
d="M482 467l-35 -287q-12 -99 -85 -147q-66 -43 -145 -43q-78 0 -132 39.5t-54 114.5l3 36l35 287h170l-32 -263q0 -1 -1.5 -14.5t-1.5 -20.5q0 -34 31 -34q13 0 22 6t13.5 19t5.5 20.5t3 23.5l32 263h171zM459 610q0 -31 -24.5 -55.5t-56.5 -24.5q-27 0 -45 18.5t-18 45.5
q0 32 24 56t56 24q28 0 46 -18t18 -46zM269 602q0 -8 -5 -20q-9 -23 -30 -37.5t-45 -14.5q-28 0 -46 18t-18 46q0 32 24.5 56t56.5 24q31 0 47 -20t16 -52z" />
    <glyph glyph-name="yacute" unicode="&#xfd;" horiz-adv-x="458" 
d="M487 467l-301 -682h-176l110 234l-82 448h172q2 -18 7 -57t7.5 -61.5t5 -55.5t2.5 -61q0 -5 -0.5 -15t-0.5 -15q36 133 48 164l38 101h170zM412 678l-105 -148h-98l65 148h138z" />
    <glyph glyph-name="thorn" unicode="&#xfe;" horiz-adv-x="490" 
d="M275 729l-32 -262q-3 -22 -13 -66q48 76 115 76q46 0 75 -32t38.5 -71t9.5 -84q0 -43 -9.5 -91.5t-29 -97t-56 -80t-83.5 -31.5q-37 0 -59.5 18t-41.5 55q-5 -91 -32 -278h-171l118 944h171zM291 270q0 64 -30 64q-28 0 -41 -48t-13 -87q0 -63 28 -63q15 0 27 16.5
t17.5 40t8.5 43.5t3 34z" />
    <glyph glyph-name="ydieresis" unicode="&#xff;" horiz-adv-x="458" 
d="M487 467l-301 -682h-176l110 234l-82 448h172q2 -18 7 -57t7.5 -61.5t5 -55.5t2.5 -61q0 -5 -0.5 -15t-0.5 -15q36 133 48 164l38 101h170zM438 610q0 -31 -24.5 -55.5t-56.5 -24.5q-27 0 -45 18.5t-18 45.5q0 32 24 56t56 24q28 0 46 -18t18 -46zM248 602q0 -8 -5 -20
q-9 -23 -30 -37.5t-45 -14.5q-28 0 -46 18t-18 46q0 32 24.5 56t56.5 24q31 0 47 -20t16 -52z" />
    <glyph glyph-name="Amacron" unicode="&#x100;" horiz-adv-x="524" 
d="M491 0h-183l-3 85h-119l-25 -85h-184l240 667h217zM300 305v87q0 1 3 115q-3 -11 -10.5 -43.5t-12.5 -50.5q-6 -21 -24 -86t-29 -100h75q-2 52 -2 78zM504 837l-12 -94h-335l12 94h335z" />
    <glyph glyph-name="amacron" unicode="&#x101;" horiz-adv-x="489" 
d="M479 467l-57 -467h-171q3 13 8 39.5t7 39.5q-53 -89 -130 -89q-33 0 -56.5 17t-35 45t-16.5 56t-5 59q0 69 14 128q8 33 21 63t32.5 58t48.5 44.5t63 16.5q40 0 62 -21.5t37 -62.5q0 12 1.5 36.5t2.5 37.5h174zM282 288q0 46 -28 46q-31 0 -45 -51t-14 -95q0 -55 31 -55
q30 0 43 54.5t13 100.5zM469 647l-12 -94h-335l12 94h335z" />
    <glyph glyph-name="Abreve" unicode="&#x102;" horiz-adv-x="524" 
d="M491 0h-183l-3 85h-119l-25 -85h-184l240 667h217zM300 305v87q0 1 3 115q-3 -11 -10.5 -43.5t-12.5 -50.5q-6 -21 -24 -86t-29 -100h75q-2 52 -2 78zM438 866h69q-14 -68 -60.5 -108t-115.5 -40q-61 0 -100.5 35.5t-39.5 95.5v17h69q8 -32 27.5 -42.5t54.5 -10.5
q37 0 58.5 11t37.5 42z" />
    <glyph glyph-name="abreve" unicode="&#x103;" horiz-adv-x="489" 
d="M479 467l-57 -467h-171q3 13 8 39.5t7 39.5q-53 -89 -130 -89q-33 0 -56.5 17t-35 45t-16.5 56t-5 59q0 69 14 128q8 33 21 63t32.5 58t48.5 44.5t63 16.5q40 0 62 -21.5t37 -62.5q0 12 1.5 36.5t2.5 37.5h174zM282 288q0 46 -28 46q-31 0 -45 -51t-14 -95q0 -55 31 -55
q30 0 43 54.5t13 100.5zM398 669h69q-14 -68 -60.5 -108t-115.5 -40q-61 0 -100.5 35.5t-39.5 95.5v17h69q8 -32 27.5 -42.5t54.5 -10.5q37 0 58.5 11t37.5 42z" />
    <glyph glyph-name="Aogonek" unicode="&#x104;" horiz-adv-x="524" 
d="M217 667h217l57 -667h-60q-13 -15 -24 -36q-9 -18 -9 -35q0 -13 8 -22q9 -10 27 -10q16 0 36 9l-17 -77q-29 -12 -60 -12q-42 0 -67 21q-23 20 -23 55t22 64q15 19 43 43h-59l-3 85h-119l-25 -85h-184zM300 305v87q0 13 3 115q-18 -83 -36 -140q-3 -11 -7.5 -25.5
t-13 -46t-19.5 -68.5h75z" />
    <glyph glyph-name="aogonek" unicode="&#x105;" horiz-adv-x="489" 
d="M479 467l-57 -467h-52q-16 -20 -23 -34q-10 -20 -10 -34t10 -23q8 -8 24 -8q17 0 35 9l-17 -73q-28 -12 -61 -12q-43 0 -66 24q-19 21 -19 52q0 30 20 58q14 20 43 41h-55l15 79q-13 -24 -35 -47q-40 -42 -92 -42q-46 0 -73 30q-43 46 -43 153q0 75 21.5 148t62.5 114
q42 42 95 42q39 0 64 -24q24 -23 35 -60l4 74h174zM254 334q-13 0 -24 -11q-17 -17 -26 -58q-9 -36 -9 -80q0 -32 12 -44q8 -8 19 -8t22 11q17 17 27 69q7 37 7 73q0 33 -11 42q-6 6 -17 6z" />
    <glyph glyph-name="Cacute" unicode="&#x106;" horiz-adv-x="438" 
d="M461 662l-23 -190q-35 40 -77 40q-50 0 -83.5 -39.5t-45 -87t-11.5 -96.5q0 -55 22 -91t73 -36q47 0 97 43l-34 -193q-59 -24 -109 -24q-113 0 -172.5 77.5t-59.5 194.5q0 77 21 150t61 134t106 98t147 37q48 0 88 -17zM517 868l-105 -148h-98l65 148h138z" />
    <glyph glyph-name="cacute" unicode="&#x107;" horiz-adv-x="298" 
d="M309 475l-19 -152q-41 -3 -64 -30t-23 -68q0 -28 14.5 -50.5t40.5 -22.5h11l-19 -159q-22 -3 -46 -3q-88 0 -133.5 60t-45.5 150q0 109 71.5 193t178.5 84q12 0 34 -2zM407 678l-105 -148h-98l65 148h138z" />
    <glyph glyph-name="Ccircumflex" unicode="&#x108;" horiz-adv-x="438" 
d="M461 662l-23 -190q-35 40 -77 40q-50 0 -83.5 -39.5t-45 -87t-11.5 -96.5q0 -55 22 -91t73 -36q47 0 97 43l-34 -193q-59 -24 -109 -24q-113 0 -172.5 77.5t-59.5 194.5q0 77 21 150t61 134t106 98t147 37q48 0 88 -17zM396 870l124 -98l-65 -70l-71 55l-94 -57l-53 70z
" />
    <glyph glyph-name="ccircumflex" unicode="&#x109;" horiz-adv-x="298" 
d="M309 475l-19 -152q-41 -3 -64 -30t-23 -68q0 -28 14.5 -50.5t40.5 -22.5h11l-19 -159q-22 -3 -46 -3q-88 0 -133.5 60t-45.5 150q0 109 71.5 193t178.5 84q12 0 34 -2zM261 690l116 -117l-64 -63l-65 66l-90 -70l-53 67z" />
    <glyph glyph-name="Cdotaccent" unicode="&#x10a;" horiz-adv-x="438" 
d="M461 662l-23 -190q-35 40 -77 40q-50 0 -83.5 -39.5t-45 -87t-11.5 -96.5q0 -55 22 -91t73 -36q47 0 97 43l-34 -193q-59 -24 -109 -24q-113 0 -172.5 77.5t-59.5 194.5q0 77 21 150t61 134t106 98t147 37q48 0 88 -17zM463 796q0 -11 -6 -21q-9 -24 -31 -39.5t-47 -15.5
q-29 0 -48 19t-19 48q0 34 25 59t59 25q33 0 50 -20.5t17 -54.5z" />
    <glyph glyph-name="cdotaccent" unicode="&#x10b;" horiz-adv-x="298" 
d="M309 475l-19 -152q-41 -3 -64 -30t-23 -68q0 -28 14.5 -50.5t40.5 -22.5h11l-19 -159q-22 -3 -46 -3q-88 0 -133.5 60t-45.5 150q0 109 71.5 193t178.5 84q12 0 34 -2zM355 606q0 -11 -6 -21q-9 -24 -31 -39.5t-47 -15.5q-29 0 -48 19t-19 48q0 34 25 59t59 25
q33 0 50 -20.5t17 -54.5z" />
    <glyph glyph-name="Ccaron" unicode="&#x10c;" horiz-adv-x="438" 
d="M461 662l-23 -190q-35 40 -77 40q-50 0 -83.5 -39.5t-45 -87t-11.5 -96.5q0 -55 22 -91t73 -36q47 0 97 43l-34 -193q-59 -24 -109 -24q-113 0 -172.5 77.5t-59.5 194.5q0 77 21 150t61 134t106 98t147 37q48 0 88 -17zM536 802l-166 -98l-121 103l71 63l70 -58l92 56z
" />
    <glyph glyph-name="ccaron" unicode="&#x10d;" horiz-adv-x="298" 
d="M309 475l-19 -152q-41 -3 -64 -30t-23 -68q0 -28 14.5 -50.5t40.5 -22.5h11l-19 -159q-22 -3 -46 -3q-88 0 -133.5 60t-45.5 150q0 109 71.5 193t178.5 84q12 0 34 -2zM410 623l-159 -112l-118 118l71 61l64 -65l87 65z" />
    <glyph glyph-name="Dcaron" unicode="&#x10e;" horiz-adv-x="529" 
d="M100 667h153q126 0 195 -71.5t69 -197.5q0 -158 -75 -270q-47 -69 -108.5 -98.5t-149.5 -29.5h-166zM257 500l-42 -339q34 2 59 24.5t37 57.5t17.5 68t5.5 65q0 124 -77 124zM456 802l-166 -98l-121 103l71 63l70 -58l92 56z" />
    <glyph glyph-name="dcaron" unicode="&#x10f;" horiz-adv-x="717" 
d="M511 729l-89 -729h-174q1 12 5.5 34t5.5 29q-27 -36 -52.5 -54.5t-61.5 -18.5q-66 0 -94.5 51t-28.5 123q0 70 14 129q18 74 60 129t107 55q39 0 61 -19.5t39 -58.5q4 62 38 330h170zM288 274q0 59 -29 59q-31 0 -44.5 -46.5t-13.5 -89.5q0 -58 33 -58q29 0 41.5 47
t12.5 88zM727 667l-100 -221h-104l58 221h146z" />
    <glyph glyph-name="Dcroat" unicode="&#x110;" horiz-adv-x="533" 
d="M103 667h153q103 0 165 -44q50 -35 74.5 -96t24.5 -128q0 -160 -75 -271q-46 -69 -108.5 -98.5t-149.5 -29.5h-166l35 287h-39l14 110h39zM234 287l-16 -126q51 3 81 52q38 63 38 164q0 124 -77 124l-13 -104h50l-14 -110h-49z" />
    <glyph glyph-name="dcroat" unicode="&#x111;" horiz-adv-x="518" 
d="M511 729l-15 -125h55l-14 -105h-54l-61 -499h-174l11 63q-21 -31 -46 -50q-31 -23 -68 -23q-53 0 -85 43q-38 50 -38 146q0 58 22 120t58 97q41 39 95 39q36 0 63 -19q26 -18 40 -47q0 14 7 78l6 52h-120l14 105h118l16 125h170zM257 307q-12 0 -22 -9q-16 -14 -25 -48
t-9 -65q0 -35 13 -48q10 -8 18 -8q12 0 21 9q17 16 25.5 51t8.5 62q0 34 -12 48q-8 8 -18 8z" />
    <glyph glyph-name="Emacron" unicode="&#x112;" horiz-adv-x="405" 
d="M430 667l-20 -157h-152l-12 -97h137l-19 -151h-136l-13 -102h152l-19 -160h-330l82 667h330zM449 837l-12 -94h-335l12 94h335z" />
    <glyph glyph-name="emacron" unicode="&#x113;" horiz-adv-x="474" 
d="M266 157h166q-26 -80 -84 -123.5t-141 -43.5q-89 0 -136.5 51t-47.5 140q0 116 68 205.5t180 89.5q87 0 133.5 -55.5t46.5 -144.5q0 -27 -8 -79h-250q-1 -6 -1 -19q0 -53 32 -53q31 0 42 32zM207 290h79q0 2 0.5 6t0.5 6q0 47 -34 47q-20 0 -31.5 -18t-14.5 -41zM456 647
l-12 -94h-335l12 94h335z" />
    <glyph glyph-name="Edotaccent" unicode="&#x116;" horiz-adv-x="405" 
d="M430 667l-20 -157h-152l-12 -97h137l-19 -151h-136l-13 -102h152l-19 -160h-330l82 667h330zM352 796q0 -11 -6 -21q-9 -24 -31 -39.5t-47 -15.5q-28 0 -47.5 19t-19.5 48q0 34 25 59t59 25q33 0 50 -20.5t17 -54.5z" />
    <glyph glyph-name="edotaccent" unicode="&#x117;" horiz-adv-x="474" 
d="M266 157h166q-26 -80 -84 -123.5t-141 -43.5q-89 0 -136.5 51t-47.5 140q0 116 68 205.5t180 89.5q87 0 133.5 -55.5t46.5 -144.5q0 -27 -8 -79h-250q-1 -6 -1 -19q0 -53 32 -53q31 0 42 32zM207 290h79q0 2 0.5 6t0.5 6q0 47 -34 47q-20 0 -31.5 -18t-14.5 -41zM359 606
q0 -11 -6 -21q-9 -24 -31 -39.5t-47 -15.5q-29 0 -48 19t-19 48q0 34 25 59t59 25q33 0 50 -20.5t17 -54.5z" />
    <glyph glyph-name="Eogonek" unicode="&#x118;" horiz-adv-x="405" 
d="M430 667l-20 -157h-152l-12 -97h137l-19 -151h-136l-13 -102h152l-19 -160h-52q-13 -15 -24 -36q-9 -18 -9 -35q0 -13 8 -22q9 -10 27 -10q16 0 36 9l-17 -77q-29 -12 -60 -12q-42 0 -67 21q-23 20 -23 55t22 64q15 19 43 43h-214l82 667h330z" />
    <glyph glyph-name="eogonek" unicode="&#x119;" horiz-adv-x="474" 
d="M266 157h166q-16 -50 -51 -89q-21 -24 -65 -59q-36 -30 -45 -43q-11 -16 -11 -34q0 -14 10 -23q8 -8 24 -8q17 0 35 9l-17 -73q-28 -12 -61 -12q-43 0 -66 24q-19 21 -19 52q0 29 20 58q13 18 34 32q-8 -1 -24 -1q-73 0 -121 48q-52 52 -52 143q0 68 24.5 128.5
t65.5 101.5q67 65 158 65q76 0 123 -45q57 -55 57 -155q0 -34 -8 -79h-250q-1 -5 -1 -19q0 -34 12 -46q9 -7 20 -7q13 0 25 9q10 8 17 23zM207 290h79q1 4 1 13q0 24 -10 35q-9 11 -24 11t-26 -11q-18 -18 -20 -48z" />
    <glyph glyph-name="Ecaron" unicode="&#x11a;" horiz-adv-x="405" 
d="M430 667l-20 -157h-152l-12 -97h137l-19 -151h-136l-13 -102h152l-19 -160h-330l82 667h330zM431 802l-166 -98l-121 103l71 63l70 -58l92 56z" />
    <glyph glyph-name="ecaron" unicode="&#x11b;" horiz-adv-x="474" 
d="M266 157h166q-26 -80 -84 -123.5t-141 -43.5q-89 0 -136.5 51t-47.5 140q0 116 68 205.5t180 89.5q87 0 133.5 -55.5t46.5 -144.5q0 -27 -8 -79h-250q-1 -6 -1 -19q0 -53 32 -53q31 0 42 32zM207 290h79q0 2 0.5 6t0.5 6q0 47 -34 47q-20 0 -31.5 -18t-14.5 -41zM427 623
l-159 -112l-118 118l71 61l64 -65l87 65z" />
    <glyph glyph-name="Gcircumflex" unicode="&#x11c;" horiz-adv-x="552" 
d="M543 514l-180 -64q0 68 -44 68q-25 0 -43.5 -23t-24.5 -42.5t-14 -50.5q-21 -93 -21 -161q0 -93 53 -93q32 0 50 30t23 67h-65l17 140h247q-8 -85 -24 -148q-26 -111 -91.5 -180t-172.5 -69q-111 0 -163.5 74.5t-52.5 190.5q0 95 24 177q31 107 102.5 178t174.5 71
q156 0 205 -165zM386 870l124 -98l-65 -70l-71 55l-94 -57l-53 70z" />
    <glyph glyph-name="gcircumflex" unicode="&#x11d;" horiz-adv-x="485" 
d="M475 467l-59 -479q-10 -83 -49 -128q-65 -75 -183 -75q-91 0 -137.5 40t-47.5 129h174q0 -38 31 -38q18 0 28.5 11.5t13.5 23t6 31.5q4 34 9 72q-50 -61 -114 -61q-44 0 -73.5 30.5t-40 69t-10.5 81.5q0 62 15 122q19 71 62 126t106 55q52 0 93 -71l4 61h172zM284 279
q0 57 -27 57q-21 0 -34.5 -29t-17 -57t-3.5 -51q0 -63 30 -63q28 0 40 50t12 93zM321 690l116 -117l-64 -63l-65 66l-90 -70l-53 67z" />
    <glyph glyph-name="Gbreve" unicode="&#x11e;" horiz-adv-x="552" 
d="M543 514l-180 -64q0 68 -44 68q-25 0 -43.5 -23t-24.5 -42.5t-14 -50.5q-21 -93 -21 -161q0 -93 53 -93q32 0 50 30t23 67h-65l17 140h247q-8 -85 -24 -148q-26 -111 -91.5 -180t-172.5 -69q-111 0 -163.5 74.5t-52.5 190.5q0 95 24 177q31 107 102.5 178t174.5 71
q156 0 205 -165zM453 866h69q-14 -68 -60.5 -108t-115.5 -40q-61 0 -100.5 35.5t-39.5 95.5v17h69q8 -32 27.5 -42.5t54.5 -10.5q37 0 58.5 11t37.5 42z" />
    <glyph glyph-name="gbreve" unicode="&#x11f;" horiz-adv-x="485" 
d="M475 467l-59 -479q-10 -83 -49 -128q-65 -75 -183 -75q-91 0 -137.5 40t-47.5 129h174q0 -38 31 -38q18 0 28.5 11.5t13.5 23t6 31.5q4 34 9 72q-50 -61 -114 -61q-44 0 -73.5 30.5t-40 69t-10.5 81.5q0 62 15 122q19 71 62 126t106 55q52 0 93 -71l4 61h172zM284 279
q0 57 -27 57q-21 0 -34.5 -29t-17 -57t-3.5 -51q0 -63 30 -63q28 0 40 50t12 93zM383 669h69q-14 -68 -60.5 -108t-115.5 -40q-61 0 -100.5 35.5t-39.5 95.5v17h69q8 -32 27.5 -42.5t54.5 -10.5q37 0 58.5 11t37.5 42z" />
    <glyph glyph-name="Gdotaccent" unicode="&#x120;" horiz-adv-x="552" 
d="M543 514l-180 -64q0 68 -44 68q-25 0 -43.5 -23t-24.5 -42.5t-14 -50.5q-21 -93 -21 -161q0 -93 53 -93q32 0 50 30t23 67h-65l17 140h247q-8 -85 -24 -148q-26 -111 -91.5 -180t-172.5 -69q-111 0 -163.5 74.5t-52.5 190.5q0 95 24 177q31 107 102.5 178t174.5 71
q156 0 205 -165zM430 796q0 -11 -6 -21q-9 -24 -31 -39.5t-47 -15.5q-28 0 -47.5 19t-19.5 48q0 34 25 59t59 25q33 0 50 -20.5t17 -54.5z" />
    <glyph glyph-name="gdotaccent" unicode="&#x121;" horiz-adv-x="485" 
d="M475 467l-59 -479q-10 -83 -49 -128q-65 -75 -183 -75q-91 0 -137.5 40t-47.5 129h174q0 -38 31 -38q18 0 28.5 11.5t13.5 23t6 31.5q4 34 9 72q-50 -61 -114 -61q-44 0 -73.5 30.5t-40 69t-10.5 81.5q0 62 15 122q19 71 62 126t106 55q52 0 93 -71l4 61h172zM284 279
q0 57 -27 57q-21 0 -34.5 -29t-17 -57t-3.5 -51q0 -63 30 -63q28 0 40 50t12 93zM362 606q0 -11 -6 -21q-9 -24 -31 -39.5t-47 -15.5q-28 0 -47.5 19t-19.5 48q0 34 25 59t59 25q33 0 50 -20.5t17 -54.5z" />
    <glyph glyph-name="Gcommaaccent" unicode="&#x122;" horiz-adv-x="552" 
d="M543 514l-180 -64q0 68 -44 68q-25 0 -43.5 -23t-24.5 -42.5t-14 -50.5q-21 -93 -21 -161q0 -93 53 -93q32 0 50 30t23 67h-65l17 140h247q-8 -85 -24 -148q-26 -111 -91.5 -180t-172.5 -69q-111 0 -163.5 74.5t-52.5 190.5q0 95 24 177q31 107 102.5 178t174.5 71
q156 0 205 -165zM327 -45l-94 -188h-102l50 188h146z" />
    <glyph glyph-name="gcommaaccent" unicode="&#x123;" horiz-adv-x="485" 
d="M475 467l-59 -479q-10 -83 -49 -128q-65 -75 -183 -75q-91 0 -137.5 40t-47.5 129h174q0 -38 31 -38q18 0 28.5 11.5t13.5 23t6 31.5q4 34 9 72q-50 -61 -114 -61q-44 0 -73.5 30.5t-40 69t-10.5 81.5q0 62 15 122q19 71 62 126t106 55q52 0 93 -71l4 61h172zM284 279
q0 57 -27 57q-21 0 -34.5 -29t-17 -57t-3.5 -51q0 -63 30 -63q28 0 40 50t12 93zM179 517l94 188h102l-50 -188h-146z" />
    <glyph glyph-name="Hcircumflex" unicode="&#x124;" horiz-adv-x="531" 
d="M539 667l-82 -667h-177l33 268h-85l-33 -268h-177l82 667h177l-29 -236h85l29 236h177zM361 870l124 -98l-65 -70l-71 55l-94 -57l-53 70z" />
    <glyph glyph-name="hcircumflex" unicode="&#x125;" horiz-adv-x="483" 
d="M272 729l-32 -261q-7 -50 -16 -90q53 99 134 99q47 0 73.5 -33.5t26.5 -82.5q0 -22 -3 -43l-39 -318h-171l31 247q2 18 2 26q0 31 -23 31q-36 0 -44 -69l-29 -235h-171l90 729h171zM211 930l116 -117l-64 -63l-65 66l-90 -70l-53 67z" />
    <glyph glyph-name="Hbar" unicode="&#x126;" horiz-adv-x="531" 
d="M18 0l62 505h-50l15 121h50l5 41h177l-5 -41h86l5 41h177l-5 -41h50l-15 -121h-50l-62 -505h-177l33 268h-86l-33 -268h-177zM343 505h-86l-10 -84h86z" />
    <glyph glyph-name="hbar" unicode="&#x127;" horiz-adv-x="489" 
d="M20 0l61 499h-54l14 105h53l15 125h173l-15 -125h118l-14 -105h-118l-8 -73q-7 -50 -16 -90q53 99 134 99q47 0 73.5 -33.5t26.5 -82.5q0 -22 -3 -43l-35 -276h-171l27 205q2 18 2 26q0 31 -23 31q-36 0 -44 -69l-25 -193h-171z" />
    <glyph glyph-name="Imacron" unicode="&#x12a;" horiz-adv-x="269" 
d="M277 667l-82 -667h-177l82 667h177zM364 837l-12 -94h-335l12 94h335z" />
    <glyph glyph-name="imacron" unicode="&#x12b;" horiz-adv-x="250" 
d="M239 467l-57 -467h-171l58 467h170zM339 647l-12 -94h-335l12 94h335z" />
    <glyph glyph-name="Iogonek" unicode="&#x12e;" horiz-adv-x="269" 
d="M277 667l-82 -667q-13 -15 -24 -36q-9 -18 -9 -35q0 -13 8 -22q9 -10 27 -10q16 0 36 9l-17 -77q-29 -12 -60 -12q-42 0 -67 21q-23 20 -23 55t22 64q15 19 43 43h-113l82 667h177z" />
    <glyph glyph-name="iogonek" unicode="&#x12f;" horiz-adv-x="250" 
d="M186 713q37 0 62 -25q26 -25 26 -64q0 -43 -34 -78t-79 -35q-36 0 -62 26q-26 27 -26 63q0 44 33 78q35 35 80 35zM240 467l-57 -467q-16 -20 -23 -34q-10 -20 -10 -34t10 -23q8 -8 24 -8q17 0 35 9l-17 -73q-28 -12 -61 -12q-43 0 -66 24q-19 21 -19 52q0 30 20 58
q14 20 43 41h-107l58 467h170z" />
    <glyph glyph-name="Idotaccent" unicode="&#x130;" horiz-adv-x="269" 
d="M277 667l-82 -667h-177l82 667h177zM277 796q0 -11 -6 -21q-9 -24 -31 -39.5t-47 -15.5q-29 0 -48 19t-19 48q0 34 25 59t59 25q33 0 50 -20.5t17 -54.5z" />
    <glyph glyph-name="dotlessi" unicode="&#x131;" horiz-adv-x="249" 
d="M239 467l-57 -467h-171l58 467h170z" />
    <glyph glyph-name="Jcircumflex" unicode="&#x134;" horiz-adv-x="349" 
d="M357 667l-57 -463q-11 -85 -37 -125q-57 -91 -177 -91q-53 0 -113 22l23 186q25 -39 66 -39q55 0 65 82l52 428h178zM291 870l124 -98l-65 -70l-71 55l-94 -57l-53 70z" />
    <glyph glyph-name="jcircumflex" unicode="&#x135;" horiz-adv-x="251" 
d="M241 467l-84 -682h-170l82 682h172zM176 690l116 -117l-64 -63l-65 66l-90 -70l-53 67z" />
    <glyph glyph-name="Kcommaaccent" unicode="&#x136;" horiz-adv-x="533" 
d="M564 667l-181 -322l117 -345h-191l-79 319l-35 -319h-177l82 667h177l-40 -298l140 298h187zM322 -45l-94 -188h-102l50 188h146z" />
    <glyph glyph-name="kcommaaccent" unicode="&#x137;" horiz-adv-x="487" 
d="M505 467l-139 -215l93 -252h-190l-41 146q-14 48 -18 81l-28 -227h-171l90 729h171l-57 -462q9 19 33 62l75 138h182zM297 -46l-94 -188h-102l50 188h146z" />
    <glyph glyph-name="Lacute" unicode="&#x139;" horiz-adv-x="363" 
d="M348 160l-19 -160h-311l82 667h177l-62 -507h133zM327 868l-105 -148h-98l65 148h138z" />
    <glyph glyph-name="lacute" unicode="&#x13a;" horiz-adv-x="250" 
d="M272 729l-90 -729h-171l90 729h171zM317 918l-105 -148h-98l65 148h138z" />
    <glyph glyph-name="Lcommaaccent" unicode="&#x13b;" horiz-adv-x="363" 
d="M348 160l-19 -160h-311l82 667h177l-62 -507h133zM247 -45l-94 -188h-102l50 188h146z" />
    <glyph glyph-name="lcommaaccent" unicode="&#x13c;" horiz-adv-x="250" 
d="M272 729l-90 -729h-171l90 729h171zM167 -46l-94 -188h-102l50 188h146z" />
    <glyph glyph-name="Lcaron" unicode="&#x13d;" horiz-adv-x="507" 
d="M348 160l-19 -160h-311l82 667h177l-62 -507h133zM507 667l-104 -209h-102l60 209h146z" />
    <glyph glyph-name="lcaron" unicode="&#x13e;" horiz-adv-x="487" 
d="M272 729l-90 -729h-171l90 729h171zM487 667l-100 -221h-104l58 221h146z" />
    <glyph glyph-name="Ldot" unicode="&#x13f;" horiz-adv-x="395" 
d="M348 160l-19 -160h-311l82 667h177l-62 -507h133zM421 334q0 -11 -6 -21q-9 -24 -31 -39.5t-47 -15.5q-29 0 -48 19t-19 48q0 34 25 59t59 25q33 0 50 -20.5t17 -54.5z" />
    <glyph glyph-name="ldot" unicode="&#x140;" horiz-adv-x="396" 
d="M272 729l-90 -729h-171l90 729h171zM416 365q0 -11 -6 -21q-9 -24 -31 -39.5t-47 -15.5q-28 0 -47.5 19.5t-19.5 47.5q0 34 25 59t59 25q33 0 50 -20.5t17 -54.5z" />
    <glyph glyph-name="Lslash" unicode="&#x141;" horiz-adv-x="367" 
d="M351 160l-19 -160h-311l27 217l-52 -40l16 131l52 40l39 319h177l-27 -224l96 71l-16 -131l-96 -71l-19 -152h133z" />
    <glyph glyph-name="lslash" unicode="&#x142;" horiz-adv-x="296" 
d="M319 515l-15 -118l-54 -39l-44 -358h-171l34 275l-55 -38l14 118l55 38l42 336h170l-31 -253z" />
    <glyph glyph-name="Nacute" unicode="&#x143;" horiz-adv-x="554" 
d="M562 667l-82 -667h-169l-59 245q-19 81 -28 139q-1 -17 -3 -53t-3 -53q-2 -35 -31 -278h-169l82 667h169l60 -234q8 -32 20 -93.5t15 -74.5q0 176 10 252l19 150h169zM472 868l-105 -148h-98l65 148h138z" />
    <glyph glyph-name="nacute" unicode="&#x144;" horiz-adv-x="483" 
d="M69 467h170q-14 -84 -15 -89q53 99 134 99q47 0 73.5 -33.5t26.5 -82.5q0 -22 -3 -43l-39 -318h-171l31 247q2 18 2 26q0 31 -23 31q-36 0 -44 -69l-29 -235h-171zM417 678l-105 -148h-98l65 148h138z" />
    <glyph glyph-name="Ncommaaccent" unicode="&#x145;" horiz-adv-x="554" 
d="M562 667l-82 -667h-169l-59 245q-19 81 -28 139q-1 -17 -3 -53t-3 -53q-2 -35 -31 -278h-169l82 667h169l60 -234q8 -32 20 -93.5t15 -74.5q0 176 10 252l19 150h169zM322 -45l-94 -188h-102l50 188h146z" />
    <glyph glyph-name="ncommaaccent" unicode="&#x146;" horiz-adv-x="483" 
d="M69 467h170q-14 -84 -15 -89q53 99 134 99q47 0 73.5 -33.5t26.5 -82.5q0 -22 -3 -43l-39 -318h-171l31 247q2 18 2 26q0 31 -23 31q-36 0 -44 -69l-29 -235h-171zM287 -46l-94 -188h-102l50 188h146z" />
    <glyph glyph-name="Ncaron" unicode="&#x147;" horiz-adv-x="554" 
d="M562 667l-82 -667h-169l-59 245q-19 81 -28 139q-1 -17 -3 -53t-3 -53q-2 -35 -31 -278h-169l82 667h169l60 -234q8 -32 20 -93.5t15 -74.5q0 176 10 252l19 150h169zM506 802l-166 -98l-121 103l71 63l70 -58l92 56z" />
    <glyph glyph-name="ncaron" unicode="&#x148;" horiz-adv-x="483" 
d="M69 467h170q-14 -84 -15 -89q53 99 134 99q47 0 73.5 -33.5t26.5 -82.5q0 -22 -3 -43l-39 -318h-171l31 247q2 18 2 26q0 31 -23 31q-36 0 -44 -69l-29 -235h-171zM445 623l-159 -112l-118 118l71 61l64 -65l87 65z" />
    <glyph glyph-name="Omacron" unicode="&#x14c;" horiz-adv-x="558" 
d="M546 422q0 -101 -26 -191q-31 -103 -99.5 -173t-166.5 -70q-50 0 -95 24t-74 65q-47 69 -47 186q0 100 29 187q34 98 104 163.5t166 65.5q102 0 155.5 -75.5t53.5 -181.5zM362 408q0 103 -47 103q-19 0 -35 -18t-26 -45.5t-16 -50.5t-9 -42q-7 -41 -7 -89q0 -109 48 -109
q19 0 35.5 18.5t26.5 47t15.5 51.5t8.5 44q6 45 6 90zM524 837l-12 -94h-335l12 94h335z" />
    <glyph glyph-name="omacron" unicode="&#x14d;" horiz-adv-x="480" 
d="M456 280q0 -123 -64.5 -206.5t-183.5 -83.5q-90 0 -137 54t-47 146q0 116 66.5 201.5t179.5 85.5q89 0 137.5 -53.5t48.5 -143.5zM291 269q0 77 -37 77q-32 0 -48 -52.5t-16 -95.5q0 -77 37 -77q32 0 48 52.5t16 95.5zM469 647l-12 -94h-335l12 94h335z" />
    <glyph glyph-name="Obreve" unicode="&#x14e;" horiz-adv-x="558" 
d="M546 422q0 -101 -26 -191q-31 -103 -99.5 -173t-166.5 -70q-50 0 -95 24t-74 65q-47 69 -47 186q0 100 29 187q34 98 104 163.5t166 65.5q102 0 155.5 -75.5t53.5 -181.5zM362 408q0 103 -47 103q-19 0 -35 -18t-26 -45.5t-16 -50.5t-9 -42q-7 -41 -7 -89q0 -109 48 -109
q19 0 35.5 18.5t26.5 47t15.5 51.5t8.5 44q6 45 6 90zM448 866h69q-14 -68 -60.5 -108t-115.5 -40q-61 0 -100.5 35.5t-39.5 95.5v17h69q8 -32 27.5 -42.5t54.5 -10.5q37 0 58.5 11t37.5 42z" />
    <glyph glyph-name="obreve" unicode="&#x14f;" horiz-adv-x="480" 
d="M456 280q0 -123 -64.5 -206.5t-183.5 -83.5q-90 0 -137 54t-47 146q0 116 66.5 201.5t179.5 85.5q89 0 137.5 -53.5t48.5 -143.5zM291 269q0 77 -37 77q-32 0 -48 -52.5t-16 -95.5q0 -77 37 -77q32 0 48 52.5t16 95.5zM383 669h69q-14 -68 -60.5 -108t-115.5 -40
q-61 0 -100.5 35.5t-39.5 95.5v17h69q8 -32 27.5 -42.5t54.5 -10.5q37 0 58.5 11t37.5 42z" />
    <glyph glyph-name="Ohungarumlaut" unicode="&#x150;" horiz-adv-x="558" 
d="M546 422q0 -101 -26 -191q-31 -103 -99.5 -173t-166.5 -70q-50 0 -95 24t-74 65q-47 69 -47 186q0 100 29 187q34 98 104 163.5t166 65.5q102 0 155.5 -75.5t53.5 -181.5zM362 408q0 103 -47 103q-19 0 -35 -18t-26 -45.5t-16 -50.5t-9 -42q-7 -41 -7 -89q0 -109 48 -109
q19 0 35.5 18.5t26.5 47t15.5 51.5t8.5 44q6 45 6 90zM571 868l-105 -148h-88l65 148h128zM406 868l-104 -148h-88l65 148h127z" />
    <glyph glyph-name="ohungarumlaut" unicode="&#x151;" horiz-adv-x="480" 
d="M456 280q0 -123 -64.5 -206.5t-183.5 -83.5q-90 0 -137 54t-47 146q0 116 66.5 201.5t179.5 85.5q89 0 137.5 -53.5t48.5 -143.5zM291 269q0 77 -37 77q-32 0 -48 -52.5t-16 -95.5q0 -77 37 -77q32 0 48 52.5t16 95.5zM506 678l-105 -148h-88l65 148h128zM341 678
l-104 -148h-88l65 148h127z" />
    <glyph glyph-name="OE" unicode="&#x152;" horiz-adv-x="697" 
d="M675 413l-19 -151h-134l-12 -102h149l-19 -160h-328l6 49q-44 -57 -102 -57q-83 0 -131 74q-47 74 -47 190q0 105 31.5 201.5t89.5 154.5q61 61 136 61q66 0 93 -52l6 46h326l-19 -157h-148l-12 -97h134zM220 262q0 -74 25 -96q10 -10 26 -10q17 0 33 16q29 29 46 119
q12 60 12 119q0 70 -21 91q-10 10 -24 10q-20 0 -35 -16q-26 -27 -43 -92q-19 -72 -19 -141z" />
    <glyph glyph-name="oe" unicode="&#x153;" horiz-adv-x="726" 
d="M521 157h162q-27 -79 -86.5 -123t-138.5 -44q-73 0 -121 43q-46 -43 -117 -43q-93 0 -144.5 53t-51.5 147q0 120 66.5 202.5t184.5 83.5q73 0 117 -42q58 42 129 42q87 -1 135 -56t48 -143q0 -30 -9 -80h-253v-17q0 -61 36 -61q30 0 43 38zM454 290h86q0 59 -36 59
t-50 -59zM293 271q0 76 -38 76q-32 0 -48 -53t-16 -96q0 -77 37 -77q23 0 38.5 31t21 63t5.5 56z" />
    <glyph glyph-name="Racute" unicode="&#x154;" horiz-adv-x="525" 
d="M100 667h181q230 0 230 -191q0 -147 -124 -199l98 -277h-192q-6 24 -23.5 93t-25.5 107q-3 13 -8.5 38.5t-8.5 38.5q-8 -93 -32 -277h-177zM239 358h12q35 0 59 29.5t24 65.5q0 64 -75 64zM449 868l-105 -148h-98l65 148h138z" />
    <glyph glyph-name="racute" unicode="&#x155;" horiz-adv-x="339" 
d="M360 478l-24 -194q-25 15 -46 15q-33 0 -57 -27q-21 -23 -26 -72l-25 -200h-171l58 467h170l-20 -91q51 99 141 102zM377 678l-105 -148h-98l65 148h138z" />
    <glyph glyph-name="Rcommaaccent" unicode="&#x156;" horiz-adv-x="525" 
d="M100 667h181q230 0 230 -191q0 -147 -124 -199l98 -277h-192q-6 24 -23.5 93t-25.5 107q-3 13 -8.5 38.5t-8.5 38.5q-8 -93 -32 -277h-177zM239 358h12q35 0 59 29.5t24 65.5q0 64 -75 64zM317 -45l-94 -188h-102l50 188h146z" />
    <glyph glyph-name="rcommaaccent" unicode="&#x157;" horiz-adv-x="339" 
d="M360 478l-24 -194q-25 15 -46 15q-33 0 -57 -27q-21 -23 -26 -72l-25 -200h-171l58 467h170l-20 -91q51 99 141 102zM277 -46l-94 -188h-102l50 188h146z" />
    <glyph glyph-name="Rcaron" unicode="&#x158;" horiz-adv-x="525" 
d="M100 667h181q230 0 230 -191q0 -147 -124 -199l98 -277h-192q-6 24 -23.5 93t-25.5 107q-3 13 -8.5 38.5t-8.5 38.5q-8 -93 -32 -277h-177zM239 358h12q35 0 59 29.5t24 65.5q0 64 -75 64zM463 802l-166 -98l-121 103l71 63l70 -58l92 56z" />
    <glyph glyph-name="rcaron" unicode="&#x159;" horiz-adv-x="339" 
d="M360 478l-24 -194q-25 15 -46 15q-33 0 -57 -27q-21 -23 -26 -72l-25 -200h-171l58 467h170l-20 -91q51 99 141 102zM400 623l-159 -112l-118 118l71 61l64 -65l87 65z" />
    <glyph glyph-name="Sacute" unicode="&#x15a;" horiz-adv-x="398" 
d="M408 645l-25 -204q-37 73 -95 73q-19 0 -36 -12.5t-17 -31.5t22 -41t48 -41.5t48 -57.5t22 -84q0 -105 -69 -181.5t-173 -76.5q-63 0 -127 29l26 209q44 -73 104 -73q23 0 40.5 13.5t17.5 36.5q0 16 -14 32.5t-34.5 33.5t-41 38t-34.5 54t-14 73q0 95 67.5 170t160.5 75
q62 0 124 -34zM437 868l-105 -148h-98l65 148h138z" />
    <glyph glyph-name="sacute" unicode="&#x15b;" horiz-adv-x="389" 
d="M390 439l-74 -127q-35 41 -65 41q-11 0 -20.5 -7t-9.5 -18q0 -17 22 -29.5t49 -22t49 -36.5t22 -69q0 -79 -61.5 -130t-142.5 -51q-45 0 -79.5 11.5t-79.5 37.5l78 129q38 -49 79 -49q14 0 25 7t11 20q0 10 -8 17.5t-13 9.5t-19 7q-49 19 -76.5 46t-27.5 73
q0 79 64 128.5t145 49.5q66 0 132 -38zM412 678l-105 -148h-98l65 148h138z" />
    <glyph glyph-name="Scircumflex" unicode="&#x15c;" horiz-adv-x="398" 
d="M408 645l-25 -204q-37 73 -95 73q-19 0 -36 -12.5t-17 -31.5t22 -41t48 -41.5t48 -57.5t22 -84q0 -105 -69 -181.5t-173 -76.5q-63 0 -127 29l26 209q44 -73 104 -73q23 0 40.5 13.5t17.5 36.5q0 16 -14 32.5t-34.5 33.5t-41 38t-34.5 54t-14 73q0 95 67.5 170t160.5 75
q62 0 124 -34zM316 870l124 -98l-65 -70l-71 55l-94 -57l-53 70z" />
    <glyph glyph-name="scircumflex" unicode="&#x15d;" horiz-adv-x="389" 
d="M390 439l-74 -127q-35 41 -65 41q-11 0 -20.5 -7t-9.5 -18q0 -17 22 -29.5t49 -22t49 -36.5t22 -69q0 -79 -61.5 -130t-142.5 -51q-45 0 -79.5 11.5t-79.5 37.5l78 129q38 -49 79 -49q14 0 25 7t11 20q0 10 -8 17.5t-13 9.5t-19 7q-49 19 -76.5 46t-27.5 73
q0 79 64 128.5t145 49.5q66 0 132 -38zM291 690l116 -117l-64 -63l-65 66l-90 -70l-53 67z" />
    <glyph glyph-name="Scedilla" unicode="&#x15e;" horiz-adv-x="398" 
d="M408 645l-25 -204q-37 73 -95 73q-19 0 -36 -12.5t-17 -31.5t22 -41t48 -41.5t48 -57.5t22 -84q0 -105 -69 -181.5t-173 -76.5q-63 0 -127 29l26 209q44 -73 104 -73q23 0 40.5 13.5t17.5 36.5q0 16 -14 32.5t-34.5 33.5t-41 38t-34.5 54t-14 73q0 95 67.5 170t160.5 75
q62 0 124 -34zM220 -113l-126 -124l-77 53l107 137z" />
    <glyph glyph-name="scedilla" unicode="&#x15f;" horiz-adv-x="389" 
d="M390 439l-74 -127q-35 41 -65 41q-11 0 -20.5 -7t-9.5 -18q0 -17 22 -29.5t49 -22t49 -36.5t22 -69q0 -79 -61.5 -130t-142.5 -51q-45 0 -79.5 11.5t-79.5 37.5l78 129q38 -49 79 -49q14 0 25 7t11 20q0 10 -8 17.5t-13 9.5t-19 7q-49 19 -76.5 46t-27.5 73
q0 79 64 128.5t145 49.5q66 0 132 -38zM238 -106l-126 -117l-71 54l102 122z" />
    <glyph glyph-name="Scaron" unicode="&#x160;" horiz-adv-x="398" 
d="M408 645l-25 -204q-37 73 -95 73q-19 0 -36 -12.5t-17 -31.5t22 -41t48 -41.5t48 -57.5t22 -84q0 -105 -69 -181.5t-173 -76.5q-63 0 -127 29l26 209q44 -73 104 -73q23 0 40.5 13.5t17.5 36.5q0 16 -14 32.5t-34.5 33.5t-41 38t-34.5 54t-14 73q0 95 67.5 170t160.5 75
q62 0 124 -34zM451 802l-166 -98l-121 103l71 63l70 -58l92 56z" />
    <glyph glyph-name="scaron" unicode="&#x161;" horiz-adv-x="389" 
d="M390 439l-74 -127q-35 41 -65 41q-11 0 -20.5 -7t-9.5 -18q0 -17 22 -29.5t49 -22t49 -36.5t22 -69q0 -79 -61.5 -130t-142.5 -51q-45 0 -79.5 11.5t-79.5 37.5l78 129q38 -49 79 -49q14 0 25 7t11 20q0 10 -8 17.5t-13 9.5t-19 7q-49 19 -76.5 46t-27.5 73
q0 79 64 128.5t145 49.5q66 0 132 -38zM415 623l-159 -112l-118 118l71 61l64 -65l87 65z" />
    <glyph glyph-name="Tcedilla" unicode="&#x162;" horiz-adv-x="377" 
d="M427 667l-20 -160h-98l-62 -507h-177l62 507h-98l20 160h373zM237 -113l-126 -124l-77 53l107 137z" />
    <glyph glyph-name="tcedilla" unicode="&#x163;" horiz-adv-x="297" 
d="M319 467l-17 -140h-56l-41 -327h-170l40 327h-49l17 140h49l17 137h171l-17 -137h56zM197 -106l-126 -117l-71 54l102 122z" />
    <glyph glyph-name="Tcaron" unicode="&#x164;" horiz-adv-x="377" 
d="M407 507l20 160h-373l-20 -160h98l-62 -507h177l62 507h98zM411 802l-166 -98l-121 103l71 63l70 -58l92 56z" />
    <glyph glyph-name="tcaron" unicode="&#x165;" horiz-adv-x="507" 
d="M319 467l-17 -140h-56l-41 -327h-170l40 327h-49l17 140h49l17 137h171l-17 -137h56zM517 727l-100 -221h-104l58 221h146z" />
    <glyph glyph-name="Utilde" unicode="&#x168;" horiz-adv-x="537" 
d="M545 667l-58 -472q-11 -98 -85 -155q-66 -52 -155 -52q-92 0 -148.5 47t-56.5 137q0 24 3 48l55 447h177l-53 -431q-2 -22 -2 -33q0 -46 39 -46q16 0 26.5 7t16 20.5t7.5 24t4 27.5l53 431h177zM423 855h88q-5 -56 -35.5 -94.5t-84.5 -38.5q-25 0 -61.5 16.5t-49.5 16.5
q-25 0 -31 -35h-89q4 34 12 56q13 33 41 54.5t62 21.5q27 0 63.5 -16.5t52.5 -16.5q26 0 32 36z" />
    <glyph glyph-name="utilde" unicode="&#x169;" horiz-adv-x="492" 
d="M482 467l-35 -287q-12 -99 -85 -147q-66 -43 -145 -43q-78 0 -132 39.5t-54 114.5l3 36l35 287h170l-32 -263q0 -1 -1.5 -14.5t-1.5 -20.5q0 -34 31 -34q13 0 22 6t13.5 19t5.5 20.5t3 23.5l32 263h171zM379 665h88q-5 -56 -35.5 -94.5t-84.5 -38.5q-25 0 -61 16.5
t-50 16.5q-25 0 -31 -35h-89q4 34 12 56q13 33 41 54.5t62 21.5q27 0 63.5 -16.5t52.5 -16.5q26 0 32 36z" />
    <glyph glyph-name="Umacron" unicode="&#x16a;" horiz-adv-x="537" 
d="M545 667l-58 -472q-11 -98 -85 -155q-66 -52 -155 -52q-92 0 -148.5 47t-56.5 137q0 24 3 48l55 447h177l-53 -431q-2 -22 -2 -33q0 -46 39 -46q16 0 26.5 7t16 20.5t7.5 24t4 27.5l53 431h177zM509 837l-12 -94h-335l12 94h335z" />
    <glyph glyph-name="umacron" unicode="&#x16b;" horiz-adv-x="492" 
d="M482 467l-35 -287q-12 -99 -85 -147q-66 -43 -145 -43q-78 0 -132 39.5t-54 114.5l3 36l35 287h170l-32 -263q0 -1 -1.5 -14.5t-1.5 -20.5q0 -34 31 -34q13 0 22 6t13.5 19t5.5 20.5t3 23.5l32 263h171zM459 647l-12 -94h-335l12 94h335z" />
    <glyph glyph-name="Ubreve" unicode="&#x16c;" horiz-adv-x="537" 
d="M545 667l-58 -472q-11 -98 -85 -155q-66 -52 -155 -52q-92 0 -148.5 47t-56.5 137q0 24 3 48l55 447h177l-53 -431q-2 -22 -2 -33q0 -46 39 -46q16 0 26.5 7t16 20.5t7.5 24t4 27.5l53 431h177zM433 866h69q-14 -68 -60.5 -108t-115.5 -40q-61 0 -100.5 35.5t-39.5 95.5
v17h69q8 -32 27.5 -42.5t54.5 -10.5q37 0 58.5 11t37.5 42z" />
    <glyph glyph-name="ubreve" unicode="&#x16d;" horiz-adv-x="492" 
d="M482 467l-35 -287q-12 -99 -85 -147q-66 -43 -145 -43q-78 0 -132 39.5t-54 114.5l3 36l35 287h170l-32 -263q0 -1 -1.5 -14.5t-1.5 -20.5q0 -34 31 -34q13 0 22 6t13.5 19t5.5 20.5t3 23.5l32 263h171zM383 669h69q-14 -68 -60.5 -108t-115.5 -40q-61 0 -100.5 35.5
t-39.5 95.5v17h69q8 -32 27.5 -42.5t54.5 -10.5q37 0 58.5 11t37.5 42z" />
    <glyph glyph-name="Uring" unicode="&#x16e;" horiz-adv-x="537" 
d="M545 667l-58 -472q-11 -98 -85 -155q-66 -52 -155 -52q-92 0 -148.5 47t-56.5 137q0 24 3 48l55 447h177l-53 -431q-2 -22 -2 -33q0 -46 39 -46q16 0 26.5 7t16 20.5t7.5 24t4 27.5l53 431h177zM243 810q0 40 28 68t68 28t68 -28t28 -68t-28.5 -68t-66.5 -28
q-40 0 -68.5 28.5t-28.5 67.5zM302 810q0 -16 10.5 -26.5t26.5 -10.5t26.5 10.5t10.5 26.5t-10.5 26.5t-26.5 10.5t-26.5 -10.5t-10.5 -26.5z" />
    <glyph glyph-name="uring" unicode="&#x16f;" horiz-adv-x="492" 
d="M482 467l-35 -287q-12 -99 -85 -147q-66 -43 -145 -43q-78 0 -132 39.5t-54 114.5l3 36l35 287h170l-32 -263q0 -1 -1.5 -14.5t-1.5 -20.5q0 -34 31 -34q13 0 22 6t13.5 19t5.5 20.5t3 23.5l32 263h171zM188 619q0 40 28 68t68 28t68 -28t28 -68t-28 -68t-68 -28t-68 28
t-28 68zM247 619q0 -16 10.5 -26.5t26.5 -10.5t26.5 10.5t10.5 26.5t-10.5 26.5t-26.5 10.5t-26.5 -10.5t-10.5 -26.5z" />
    <glyph glyph-name="Uhungarumlaut" unicode="&#x170;" horiz-adv-x="537" 
d="M545 667l-58 -472q-11 -98 -85 -155q-66 -52 -155 -52q-92 0 -148.5 47t-56.5 137q0 24 3 48l55 447h177l-53 -431q-2 -22 -2 -33q0 -46 39 -46q16 0 26.5 7t16 20.5t7.5 24t4 27.5l53 431h177zM521 868l-105 -148h-88l65 148h128zM356 868l-104 -148h-88l65 148h127z
" />
    <glyph glyph-name="uhungarumlaut" unicode="&#x171;" horiz-adv-x="492" 
d="M482 467l-35 -287q-12 -99 -85 -147q-66 -43 -145 -43q-78 0 -132 39.5t-54 114.5l3 36l35 287h170l-32 -263q0 -1 -1.5 -14.5t-1.5 -20.5q0 -34 31 -34q13 0 22 6t13.5 19t5.5 20.5t3 23.5l32 263h171zM491 678l-105 -148h-88l65 148h128zM326 678l-104 -148h-88l65 148
h127z" />
    <glyph glyph-name="Uogonek" unicode="&#x172;" horiz-adv-x="537" 
d="M545 667l-58 -472q-7 -58 -27 -95q-23 -43 -68 -77q-4 -3 -32.5 -22.5t-39.5 -30.5q-19 -21 -19 -40q0 -13 8 -23q9 -10 27 -10q16 0 36 9l-17 -77q-29 -12 -60 -12q-44 0 -67 21t-23 57q0 28 18 56q14 20 34 38h-10q-90 0 -140 39q-65 49 -65 147q0 25 3 45l55 447h177
l-53 -431q-2 -20 -2 -29q0 -25 11 -39q10 -11 27 -11q19 0 31 11q18 17 24 68l53 431h177z" />
    <glyph glyph-name="uogonek" unicode="&#x173;" horiz-adv-x="492" 
d="M482 467l-35 -287q-8 -70 -32 -104q-21 -29 -78 -65q-50 -31 -60 -42q-14 -16 -14 -36q0 -15 10 -24q8 -8 24 -8q17 0 35 9l-17 -73q-28 -12 -61 -12q-43 0 -66 24q-19 21 -19 52q0 26 15 49q13 21 39 41q-6 -1 -19 -1q-78 0 -131 50q-42 41 -42 104q0 23 4 47l34 276
h170l-33 -275q-2 -10 -2 -24q0 -17 8 -25t23 -8q16 0 26 10q12 12 16 41l34 281h171z" />
    <glyph glyph-name="Ydieresis" unicode="&#x178;" horiz-adv-x="493" 
d="M547 667l-200 -385l-35 -282h-177l35 282l-116 385h185q30 -146 37 -206q21 56 87 206h184zM478 800q0 -31 -24.5 -55.5t-56.5 -24.5q-27 0 -45 18.5t-18 45.5q0 32 24 56t56 24q28 0 46 -18t18 -46zM288 792q0 -8 -5 -20q-9 -23 -30 -37.5t-45 -14.5q-28 0 -46 18
t-18 46q0 32 24.5 56t56.5 24q31 0 47 -20t16 -52z" />
    <glyph glyph-name="Zacute" unicode="&#x179;" horiz-adv-x="507" 
d="M544 667l-2 -19l-206 -363q-14 -25 -41 -70t-38 -63q35 3 203 8l-19 -160h-453l2 14l181 326q53 95 110 170h-191l19 157h435zM462 868l-105 -148h-98l65 148h138z" />
    <glyph glyph-name="zacute" unicode="&#x17a;" horiz-adv-x="428" 
d="M441 467l-138 -238q-26 -46 -55 -88h126l-17 -141h-369l141 242q30 52 55 85h-130l17 140h370zM401 678l-105 -148h-98l65 148h138z" />
    <glyph glyph-name="Zdotaccent" unicode="&#x17b;" horiz-adv-x="507" 
d="M544 667l-2 -19l-206 -363q-14 -25 -41 -70t-38 -63q35 3 203 8l-19 -160h-453l2 14l181 326q53 95 110 170h-191l19 157h435zM409 796q0 -11 -6 -21q-9 -24 -31 -39.5t-47 -15.5q-29 0 -48 19t-19 48q0 34 25 59t59 25q33 0 50 -20.5t17 -54.5z" />
    <glyph glyph-name="zdotaccent" unicode="&#x17c;" horiz-adv-x="428" 
d="M441 467l-138 -238q-26 -46 -55 -88h126l-17 -141h-369l141 242q30 52 55 85h-130l17 140h370zM343 606q0 -11 -6 -21q-9 -24 -31 -39.5t-47 -15.5q-29 0 -48 19t-19 48q0 34 25 59t59 25q33 0 50 -20.5t17 -54.5z" />
    <glyph glyph-name="Zcaron" unicode="&#x17d;" horiz-adv-x="507" 
d="M544 667l-2 -19l-206 -363q-14 -25 -41 -70t-38 -63q35 3 203 8l-19 -160h-453l2 14l181 326q53 95 110 170h-191l19 157h435zM486 802l-166 -98l-121 103l71 63l70 -58l92 56z" />
    <glyph glyph-name="zcaron" unicode="&#x17e;" horiz-adv-x="428" 
d="M441 467l-138 -238q-26 -46 -55 -88h126l-17 -141h-369l141 242q30 52 55 85h-130l17 140h370zM410 623l-159 -112l-118 118l71 61l64 -65l87 65z" />
    <glyph glyph-name="uni018F" unicode="&#x18f;" horiz-adv-x="554" 
d="M47 385h310q2 88 -18 115q-14 18 -38 18t-38 -14q-19 -17 -30 -54l-168 55q37 80 99 126q66 48 151 48q97 0 158 -61q69 -71 69 -208q0 -97 -30.5 -195t-94.5 -161q-38 -38 -76.5 -52t-92.5 -14q-90 0 -140 52q-70 72 -70 226q0 42 6 92zM341 253h-129q-6 -69 16 -91
q11 -13 34 -13q21 0 38 15q29 26 41 89z" />
    <glyph glyph-name="florin" unicode="&#x192;" horiz-adv-x="532" 
d="M479 729l-22 -138q-5 0 -16 1.5t-16 1.5q-32 0 -38 -34l-18 -93h70l-18 -94h-71l-64 -332q-16 -84 -58.5 -129t-123.5 -45q-30 0 -76 13l26 143q20 -2 31 -2q22 0 33 7.5t15 28.5l61 316h-68l17 94h69l21 106q17 83 53 125t114 42q31 0 79 -11z" />
    <glyph glyph-name="uni01CF" unicode="&#x1cf;" horiz-adv-x="269" 
d="M277 667l-82 -667h-177l82 667h177zM366 802l-166 -98l-121 103l71 63l70 -58l92 56z" />
    <glyph glyph-name="uni01D0" unicode="&#x1d0;" horiz-adv-x="250" 
d="M239 467l-57 -467h-171l58 467h170zM315 623l-159 -112l-118 118l71 61l64 -65l87 65z" />
    <glyph glyph-name="uni01DD" unicode="&#x1dd;" horiz-adv-x="482" 
d="M201 308l-154 38q27 56 78 91q58 40 138 40q88 0 138 -48q57 -54 57 -155q0 -66 -22 -126.5t-62 -99.5q-60 -58 -161 -58q-87 0 -134 51q-55 58 -55 164q0 22 7 64h254q6 43 -11 61q-10 11 -28 11q-15 0 -27 -8q-13 -9 -18 -25zM272 176h-81q-2 -36 11 -50q9 -9 24 -9
q14 0 24 10q16 16 22 49z" />
    <glyph glyph-name="Gcaron" unicode="&#x1e6;" horiz-adv-x="552" 
d="M543 514l-180 -64q0 68 -44 68q-25 0 -43.5 -23t-24.5 -42.5t-14 -50.5q-21 -93 -21 -161q0 -93 53 -93q32 0 50 30t23 67h-65l17 140h247q-8 -85 -24 -148q-26 -111 -91.5 -180t-172.5 -69q-111 0 -163.5 74.5t-52.5 190.5q0 95 24 177q31 107 102.5 178t174.5 71
q156 0 205 -165zM511 802l-166 -98l-121 103l71 63l70 -58l92 56z" />
    <glyph glyph-name="gcaron" unicode="&#x1e7;" horiz-adv-x="485" 
d="M475 467l-59 -479q-10 -83 -49 -128q-65 -75 -183 -75q-91 0 -137.5 40t-47.5 129h174q0 -38 31 -38q18 0 28.5 11.5t13.5 23t6 31.5q4 34 9 72q-50 -61 -114 -61q-44 0 -73.5 30.5t-40 69t-10.5 81.5q0 62 15 122q19 71 62 126t106 55q52 0 93 -71l4 61h172zM284 279
q0 57 -27 57q-21 0 -34.5 -29t-17 -57t-3.5 -51q0 -63 30 -63q28 0 40 50t12 93zM425 623l-159 -112l-118 118l71 61l64 -65l87 65z" />
    <glyph glyph-name="AEacute" unicode="&#x1fc;" horiz-adv-x="606" 
d="M630 667l-19 -157h-177l3 -97h148l-18 -151h-122l4 -102h119l-20 -160h-252l-2 85h-114l-24 -85h-184l234 667h424zM219 223h74q-2 122 -2 184q0 33 2 99q-17 -77 -74 -283zM490 868l-105 -148h-98l65 148h138z" />
    <glyph glyph-name="aeacute" unicode="&#x1fd;" horiz-adv-x="724" 
d="M88 321l17 135q80 21 140 21q87 0 135 -46q68 46 138 46q88 0 135.5 -56t47.5 -145q0 -26 -8 -78h-252q0 -3 -0.5 -9t-0.5 -9q0 -62 37 -62q27 0 43 35l161 -3q-17 -44 -36.5 -73t-53.5 -51q-56 -36 -135 -36q-77 0 -130 48q-74 -48 -154 -48q-66 0 -111 38t-45 103
q0 79 53 124.5t133 45.5q39 0 86 -10q-1 57 -83 57q-60 0 -117 -27zM453 291h86q0 65 -36 65t-50 -65zM273 156q0 17 -11.5 26t-29.5 9q-20 0 -35 -13.5t-15 -33.5q0 -35 41 -35q22 0 36 13t14 34zM549 678l-105 -148h-98l65 148h138z" />
    <glyph glyph-name="Scommaaccent" unicode="&#x218;" horiz-adv-x="398" 
d="M408 645l-25 -204q-37 73 -95 73q-19 0 -36 -12.5t-17 -31.5t22 -41t48 -41.5t48 -57.5t22 -84q0 -105 -69 -181.5t-173 -76.5q-63 0 -127 29l26 209q44 -73 104 -73q23 0 40.5 13.5t17.5 36.5q0 16 -14 32.5t-34.5 33.5t-41 38t-34.5 54t-14 73q0 95 67.5 170t160.5 75
q62 0 124 -34zM227 -45l-94 -188h-102l50 188h146z" />
    <glyph glyph-name="scommaaccent" unicode="&#x219;" horiz-adv-x="389" 
d="M390 439l-74 -127q-35 41 -65 41q-11 0 -20.5 -7t-9.5 -18q0 -17 22 -29.5t49 -22t49 -36.5t22 -69q0 -79 -61.5 -130t-142.5 -51q-45 0 -79.5 11.5t-79.5 37.5l78 129q38 -49 79 -49q14 0 25 7t11 20q0 10 -8 17.5t-13 9.5t-19 7q-49 19 -76.5 46t-27.5 73
q0 79 64 128.5t145 49.5q66 0 132 -38zM242 -46l-94 -188h-102l50 188h146z" />
    <glyph glyph-name="Tcommaaccent" unicode="&#x21a;" horiz-adv-x="377" 
d="M427 667l-20 -160h-98l-62 -507h-177l62 507h-98l20 160h373zM227 -45l-94 -188h-102l50 188h146z" />
    <glyph glyph-name="tcommaaccent" unicode="&#x21b;" horiz-adv-x="297" 
d="M319 467l-17 -140h-56l-41 -327h-170l40 327h-49l17 140h49l17 137h171l-17 -137h56zM192 -46l-94 -188h-102l50 188h146z" />
    <glyph glyph-name="uni0228" unicode="&#x228;" horiz-adv-x="405" 
d="M430 667l-20 -157h-152l-12 -97h137l-19 -151h-136l-13 -102h152l-19 -160h-330l82 667h330zM270 -113l-126 -124l-77 53l107 137z" />
    <glyph glyph-name="uni0229" unicode="&#x229;" horiz-adv-x="474" 
d="M266 157h166q-26 -80 -84 -123.5t-141 -43.5q-89 0 -136.5 51t-47.5 140q0 116 68 205.5t180 89.5q87 0 133.5 -55.5t46.5 -144.5q0 -27 -8 -79h-250q-1 -6 -1 -19q0 -53 32 -53q31 0 42 32zM207 290h79q0 2 0.5 6t0.5 6q0 47 -34 47q-20 0 -31.5 -18t-14.5 -41z
M285 -106l-126 -117l-71 54l102 122z" />
    <glyph glyph-name="uni0237" unicode="&#x237;" horiz-adv-x="251" 
d="M241 467l-84 -682h-170l82 682h172z" />
    <glyph glyph-name="uni0259" unicode="&#x259;" horiz-adv-x="482" 
d="M201 308l-154 38q27 56 78 91q58 40 138 40q88 0 138 -48q57 -54 57 -155q0 -66 -22 -126.5t-62 -99.5q-60 -58 -161 -58q-87 0 -134 51q-55 58 -55 164q0 22 7 64h254q6 43 -11 61q-10 11 -28 11q-15 0 -27 -8q-13 -9 -18 -25zM272 176h-81q-2 -36 11 -50q9 -9 24 -9
q14 0 24 10q16 16 22 49z" />
    <glyph glyph-name="afii57929" unicode="&#x2bc;" horiz-adv-x="246" 
d="M267 667l-100 -221h-104l58 221h146z" />
    <glyph glyph-name="circumflex" unicode="&#x2c6;" 
d="M311 690l116 -117l-64 -63l-65 66l-90 -70l-53 67z" />
    <glyph glyph-name="caron" unicode="&#x2c7;" 
d="M440 623l-159 -112l-118 118l71 61l64 -65l87 65z" />
    <glyph glyph-name="uni02C9" unicode="&#x2c9;" 
d="M469 647l-12 -94h-335l12 94h335z" />
    <glyph glyph-name="breve" unicode="&#x2d8;" 
d="M393 669h69q-14 -68 -60.5 -108t-115.5 -40q-61 0 -100.5 35.5t-39.5 95.5v17h69q8 -32 27.5 -42.5t54.5 -10.5q37 0 58.5 11t37.5 42z" />
    <glyph glyph-name="dotaccent" unicode="&#x2d9;" 
d="M372 606q0 -11 -6 -21q-9 -24 -31 -39.5t-47 -15.5q-28 0 -47.5 19t-19.5 48q0 34 25 59t59 25q33 0 50 -20.5t17 -54.5z" />
    <glyph glyph-name="ring" unicode="&#x2da;" horiz-adv-x="503" 
d="M203 619q0 40 28 68t68 28t68 -28t28 -68t-28 -68t-68 -28t-68 28t-28 68zM262 619q0 -16 10.5 -26.5t26.5 -10.5t26.5 10.5t10.5 26.5t-10.5 26.5t-26.5 10.5t-26.5 -10.5t-10.5 -26.5z" />
    <glyph glyph-name="ogonek" unicode="&#x2db;" 
d="M378 -92l-16 -70q-20 -9 -44 -9q-45 0 -72 24q-20 18 -20 49q0 26 19 54q18 25 37 44h60q-1 -2 -5 -7t-8 -11.5t-8 -12.5q-13 -20 -13 -37q0 -14 9 -21q11 -9 28 -9t33 6z" />
    <glyph glyph-name="tilde" unicode="&#x2dc;" 
d="M383 665h88q-5 -56 -35.5 -94.5t-84.5 -38.5q-25 0 -61 16.5t-50 16.5q-25 0 -31 -35h-89q4 34 12 56q13 33 41 54.5t62 21.5q27 0 63.5 -16.5t52.5 -16.5q26 0 32 36z" />
    <glyph glyph-name="hungarumlaut" unicode="&#x2dd;" 
d="M516 678l-105 -148h-88l65 148h128zM351 678l-104 -148h-88l65 148h127z" />
    <glyph glyph-name="acutecomb" unicode="&#x301;" horiz-adv-x="2" 
d="M-69 678l-105 -148h-98l65 148h138z" />
    <glyph glyph-name="uni0394" unicode="&#x394;" horiz-adv-x="667" 
d="M622 0h-634l245 667h141zM434 118l-130 390l-130 -390h260z" />
    <glyph glyph-name="uni0394" unicode="&#x2206;" horiz-adv-x="667" 
d="M622 0h-634l245 667h141zM434 118l-130 390l-130 -390h260z" />
    <glyph glyph-name="uni03A9" unicode="&#x3a9;" horiz-adv-x="667" 
d="M633 0h-270v104q134 72 134 248q0 84 -44.5 149t-124.5 65t-124.5 -65t-44.5 -149q0 -177 135 -248v-104h-271v117h136q-72 45 -104 104t-32 145q0 135 85.5 226t219.5 91t219.5 -91t85.5 -226q0 -121 -68 -196q-24 -27 -68 -53h136v-117z" />
    <glyph glyph-name="uni03A9" unicode="&#x2126;" horiz-adv-x="667" 
d="M633 0h-270v104q134 72 134 248q0 84 -44.5 149t-124.5 65t-124.5 -65t-44.5 -149q0 -177 135 -248v-104h-271v117h136q-72 45 -104 104t-32 145q0 135 85.5 226t219.5 91t219.5 -91t85.5 -226q0 -121 -68 -196q-24 -27 -68 -53h136v-117z" />
    <glyph glyph-name="pi" unicode="&#x3c0;" horiz-adv-x="708" 
d="M672 327h-76v-327h-172v327h-135v-327h-172v327h-77v140h632v-140z" />
    <glyph glyph-name="afii10023" unicode="&#x401;" horiz-adv-x="410" 
d="M430 667l-20 -157h-152l-12 -97h137l-19 -151h-136l-13 -102h152l-19 -160h-330l82 667h330zM439 793q0 -31 -24.5 -55.5t-56.5 -24.5q-27 0 -45 18.5t-18 45.5q0 32 24 56t56 24q28 0 46 -18t18 -46zM254 785q0 -7 -5 -20q-9 -23 -30 -37.5t-45 -14.5q-28 0 -46 18
t-18 46q0 32 24.5 56t56.5 24q31 0 47 -20t16 -52z" />
    <glyph glyph-name="afii10051" unicode="&#x402;" horiz-adv-x="581" 
d="M76 0l63 507h-99l20 160h429l-20 -160h-154l-8 -65q-4 -38 -13 -64q55 33 109 33q71 0 113 -53q40 -50 40 -133q0 -61 -19.5 -114.5t-51.5 -83.5q-45 -43 -123 -43q-39 0 -74 14l31 142q10 -9 24 -9q13 0 24 14q13 17 13 54q0 29 -12 43q-12 15 -30 15q-20 0 -56 -17
l-29 -240h-177z" />
    <glyph glyph-name="afii10052" unicode="&#x403;" horiz-adv-x="382" 
d="M413 667l-19 -157h-136l-63 -510h-177l82 667h313zM407 868l-105 -148h-98l65 148h138z" />
    <glyph glyph-name="afii10053" unicode="&#x404;" horiz-adv-x="485" 
d="M446 210l-32 -189q-60 -33 -130 -33q-108 0 -171 65q-75 77 -75 218q0 91 31.5 181t91.5 148q82 79 207 79q73 0 132 -32l-23 -189q-18 23 -39 37q-27 17 -63 17q-52 0 -86 -32q-29 -27 -42 -67h164l-20 -149h-165q1 -46 32 -77q28 -27 74 -27q35 0 64 13q28 12 50 37z
" />
    <glyph glyph-name="afii10054" unicode="&#x405;" horiz-adv-x="398" 
d="M408 645l-25 -204q-37 73 -95 73q-19 0 -36 -12.5t-17 -31.5t22 -41t48 -41.5t48 -57.5t22 -84q0 -105 -69 -181.5t-173 -76.5q-63 0 -127 29l26 209q44 -73 104 -73q23 0 40.5 13.5t17.5 36.5q0 16 -14 32.5t-34.5 33.5t-41 38t-34.5 54t-14 73q0 95 67.5 170t160.5 75
q62 0 124 -34z" />
    <glyph glyph-name="afii10055" unicode="&#x406;" horiz-adv-x="269" 
d="M277 667l-82 -667h-177l82 667h177z" />
    <glyph glyph-name="afii10056" unicode="&#x407;" horiz-adv-x="269" 
d="M277 667l-82 -667h-177l82 667h177zM317 800q0 -32 -17.5 -56t-39.5 -24q-19 0 -31.5 18.5t-12.5 45.5q0 32 16.5 56t39.5 24q20 0 32.5 -18t12.5 -46zM184 792q0 -10 -4 -20q-6 -23 -21 -37.5t-31 -14.5q-20 0 -32.5 18t-12.5 46q0 32 17 56t40 24q22 0 33 -20t11 -52z
" />
    <glyph glyph-name="afii10057" unicode="&#x408;" horiz-adv-x="349" 
d="M357 667l-57 -463q-11 -85 -37 -125q-57 -91 -177 -91q-53 0 -113 22l23 186q25 -39 66 -39q55 0 65 82l52 428h178z" />
    <glyph glyph-name="afii10058" unicode="&#x409;" horiz-adv-x="803" 
d="M527 0h-201l62 503h-80l-27 -221q-22 -179 -82 -240q-52 -53 -147 -53q-40 0 -72 8l22 178q16 -16 37 -16q25 0 42 15q23 22 32 97l49 396h421l-30 -245h9q118 0 174 -55q52 -52 52 -133q0 -103 -65 -168q-67 -66 -196 -66zM535 278l-16 -133q44 -6 73 24q18 18 18 51
q0 30 -20 46q-22 17 -55 12z" />
    <glyph glyph-name="afii10059" unicode="&#x40a;" horiz-adv-x="758" 
d="M482 0h-201l33 278h-86l-33 -278h-177l82 667h177l-30 -245h86l30 245h175l-30 -245h9q118 0 174 -55q52 -52 52 -133q0 -103 -65 -168q-67 -66 -196 -66zM490 278l-16 -133q44 -6 73 24q18 18 18 51q0 30 -20 46q-22 17 -55 12z" />
    <glyph glyph-name="afii10060" unicode="&#x40b;" horiz-adv-x="569" 
d="M75 0l64 507h-99l20 160h429l-20 -160h-154l-15 -107q41 15 90 15q73 0 114 -40q40 -39 40 -106q0 -11 -7 -76l-23 -193h-176l20 158q5 45 5 50q0 24 -10 35q-10 12 -31 12q-20 0 -40 -11l-30 -244h-177z" />
    <glyph glyph-name="afii10061" unicode="&#x40c;" horiz-adv-x="533" 
d="M564 667l-181 -322l117 -345h-191l-79 319l-35 -319h-177l82 667h177l-40 -298l140 298h187zM472 868l-105 -148h-98l65 148h138z" />
    <glyph glyph-name="afii10062" unicode="&#x40e;" 
d="M54 667h184l23 -109q15 -70 17 -141q22 78 49 146l41 104h186l-318 -667h-177l108 230zM377 874l125 -37q-17 -67 -72 -99q-45 -27 -121 -27q-75 0 -118 26q-56 34 -73 99l127 38q4 -26 20 -41q17 -15 47 -15t47 17q14 16 18 39z" />
    <glyph glyph-name="afii10145" unicode="&#x40f;" horiz-adv-x="530" 
d="M277 667l-62 -504h84l62 504h177l-82 -667h-139l-16 -130h-160l16 130h-139l82 667h177z" />
    <glyph glyph-name="afii10017" unicode="&#x410;" horiz-adv-x="524" 
d="M491 0h-183l-3 85h-119l-25 -85h-184l240 667h217zM300 305v87q0 1 3 115q-3 -11 -10.5 -43.5t-12.5 -50.5q-6 -21 -24 -86t-29 -100h75q-2 52 -2 78z" />
    <glyph glyph-name="afii10018" unicode="&#x411;" horiz-adv-x="491" 
d="M222 0h-204l82 667h367l-19 -157h-190l-13 -104h10q121 0 175 -54q46 -46 46 -122q0 -104 -64 -165q-67 -65 -190 -65zM228 272l-15 -127q40 -7 65 19q20 20 20 56q0 27 -16 40q-17 16 -54 12z" />
    <glyph glyph-name="afii10019" unicode="&#x412;" horiz-adv-x="522" 
d="M100 667h206q206 0 206 -165q0 -68 -36.5 -111t-103.5 -49q60 -8 88.5 -37.5t28.5 -89.5q0 -94 -64.5 -154.5t-158.5 -60.5h-248zM259 522l-14 -114q4 -1 12 -1q33 0 55 17.5t22 48.5q0 50 -56 50q-13 0 -19 -1zM229 272l-16 -127q5 -1 15 -1q34 0 58 20t24 54
q0 28 -19 41.5t-48 13.5q-3 0 -7 -0.5t-7 -0.5z" />
    <glyph glyph-name="afii10020" unicode="&#x413;" horiz-adv-x="382" 
d="M413 667l-19 -157h-136l-63 -510h-177l82 667h313z" />
    <glyph glyph-name="afii10021" unicode="&#x414;" horiz-adv-x="583" 
d="M152 667h411l-63 -509h56l-35 -288h-152l16 130h-247l-16 -130h-152l36 288q34 8 56 30q36 36 49 142zM297 509l-21 -169q-11 -94 -29 -131q-15 -30 -43 -51h123l43 351h-73z" />
    <glyph glyph-name="afii10022" unicode="&#x415;" horiz-adv-x="405" 
d="M430 667l-20 -157h-152l-12 -97h137l-19 -151h-136l-13 -102h152l-19 -160h-330l82 667h330z" />
    <glyph glyph-name="afii10024" unicode="&#x416;" horiz-adv-x="777" 
d="M709 0h-182l-61 321l-34 -321h-170l45 321l-140 -321h-182l177 349l-98 318h180l69 -300l31 300h170l-42 -300l142 300h178l-176 -324z" />
    <glyph glyph-name="afii10025" unicode="&#x417;" horiz-adv-x="452" 
d="M70 453l24 190q62 36 139 36q107 0 163 -58q46 -47 46 -123q0 -73 -40 -114q-37 -37 -96 -45q52 0 86 -34t34 -92q0 -44 -18.5 -88.5t-50.5 -74.5q-66 -62 -180 -62q-75 0 -157 43l25 201q21 -36 49 -57q30 -23 69 -23q35 0 53 17q17 15 17 42t-24 43q-19 12 -58 12h-26
l17 148h24q44 0 65 11q26 14 26 42q0 21 -18 35q-19 15 -55 15q-32 0 -61 -18q-23 -14 -53 -46z" />
    <glyph glyph-name="afii10026" unicode="&#x418;" horiz-adv-x="557" 
d="M18 0l82 667h170l-23 -185q-14 -118 -47 -225q45 105 92 195l115 215h158l-82 -667h-170l22 178q12 102 37 214q-27 -79 -87 -190l-109 -202h-158z" />
    <glyph glyph-name="afii10027" unicode="&#x419;" horiz-adv-x="557" 
d="M18 0l82 667h170l-23 -185q-14 -118 -47 -225q45 105 92 195l115 215h158l-82 -667h-170l22 178q12 102 37 214q-27 -79 -87 -190l-109 -202h-158zM417 874l125 -37q-17 -67 -72 -99q-45 -27 -121 -27q-75 0 -118 26q-56 34 -73 99l127 38q4 -26 20 -41q17 -15 47 -15
t47 17q14 16 18 39z" />
    <glyph glyph-name="afii10028" unicode="&#x41a;" horiz-adv-x="533" 
d="M564 667l-181 -322l117 -345h-191l-79 319l-35 -319h-177l82 667h177l-40 -298l140 298h187z" />
    <glyph glyph-name="afii10029" unicode="&#x41b;" horiz-adv-x="580" 
d="M162 667h426l-82 -667h-180l62 503h-80l-27 -221q-22 -179 -82 -240q-52 -53 -147 -53q-40 0 -72 8l22 178q16 -16 37 -16q25 0 42 15q23 22 32 97z" />
    <glyph glyph-name="afii10030" unicode="&#x41c;" horiz-adv-x="755" 
d="M712 667l-18 -667h-185q10 130 35 425q-28 -110 -126 -425h-145l-11 321q0 5 -0.5 17t-0.5 17q0 24 2 70q-13 -100 -71 -425h-190l158 667h221l9 -225q2 -34 2 -50q0 -12 -0.5 -25.5t-1.5 -29.5t-1 -25q10 43 24 94t23 81t30 95t27 85h219z" />
    <glyph glyph-name="afii10031" unicode="&#x41d;" horiz-adv-x="531" 
d="M539 667l-82 -667h-177l33 268h-85l-33 -268h-177l82 667h177l-29 -236h85l29 236h177z" />
    <glyph glyph-name="afii10032" unicode="&#x41e;" horiz-adv-x="558" 
d="M337 679q86 0 140 -57q69 -72 69 -208q0 -96 -30.5 -195t-94.5 -161q-71 -70 -167 -70q-87 0 -146 62q-70 72 -70 213q0 116 34.5 203t88.5 139q75 74 176 74zM315 511q-17 0 -35 -19q-25 -27 -41 -91q-17 -67 -17 -139t22 -94q11 -11 26 -11q19 0 33 16q28 31 44 99
q15 61 15 134q0 77 -22 96q-10 9 -25 9z" />
    <glyph glyph-name="afii10033" unicode="&#x41f;" horiz-adv-x="531" 
d="M539 667l-82 -667h-177l62 504h-85l-62 -504h-177l82 667h439z" />
    <glyph glyph-name="afii10034" unicode="&#x420;" horiz-adv-x="498" 
d="M100 667h172q238 0 238 -193q0 -115 -73 -190q-76 -77 -215 -65l-27 -219h-177zM241 368h9q36 0 57.5 25.5t21.5 61.5q0 29 -14.5 47.5t-42.5 18.5h-13z" />
    <glyph glyph-name="afii10035" unicode="&#x421;" horiz-adv-x="438" 
d="M461 662l-23 -190q-35 40 -77 40q-50 0 -83.5 -39.5t-45 -87t-11.5 -96.5q0 -55 22 -91t73 -36q47 0 97 43l-34 -193q-59 -24 -109 -24q-113 0 -172.5 77.5t-59.5 194.5q0 77 21 150t61 134t106 98t147 37q48 0 88 -17z" />
    <glyph glyph-name="afii10036" unicode="&#x422;" horiz-adv-x="377" 
d="M427 667l-20 -160h-98l-62 -507h-177l62 507h-98l20 160h373z" />
    <glyph glyph-name="afii10037" unicode="&#x423;" 
d="M54 667h184l23 -109q15 -70 17 -141q22 78 49 146l41 104h186l-318 -667h-177l108 230z" />
    <glyph glyph-name="afii10038" unicode="&#x424;" horiz-adv-x="703" 
d="M232 0l11 90q-82 9 -140 63q-65 63 -65 169q0 131 75 211q74 78 195 85l10 86h176l-10 -86q88 -10 142 -65q65 -65 65 -174q0 -132 -78 -208q-73 -71 -194 -81l-11 -90h-176zM451 463l-26 -217q42 1 69 30q31 34 31 96q0 45 -23 68q-20 20 -51 23zM276 245l27 218
q-37 -1 -63 -25q-36 -34 -36 -98q0 -45 24 -70q20 -20 48 -25z" />
    <glyph glyph-name="afii10039" unicode="&#x425;" horiz-adv-x="509" 
d="M552 667l-190 -321l119 -346h-197q-9 37 -26 124q-8 35 -10 55q-25 -61 -83 -179h-193l202 346l-111 321h197q3 -18 10.5 -55t11.5 -55q1 -5 2.5 -15t3 -18t3.5 -15q14 45 62 158h199z" />
    <glyph glyph-name="afii10040" unicode="&#x426;" horiz-adv-x="558" 
d="M277 667l-62 -504h82l62 504h177l-62 -504h70l-37 -293h-160l17 130h-346l82 667h177z" />
    <glyph glyph-name="afii10041" unicode="&#x427;" horiz-adv-x="521" 
d="M270 0l33 269q-39 -11 -79 -11q-71 0 -113 33q-51 40 -51 112q0 29 6 74l24 190h176l-22 -178q-3 -27 -3 -30q0 -21 13 -32q12 -11 35 -11q18 0 33 7l30 244h177l-82 -667h-177z" />
    <glyph glyph-name="afii10042" unicode="&#x428;" horiz-adv-x="780" 
d="M276 667l-62 -504h80l62 504h176l-62 -504h80l62 504h176l-82 -667h-688l82 667h176z" />
    <glyph glyph-name="afii10043" unicode="&#x429;" horiz-adv-x="820" 
d="M278 667l-62 -504h80l62 504h176l-62 -504h80l62 504h176l-62 -504h78l-37 -293h-160l17 130h-606l82 667h176z" />
    <glyph glyph-name="afii10044" unicode="&#x42a;" horiz-adv-x="555" 
d="M279 0h-203l62 507h-83l20 160h260l-30 -245h9q118 0 174 -55q52 -52 52 -133q0 -103 -65 -168q-67 -66 -196 -66zM287 278l-16 -133q44 -6 73 24q18 18 18 51q0 30 -20 46q-22 17 -55 12z" />
    <glyph glyph-name="afii10045" unicode="&#x42b;" horiz-adv-x="751" 
d="M674 0h-177l79 667h183zM220 0h-202l82 667h177l-30 -245h8q118 0 174 -55q52 -50 52 -131q0 -105 -65 -170q-67 -66 -196 -66zM229 278l-16 -133q44 -6 73 24q18 18 18 51q0 30 -20 46q-22 17 -55 12z" />
    <glyph glyph-name="afii10046" unicode="&#x42c;" horiz-adv-x="497" 
d="M221 0h-203l82 667h177l-30 -245h9q118 0 174 -55q52 -52 52 -133q0 -103 -65 -168q-67 -66 -196 -66zM229 278l-16 -133q44 -6 73 24q18 18 18 51q0 30 -20 46q-22 17 -55 12z" />
    <glyph glyph-name="afii10047" unicode="&#x42d;" horiz-adv-x="496" 
d="M40 29l11 193q16 -25 43 -44q29 -20 66 -20q45 0 77 28q31 28 40 75h-151l19 151h150q-7 48 -36 74t-76 26q-32 0 -61 -16q-24 -14 -44 -35l24 188q55 30 117 30q115 0 184 -69q37 -37 59 -97.5t22 -132.5q0 -87 -30.5 -176t-92.5 -147q-73 -69 -183 -69q-40 0 -69 9.5
t-69 31.5z" />
    <glyph glyph-name="afii10048" unicode="&#x42e;" horiz-adv-x="810" 
d="M247 425h69q24 109 97 182q73 72 174 72q88 0 142 -57q69 -72 69 -208q0 -97 -30.5 -195.5t-94.5 -161.5q-69 -69 -172 -69q-84 0 -137 53q-70 70 -70 227h-66l-33 -268h-177l82 667h177zM567 511q-17 0 -35 -19q-25 -27 -41 -91q-17 -67 -17 -139t22 -94q11 -11 26 -11
q19 0 33 16q28 31 44 99q15 61 15 134q0 77 -22 96q-10 9 -25 9z" />
    <glyph glyph-name="afii10049" unicode="&#x42f;" horiz-adv-x="541" 
d="M0 0l155 269q-41 18 -63 50q-28 40 -28 102q0 107 63 172q73 74 250 74h172l-82 -667h-177l19 147q12 91 18 120l-128 -267h-199zM334 358l19 159q-43 5 -70 -20q-28 -24 -28 -70q0 -30 19 -49q22 -20 54 -20h6z" />
    <glyph glyph-name="afii10065" unicode="&#x430;" horiz-adv-x="489" 
d="M479 467l-57 -467h-171q3 13 8 39.5t7 39.5q-53 -89 -130 -89q-33 0 -56.5 17t-35 45t-16.5 56t-5 59q0 69 14 128q8 33 21 63t32.5 58t48.5 44.5t63 16.5q40 0 62 -21.5t37 -62.5q0 12 1.5 36.5t2.5 37.5h174zM282 288q0 46 -28 46q-31 0 -45 -51t-14 -95q0 -55 31 -55
q30 0 43 54.5t13 100.5z" />
    <glyph glyph-name="afii10066" unicode="&#x431;" horiz-adv-x="503" 
d="M376 557l-38 -11q-74 -22 -102 -49q-42 -40 -49 -103q19 39 47 59q33 24 81 24q64 0 106 -42q51 -53 51 -152q0 -60 -19.5 -127t-64.5 -110q-59 -56 -159 -56q-84 0 -131 48q-58 59 -58 186q0 96 30 211q31 116 90 174q33 32 70.5 49t91.5 31q51 13 67 32q11 12 13 29
h131q-5 -77 -50 -131q-35 -42 -107 -62zM270 346q-13 0 -24 -11q-18 -18 -29 -60.5t-11 -79.5t11 -57q10 -17 26 -17q15 0 25 12q19 19 29 61t10 79q0 35 -11 56q-8 17 -26 17z" />
    <glyph glyph-name="afii10067" unicode="&#x432;" horiz-adv-x="476" 
d="M68 467h200q113 0 153 -40q31 -33 31 -83q0 -47 -26 -73q-31 -31 -83 -31v-2q50 2 77 -27q22 -24 22 -64q0 -58 -35 -96q-48 -51 -145 -51h-251zM216 280h7q36 0 50 12q15 13 15 34q0 16 -14 26q-11 7 -41 7h-7zM195 108h6q35 0 48 9q19 13 19 37q0 20 -17 30
q-15 6 -38 6h-8z" />
    <glyph glyph-name="afii10068" unicode="&#x433;" horiz-adv-x="364" 
d="M351 327h-128l-40 -327h-172l57 467h300z" />
    <glyph glyph-name="afii10069" unicode="&#x434;" horiz-adv-x="533" 
d="M122 467h378l-40 -331h53l-32 -251h-138l15 115h-236l-14 -115h-138l31 251q35 7 55 27q33 31 45 132zM294 136l24 195h-61l-10 -79q-6 -45 -17 -70q-13 -28 -38 -46h102z" />
    <glyph glyph-name="afii10070" unicode="&#x435;" horiz-adv-x="474" 
d="M266 157h166q-26 -80 -84 -123.5t-141 -43.5q-89 0 -136.5 51t-47.5 140q0 116 68 205.5t180 89.5q87 0 133.5 -55.5t46.5 -144.5q0 -27 -8 -79h-250q-1 -6 -1 -19q0 -53 32 -53q31 0 42 32zM207 290h79q0 2 0.5 6t0.5 6q0 47 -34 47q-20 0 -31.5 -18t-14.5 -41z" />
    <glyph glyph-name="afii10072" unicode="&#x436;" horiz-adv-x="723" 
d="M686 0h-187l-26 96q-18 67 -25 120l-27 -216h-168l27 216q-29 -70 -55 -120l-50 -96h-192l145 239l-79 228h178l30 -104q17 -60 26 -118l27 222h168l-27 -222q18 44 56 118l54 104h180l-137 -228z" />
    <glyph glyph-name="afii10073" unicode="&#x437;" horiz-adv-x="435" 
d="M108 303l-55 127q41 21 74 32q48 15 101 15q99 0 147 -48q34 -34 34 -85q0 -48 -29 -75q-28 -27 -74 -30q42 -3 68 -28q25 -23 25 -65q0 -55 -41 -99q-55 -57 -157 -57q-62 0 -110 18q-40 15 -81 45l82 121q12 -23 37 -38q22 -14 49 -14q16 0 32 8q12 8 12 23
q0 19 -20 26q-15 5 -49 5h-20l13 109h30q26 0 41 4q22 7 22 25q0 12 -13 20q-11 7 -33 7q-25 0 -46 -12q-12 -7 -39 -34z" />
    <glyph glyph-name="afii10074" unicode="&#x438;" horiz-adv-x="504" 
d="M68 467h166l-16 -131q-7 -59 -22 -123q24 53 46 90l94 164h158l-57 -467h-166l15 125q4 35 22 129q-23 -55 -46 -94l-93 -160h-158z" />
    <glyph glyph-name="afii10075" unicode="&#x439;" horiz-adv-x="504" 
d="M68 467h166l-16 -131q-7 -59 -22 -123q24 53 46 90l94 164h158l-57 -467h-166l15 125q4 35 22 129q-23 -55 -46 -94l-93 -160h-158zM351 677l111 -26q-19 -67 -72 -102q-39 -25 -100 -25q-65 0 -103 27q-50 34 -60 100l118 26q-2 -27 12 -42q12 -13 34 -13q25 0 38 13
q16 14 22 42z" />
    <glyph glyph-name="afii10076" unicode="&#x43a;" horiz-adv-x="487" 
d="M456 0h-190l-24 80q-24 81 -34 123l-25 -203h-172l57 467h172l-27 -221q31 77 70 147l40 74h182l-139 -234z" />
    <glyph glyph-name="afii10077" unicode="&#x43b;" horiz-adv-x="506" 
d="M496 467l-57 -467h-172l40 327h-60l-13 -104q-18 -145 -72 -196q-41 -38 -115 -38q-35 0 -67 10l17 139q10 -7 24 -7q20 0 32 10q22 17 31 90l29 236h383z" />
    <glyph glyph-name="afii10078" unicode="&#x43c;" horiz-adv-x="636" 
d="M347 0h-118l-17 169q-6 55 -5 107q-4 -44 -17 -108l-33 -168h-167l118 467h182l16 -156q7 -63 6 -117q12 57 32 112l56 161h182l4 -467h-167l9 155q3 65 9 121q-12 -55 -34 -118z" />
    <glyph glyph-name="afii10079" unicode="&#x43d;" horiz-adv-x="486" 
d="M240 467l-19 -159h64l19 159h172l-57 -467h-172l21 168h-64l-21 -168h-172l57 467h172z" />
    <glyph glyph-name="afii10080" unicode="&#x43e;" horiz-adv-x="480" 
d="M270 477q82 0 131 -47q55 -53 55 -152q0 -66 -22 -126.5t-62 -99.5q-64 -62 -164 -62q-79 0 -127 44q-57 52 -57 156q0 137 85 222q67 65 161 65zM254 346q-13 0 -24 -11q-18 -18 -29 -60.5t-11 -79.5t11 -57q10 -17 26 -17q15 0 25 12q19 19 29 61t10 79q0 35 -11 56
q-8 17 -26 17z" />
    <glyph glyph-name="afii10081" unicode="&#x43f;" horiz-adv-x="484" 
d="M417 0h-172l40 327h-62l-40 -327h-172l57 467h406z" />
    <glyph glyph-name="afii10082" unicode="&#x440;" horiz-adv-x="489" 
d="M241 467l-12 -66q49 76 115 76q46 0 75 -32t38.5 -71.5t9.5 -84.5q0 -67 -15 -122q-18 -70 -60 -123.5t-105 -53.5t-99 73q0 -25 -6 -77l-25 -201h-171l85 682h170zM290 272q0 62 -31 62q-15 0 -26.5 -16t-17 -40.5t-8 -44.5t-2.5 -35q0 -62 29 -62q28 0 42 48.5t14 87.5
z" />
    <glyph glyph-name="afii10083" unicode="&#x441;" horiz-adv-x="298" 
d="M309 475l-19 -152q-41 -3 -64 -30t-23 -68q0 -28 14.5 -50.5t40.5 -22.5h11l-19 -159q-22 -3 -46 -3q-88 0 -133.5 60t-45.5 150q0 109 71.5 193t178.5 84q12 0 34 -2z" />
    <glyph glyph-name="afii10084" unicode="&#x442;" horiz-adv-x="376" 
d="M398 467l-17 -140h-94l-41 -327h-170l40 327h-90l17 140h355z" />
    <glyph glyph-name="afii10085" unicode="&#x443;" horiz-adv-x="458" 
d="M487 467l-301 -682h-176l110 234l-82 448h172q2 -18 7 -57t7.5 -61.5t5 -55.5t2.5 -61q0 -5 -0.5 -15t-0.5 -15q36 133 48 164l38 101h170z" />
    <glyph glyph-name="afii10086" unicode="&#x444;" horiz-adv-x="641" 
d="M179 -215l27 208q-72 3 -125 56q-57 59 -57 162q0 121 74 193q65 63 167 70l25 193h170l-25 -193q74 -13 125 -65q57 -61 57 -154q0 -127 -73 -198q-66 -64 -168 -64l-27 -208h-170zM403 334l-25 -201q35 1 56 22q33 32 33 94q0 38 -17 60q-15 20 -47 25zM238 133l25 201
q-32 -2 -54 -22q-34 -31 -34 -96q0 -40 18 -62q16 -21 45 -21z" />
    <glyph glyph-name="afii10087" unicode="&#x445;" horiz-adv-x="475" 
d="M491 467l-163 -223l119 -244h-198q-17 62 -25 110q-20 -45 -61 -110h-191l169 240l-104 227h195q18 -88 20 -101q8 20 26 54t24 47h189z" />
    <glyph glyph-name="afii10088" unicode="&#x446;" horiz-adv-x="507" 
d="M304 467h172l-40 -327h61l-31 -255h-142l14 115h-327l57 467h172l-40 -327h64z" />
    <glyph glyph-name="afii10089" unicode="&#x447;" horiz-adv-x="476" 
d="M237 0l20 161q-34 -10 -71 -10q-73 0 -112 37q-34 34 -34 91q0 27 5 65l15 123h170l-15 -122q-2 -14 -2 -26q0 -16 9 -23q8 -7 24 -7q15 0 27 8l21 170h172l-57 -467h-172z" />
    <glyph glyph-name="afii10090" unicode="&#x448;" horiz-adv-x="714" 
d="M302 467h168l-40 -327h66l40 327h168l-57 -467h-636l57 467h168l-40 -327h66z" />
    <glyph glyph-name="afii10091" unicode="&#x449;" horiz-adv-x="741" 
d="M302 467h168l-40 -327h66l40 327h168l-40 -327h67l-31 -255h-142l14 115h-561l57 467h168l-40 -327h66z" />
    <glyph glyph-name="afii10092" unicode="&#x44a;" horiz-adv-x="526" 
d="M279 301h53q87 0 131 -36q43 -36 43 -100q0 -75 -45 -119q-48 -46 -139 -46h-252l40 327h-80l17 140h252zM256 110h5q36 0 50 7q21 11 21 38q0 14 -9 24q-13 14 -51 14h-6z" />
    <glyph glyph-name="afii10093" unicode="&#x44b;" horiz-adv-x="694" 
d="M626 0h-172l57 467h172zM219 301h49q87 0 131 -36q43 -36 43 -100q0 -75 -45 -119q-48 -46 -139 -46h-248l57 467h172zM196 110h5q36 0 50 7q21 11 21 38q0 14 -9 24q-13 14 -51 14h-6z" />
    <glyph glyph-name="afii10094" unicode="&#x44c;" horiz-adv-x="466" 
d="M219 301h53q87 0 131 -36q43 -36 43 -100q0 -75 -45 -119q-48 -46 -139 -46h-252l57 467h172zM196 110h5q36 0 50 7q21 11 21 38q0 14 -9 24q-13 14 -51 14h-6z" />
    <glyph glyph-name="afii10095" unicode="&#x44d;" horiz-adv-x="389" 
d="M20 22l17 133q29 -33 75 -33q33 0 53 15q22 18 27 45h-107l13 104h103q-5 30 -26 45q-18 14 -51 14q-37 0 -68 -23l17 135q46 20 95 20q90 0 142 -54q55 -57 55 -162q0 -51 -17.5 -109t-59.5 -101q-58 -61 -152 -61q-68 0 -116 32z" />
    <glyph glyph-name="afii10096" unicode="&#x44e;" horiz-adv-x="706" 
d="M217 306h55q17 74 76 122q60 49 144 49q85 0 135 -48q55 -54 55 -153q0 -68 -22 -128t-62 -99q-62 -59 -164 -59q-84 0 -130 49q-47 49 -49 131h-56l-20 -170h-168l57 467h168zM480 346q-13 0 -24 -11q-18 -18 -29 -60.5t-11 -79.5t11 -57q10 -17 26 -17q15 0 25 12
q19 19 29 61t10 79q0 35 -11 56q-8 17 -26 17z" />
    <glyph glyph-name="afii10097" unicode="&#x44f;" horiz-adv-x="478" 
d="M0 0l104 162q-30 11 -48 35q-22 31 -22 76q0 85 50 137q34 35 79.5 46t121.5 11h183l-57 -467h-172l12 102q5 43 10 73q-7 -18 -15.5 -36.5t-9.5 -19.5l-55 -119h-181zM270 250l11 95h-9q-36 0 -50 -12q-15 -13 -15 -37q0 -22 15 -34t42 -12h6z" />
    <glyph glyph-name="afii10071" unicode="&#x451;" horiz-adv-x="474" 
d="M266 157h166q-26 -80 -84 -123.5t-141 -43.5q-89 0 -136.5 51t-47.5 140q0 116 68 205.5t180 89.5q87 0 133.5 -55.5t46.5 -144.5q0 -27 -8 -79h-250q-1 -6 -1 -19q0 -53 32 -53q31 0 42 32zM207 290h79q0 2 0.5 6t0.5 6q0 47 -34 47q-20 0 -31.5 -18t-14.5 -41zM452 610
q0 -31 -24.5 -55.5t-56.5 -24.5q-27 0 -45 18.5t-18 45.5q0 32 24 56t56 24q28 0 46 -18t18 -46zM262 602q0 -8 -5 -20q-9 -23 -30 -37.5t-45 -14.5q-28 0 -46 18t-18 46q0 32 24.5 56t56.5 24q31 0 47 -20t16 -52z" />
    <glyph glyph-name="afii10099" unicode="&#x452;" horiz-adv-x="492" 
d="M20 0l64 499h-54l14 105h53l15 125h173l-16 -125h118l-14 -105h-118l-8 -74q-7 -57 -14 -90q15 32 40 58q42 42 94 42q40 0 66 -26q33 -35 33 -104q0 -38 -9 -98l-27 -200q-5 -39 -10.5 -65.5t-20.5 -59.5t-38 -54q-47 -43 -127 -43q-32 0 -74 10l18 145q13 -15 31 -15
t31 13q12 15 16 49l27 202q4 27 4 40q0 18 -7 26q-6 7 -15 7q-14 0 -25 -11q-14 -15 -20 -50l-27 -201h-173z" />
    <glyph glyph-name="afii10100" unicode="&#x453;" horiz-adv-x="364" 
d="M351 327h-128l-40 -327h-172l57 467h300zM369 678l-105 -148h-98l65 148h138z" />
    <glyph glyph-name="afii10101" unicode="&#x454;" horiz-adv-x="390" 
d="M343 140l-17 -133q-46 -17 -101 -17q-90 0 -140 48q-60 58 -60 167q0 125 78 205q66 67 171 67q60 0 106 -24l-16 -132q-35 26 -74 26q-32 0 -53 -15q-23 -15 -32 -44h105l-13 -106h-105q4 -27 23 -44q21 -18 58 -18q39 0 70 20z" />
    <glyph glyph-name="afii10102" unicode="&#x455;" horiz-adv-x="389" 
d="M390 439l-74 -127q-35 41 -65 41q-11 0 -20.5 -7t-9.5 -18q0 -17 22 -29.5t49 -22t49 -36.5t22 -69q0 -79 -61.5 -130t-142.5 -51q-45 0 -79.5 11.5t-79.5 37.5l78 129q38 -49 79 -49q14 0 25 7t11 20q0 10 -8 17.5t-13 9.5t-19 7q-49 19 -76.5 46t-27.5 73
q0 79 64 128.5t145 49.5q66 0 132 -38z" />
    <glyph glyph-name="afii10103" unicode="&#x456;" horiz-adv-x="249" 
d="M273 624q0 -44 -34.5 -78.5t-78.5 -34.5q-37 0 -62.5 25.5t-25.5 63.5q0 45 34 79t79 34q38 0 63 -25.5t25 -63.5zM239 467l-57 -467h-171l58 467h170z" />
    <glyph glyph-name="afii10104" unicode="&#x457;" horiz-adv-x="249" 
d="M239 467l-57 -467h-171l58 467h170zM245 693q15 0 26 -13q17 -18 17 -52q0 -47 -27 -76q-16 -18 -35 -18q-15 0 -27 12q-17 19 -17 55q0 47 30 77q15 15 33 15zM117 693q16 0 27 -13q16 -17 16 -52q0 -48 -26 -76q-16 -18 -35 -18q-16 0 -28 12q-18 18 -18 55q0 50 30 77
q17 15 34 15z" />
    <glyph glyph-name="afii10105" unicode="&#x458;" horiz-adv-x="252" 
d="M274 624v-10q0 -10 -8 -29q-12 -32 -41.5 -53t-62.5 -21q-38 0 -63 25.5t-25 63.5q0 45 33.5 79t78.5 34q39 0 63.5 -25t24.5 -64zM242 467l-85 -682h-170l83 682h172z" />
    <glyph glyph-name="afii10106" unicode="&#x459;" horiz-adv-x="719" 
d="M472 301h53q87 0 131 -36q43 -36 43 -100q0 -75 -45 -119q-48 -46 -139 -46h-248l40 327h-60l-13 -104q-18 -145 -72 -196q-41 -38 -115 -38q-35 0 -67 10l17 139q10 -7 24 -7q20 0 32 10q22 17 31 90l29 236h379zM449 110h5q36 0 50 7q21 11 21 38q0 14 -9 24
q-13 14 -51 14h-6z" />
    <glyph glyph-name="afii10107" unicode="&#x45a;" horiz-adv-x="704" 
d="M457 301h53q87 0 131 -36q43 -36 43 -100q0 -75 -45 -119q-48 -46 -139 -46h-252l24 193h-65l-24 -193h-172l57 467h172l-19 -166h64l20 166h172zM434 110h5q36 0 50 7q21 11 21 38q0 14 -9 24q-13 14 -51 14h-6z" />
    <glyph glyph-name="afii10108" unicode="&#x45b;" horiz-adv-x="489" 
d="M20 0l61 499h-54l14 105h53l15 125h173l-15 -125h118l-14 -105h-118l-8 -73q-7 -50 -16 -90q53 99 134 99q47 0 73.5 -33.5t26.5 -82.5q0 -22 -3 -43l-35 -276h-171l27 207q2 16 2 24q0 31 -23 31q-36 0 -44 -69l-25 -193h-171z" />
    <glyph glyph-name="afii10109" unicode="&#x45c;" horiz-adv-x="487" 
d="M456 0h-190l-24 80q-24 81 -34 123l-25 -203h-172l57 467h172l-27 -221q31 77 70 147l40 74h182l-139 -234zM437 678l-105 -148h-98l65 148h138z" />
    <glyph glyph-name="afii10110" unicode="&#x45e;" horiz-adv-x="458" 
d="M487 467l-301 -682h-176l110 234l-82 448h172q2 -18 7 -57t7.5 -61.5t5 -55.5t2.5 -61q0 -5 -0.5 -15t-0.5 -15q36 133 48 164l38 101h170zM332 677l111 -26q-19 -67 -72 -102q-39 -25 -100 -25q-65 0 -103 27q-50 34 -60 100l118 26q-2 -27 12 -42q12 -13 34 -13
q25 0 38 13q16 14 22 42z" />
    <glyph glyph-name="afii10193" unicode="&#x45f;" horiz-adv-x="486" 
d="M304 467h172l-57 -467h-133l-14 -115h-142l14 115h-133l57 467h172l-40 -327h64z" />
    <glyph glyph-name="afii10146" unicode="&#x462;" horiz-adv-x="538" 
d="M262 0h-203l61 489h-85l17 130h84l10 85h177l-11 -85h104l-16 -130h-104l-8 -73h9q120 0 174 -53q52 -52 52 -129q0 -50 -18.5 -96.5t-51.5 -77.5q-65 -60 -191 -60zM270 278l-16 -133q4 -1 12 -1q38 0 61 25q18 18 18 51q0 30 -20 46q-16 12 -55 12z" />
    <glyph glyph-name="afii10194" unicode="&#x463;" horiz-adv-x="498" 
d="M257 343l-5 -46h52q87 0 131 -36q43 -36 43 -100q0 -71 -44 -115q-48 -46 -139 -46h-252l42 343h-60l15 124h60l25 200h172l-25 -200h97l-15 -124h-97zM229 110h5q36 0 50 7q21 11 21 38q0 14 -9 24q-13 14 -51 14h-6z" />
    <glyph glyph-name="afii10147" unicode="&#x472;" horiz-adv-x="558" 
d="M337 679q86 0 140 -57q69 -72 69 -208q0 -96 -30.5 -195t-94.5 -161q-71 -70 -167 -70q-87 0 -146 62q-70 72 -70 213q0 116 34.5 203t88.5 139q75 74 176 74zM240 407h122q3 25 -2.5 55.5t-19.5 43.5q-9 9 -25 9q-17 0 -35 -19q-29 -32 -40 -89zM348 276h-126
q0 -90 23 -113q10 -10 25 -10q16 0 32 14q16 16 29 47t17 62z" />
    <glyph glyph-name="afii10195" unicode="&#x473;" horiz-adv-x="480" 
d="M270 477q82 0 131 -47q55 -53 55 -152q0 -66 -22 -126.5t-62 -99.5q-64 -62 -164 -62q-79 0 -127 44q-57 52 -57 156q0 137 85 222q67 65 161 65zM201 291h92q-2 31 -10 45q-10 18 -30 18q-14 0 -25 -10q-19 -16 -27 -53zM282 185h-94q0 -37 11 -55q10 -17 28 -17
q15 0 28 11q22 22 27 61z" />
    <glyph glyph-name="afii10148" unicode="&#x474;" horiz-adv-x="510" 
d="M564 667l-261 -667h-181l-68 667h186q12 -250 12 -312q0 -41 -4 -123q9 42 19 84t25.5 96t23 78t30 95t25.5 82h193z" />
    <glyph glyph-name="afii10196" unicode="&#x475;" horiz-adv-x="439" 
d="M468 467l-191 -467h-178l-70 467h173q12 -161 12 -202q0 -31 -2 -93q17 70 88 295h168z" />
    <glyph glyph-name="afii10050" unicode="&#x490;" horiz-adv-x="451" 
d="M100 667h216l17 142h156l-36 -299h-195l-63 -510h-177z" />
    <glyph glyph-name="afii10098" unicode="&#x491;" horiz-adv-x="403" 
d="M68 467h200l18 140h142l-35 -280h-170l-40 -327h-172z" />
    <glyph glyph-name="uni0492" unicode="&#x492;" horiz-adv-x="405" 
d="M417 510h-138l-12 -97h128l-19 -151h-128l-32 -262h-177l32 262h-66l19 151h66l31 254h315z" />
    <glyph glyph-name="uni0493" unicode="&#x493;" horiz-adv-x="388" 
d="M392 467l-17 -140h-128l-7 -62h100l-18 -140h-100l-15 -125h-172l15 125h-50l18 140h50l24 202h300z" />
    <glyph glyph-name="uni0494" unicode="&#x494;" horiz-adv-x="523" 
d="M426 667l-19 -157h-149l-9 -68q-7 -45 -13 -64q55 33 109 33q71 0 113 -53q40 -50 40 -133q0 -61 -19.5 -114.5t-51.5 -83.5q-45 -43 -123 -43q-39 0 -74 14l31 142q10 -9 24 -9q13 0 24 14q13 17 13 54q0 29 -12 43q-12 15 -30 15q-20 0 -56 -17l-29 -240h-177l82 667
h326z" />
    <glyph glyph-name="uni0495" unicode="&#x495;" horiz-adv-x="464" 
d="M359 327h-136l-9 -72h15q101 0 152 -52q53 -54 53 -152q0 -121 -74 -193q-71 -68 -200 -73l16 136q32 2 53 20q38 32 38 105q0 53 -22 73q-17 16 -45 16l-17 -135h-172l57 467h308z" />
    <glyph glyph-name="uni0496" unicode="&#x496;" horiz-adv-x="777" 
d="M64 667h180l69 -300l31 300h170l-42 -300l142 300h178l-176 -324l49 -180h72l-37 -292h-156l17 129h-34l-61 321l-34 -321h-170l45 321l-140 -321h-182l177 349z" />
    <glyph glyph-name="uni0497" unicode="&#x497;" horiz-adv-x="723" 
d="M49 467h178l30 -104q17 -60 26 -118l27 222h168l-27 -222q18 44 56 118l54 104h180l-137 -228l30 -99h63l-31 -255h-142l14 115h-36l-27 96q-22 75 -27 120l-27 -216h-168l27 216q-29 -70 -55 -120l-50 -96h-192l145 239z" />
    <glyph glyph-name="uni0498" unicode="&#x498;" horiz-adv-x="452" 
d="M70 453l24 190q62 36 139 36q107 0 163 -58q46 -47 46 -123q0 -73 -40 -114q-37 -37 -96 -45q52 0 86 -34t34 -98q0 -82 -47 -141q-45 -55 -111 -66l-16 -130h-160l16 128q-47 10 -88 33l25 201q21 -36 49 -57q30 -23 69 -23q35 0 53 17q17 15 17 42t-24 43
q-19 12 -58 12h-26l17 148h24q44 0 65 11q26 14 26 42q0 21 -18 35q-19 15 -55 15q-32 0 -61 -18q-23 -14 -53 -46z" />
    <glyph glyph-name="uni0499" unicode="&#x499;" horiz-adv-x="435" 
d="M108 303l-55 127q41 21 74 32q48 15 101 15q99 0 147 -48q34 -34 34 -85q0 -48 -29 -75q-28 -27 -74 -30q40 -3 67 -28q26 -24 26 -66q0 -64 -43 -105q-38 -36 -92 -41l-14 -114h-142l14 112q-50 12 -112 56l82 121q12 -23 37 -38q22 -14 49 -14q16 0 32 8q12 8 12 23
q0 19 -20 26q-15 5 -49 5h-20l13 109h30q26 0 41 4q22 7 22 25q0 12 -13 20q-11 7 -33 7q-25 0 -46 -12q-12 -7 -39 -34z" />
    <glyph glyph-name="uni049A" unicode="&#x49a;" horiz-adv-x="533" 
d="M564 667l-181 -322l62 -182h77l-37 -292h-156l17 129h-37l-79 319l-35 -319h-177l82 667h177l-40 -298l140 298h187z" />
    <glyph glyph-name="uni049B" unicode="&#x49b;" horiz-adv-x="492" 
d="M68 467h172l-27 -221q31 77 70 147l40 74h187l-141 -229l35 -98h65l-31 -255h-142l14 115h-42l-26 80q-17 50 -34 123l-25 -203h-172z" />
    <glyph glyph-name="uni049C" unicode="&#x49c;" horiz-adv-x="663" 
d="M231 293l-36 -293h-177l82 667h177l-34 -274h43l19 150h87l-21 -168l137 292h186l-175 -322l95 -345h-190l-60 317l-19 -158h-87l16 134h-43z" />
    <glyph glyph-name="uni049D" unicode="&#x49d;" horiz-adv-x="581" 
d="M205 181l-22 -181h-172l57 467h172l-22 -186h33l11 95h72l-15 -123q23 69 62 140l40 74h178l-137 -231l86 -236h-184l-24 80q-18 56 -28 116l-14 -118h-72l12 103h-33z" />
    <glyph glyph-name="uni04A0" unicode="&#x4a0;" horiz-adv-x="623" 
d="M654 667l-181 -322l117 -345h-191l-79 319l-35 -319h-177l62 510h-130l19 157h308l-40 -298l140 298h187z" />
    <glyph glyph-name="uni04A1" unicode="&#x4a1;" horiz-adv-x="571" 
d="M544 0h-199l-24 80q-24 81 -34 123l-25 -203h-172l40 327h-110l17 140h282l-27 -221q31 77 70 147l40 74h187l-141 -231z" />
    <glyph glyph-name="uni04A2" unicode="&#x4a2;" horiz-adv-x="560" 
d="M539 667l-63 -504h70l-38 -292h-160l18 129h-86l33 268h-85l-33 -268h-177l82 667h177l-29 -236h85l29 236h177z" />
    <glyph glyph-name="uni04A3" unicode="&#x4a3;" horiz-adv-x="507" 
d="M240 467l-19 -159h64l19 159h172l-40 -327h61l-31 -255h-142l14 115h-91l21 168h-64l-21 -168h-172l57 467h172z" />
    <glyph glyph-name="uni04A4" unicode="&#x4a4;" horiz-adv-x="629" 
d="M100 667h177l-29 -236h85l29 236h298l-19 -157h-121l-63 -510h-177l33 268h-85l-33 -268h-177z" />
    <glyph glyph-name="uni04A5" unicode="&#x4a5;" horiz-adv-x="576" 
d="M240 467l-19 -159h64l19 159h276l-17 -140h-104l-40 -327h-172l21 168h-64l-21 -168h-172l57 467h172z" />
    <glyph glyph-name="uni04AA" unicode="&#x4aa;" horiz-adv-x="438" 
d="M461 662l-23 -190q-35 40 -77 40q-50 0 -83.5 -39.5t-45 -87t-11.5 -96.5q0 -55 22 -91t73 -36q47 0 97 43l-34 -193q-28 -12 -38 -14l-29 -137h-160l30 142q-71 27 -107.5 97t-36.5 160q0 77 21 150t61 134t106 98t147 37q48 0 88 -17z" />
    <glyph glyph-name="uni04AB" unicode="&#x4ab;" horiz-adv-x="307" 
d="M279 152l-20 -159l-20 -3l-13 -105h-136l16 127q-39 28 -58 67q-23 49 -23 112q0 131 79 214q68 72 172 72q7 0 23.5 -1t18.5 -1l-18 -152q-39 0 -64 -23q-29 -26 -29 -72q0 -39 20 -59q17 -17 47 -17h5z" />
    <glyph glyph-name="uni04AE" unicode="&#x4ae;" horiz-adv-x="493" 
d="M547 667l-200 -385l-35 -282h-177l35 282l-116 385h185q30 -146 37 -206q21 56 87 206h184z" />
    <glyph glyph-name="uni04AF" unicode="&#x4af;" horiz-adv-x="458" 
d="M25 467h176l12 -115q10 -88 10 -158q29 106 48 160l39 113h183l-204 -448l-28 -234h-171l27 234z" />
    <glyph glyph-name="uni04B0" unicode="&#x4b0;" horiz-adv-x="493" 
d="M547 667l-197 -367l-3 -26h118l-18 -143h-118l-17 -131h-177l17 131h-118l18 143h118l3 26l-119 367h185q30 -146 37 -206q21 56 87 206h184z" />
    <glyph glyph-name="uni04B1" unicode="&#x4b1;" horiz-adv-x="465" 
d="M32 467h176l13 -110q10 -90 11 -155q16 69 47 157l38 108h183l-197 -397l-3 -18h106l-13 -105h-106l-19 -162h-172l19 162h-105l13 105h105l3 18z" />
    <glyph glyph-name="uni04B2" unicode="&#x4b2;" horiz-adv-x="509" 
d="M552 667l-190 -321l61 -183h70l-36 -292h-156l16 129h-33q-6 23 -14.5 66.5t-11.5 57.5q-8 35 -10 55q-25 -61 -83 -179h-193l202 346l-111 321h197q12 -66 22 -110q1 -5 2.5 -15t3 -18t3.5 -15q14 45 62 158h199z" />
    <glyph glyph-name="uni04B3" unicode="&#x4b3;" horiz-adv-x="475" 
d="M491 467l-163 -223l50 -104h65l-31 -255h-142l14 115h-31q-19 49 -29 110q-20 -45 -61 -110h-191l169 240l-104 227h195q18 -88 20 -101q8 20 26 54t24 47h189z" />
    <glyph glyph-name="uni04B6" unicode="&#x4b6;" horiz-adv-x="550" 
d="M356 0h-86l33 269q-39 -11 -79 -11q-71 0 -113 33q-51 40 -51 112q0 29 6 74l24 190h176l-22 -178q-3 -21 -3 -30q0 -21 13 -32q12 -11 35 -11q18 0 33 7l30 244h177l-63 -504h70l-36 -292h-160z" />
    <glyph glyph-name="uni04B7" unicode="&#x4b7;" horiz-adv-x="495" 
d="M326 0h-89l20 161q-34 -10 -71 -10q-73 0 -112 37q-34 34 -34 91q0 27 5 65l15 123h170l-15 -122q-2 -14 -2 -26q0 -16 9 -23q8 -7 24 -7q15 0 27 8l21 170h172l-41 -327h60l-31 -255h-142z" />
    <glyph glyph-name="uni04B8" unicode="&#x4b8;" horiz-adv-x="595" 
d="M344 0l33 267q-17 -6 -40 -9l-14 -119h-83l15 119q-41 -2 -84 9.5t-69 36.5q-42 40 -42 103q0 25 6 70l24 190h172l-22 -178q-3 -23 -3 -38q0 -20 12 -29q11 -7 25 -7l17 136h83l-17 -138q19 1 39 9l30 245h177l-82 -667h-177z" />
    <glyph glyph-name="uni04B9" unicode="&#x4b9;" horiz-adv-x="543" 
d="M304 0l20 165q-16 -7 -34 -9l-10 -86h-72l9 80h-7q-92 0 -134 38q-36 32 -36 89q0 29 5 67l15 123h161l-14 -117q-3 -27 -3 -31q0 -21 10 -29q9 -7 20 -7l12 103h72l-12 -102q20 2 34 10l21 173h172l-57 -467h-172z" />
    <glyph glyph-name="uni04BA" unicode="&#x4ba;" horiz-adv-x="515" 
d="M277 667l-31 -251q41 15 90 15q73 0 114 -40q40 -39 40 -106q0 -17 -7 -76l-26 -209h-176l22 174q5 45 5 50q0 24 -10 35q-10 12 -31 12q-20 0 -40 -11l-32 -260h-177l82 667h177z" />
    <glyph glyph-name="uni04BB" unicode="&#x4bb;" horiz-adv-x="483" 
d="M272 729l-32 -261q-7 -50 -16 -90q53 99 134 99q47 0 73.5 -33.5t26.5 -82.5q0 -22 -3 -43l-39 -318h-171l31 247q2 18 2 26q0 31 -23 31q-36 0 -44 -69l-29 -235h-171l90 729h171z" />
    <glyph glyph-name="uni04C0" unicode="&#x4c0;" horiz-adv-x="250" 
d="M265 667l-83 -667h-171l83 667h171z" />
    <glyph glyph-name="uni04C1" unicode="&#x4c1;" horiz-adv-x="777" 
d="M709 0h-182l-61 321l-34 -321h-170l45 321l-140 -321h-182l177 349l-98 318h180l69 -300l31 300h170l-42 -300l142 300h178l-176 -324zM502 874l125 -37q-17 -67 -72 -99q-45 -27 -121 -27q-75 0 -118 26q-56 34 -73 99l127 38q4 -26 20 -41q17 -15 47 -15t47 17
q14 16 18 39z" />
    <glyph glyph-name="uni04C2" unicode="&#x4c2;" horiz-adv-x="723" 
d="M686 0h-187l-26 96q-18 67 -25 120l-27 -216h-168l27 216q-29 -70 -55 -120l-50 -96h-192l145 239l-79 228h178l30 -104q17 -60 26 -118l27 222h168l-27 -222q18 44 56 118l54 104h180l-137 -228zM451 677l111 -26q-19 -67 -72 -102q-39 -25 -100 -25q-65 0 -103 27
q-50 34 -60 100l118 26q-2 -27 12 -42q12 -13 34 -13q25 0 38 13q16 14 22 42z" />
    <glyph glyph-name="uni04C3" unicode="&#x4c3;" horiz-adv-x="558" 
d="M100 667h177l-40 -286l141 286h190l-161 -278q52 -12 82 -57q31 -47 31 -136q0 -63 -11 -129q-20 -130 -72 -182q-45 -45 -134 -45q-50 0 -86 14l29 142q13 -10 31 -10q17 0 26 9q23 20 30 110q7 80 7 93q0 36 -17 52q-14 14 -37 14q-30 0 -64 -20l-27 -244h-177z" />
    <glyph glyph-name="uni04C4" unicode="&#x4c4;" horiz-adv-x="492" 
d="M68 467h172l-27 -221q31 77 70 147l40 74h187l-145 -237q44 -15 67 -53q25 -40 25 -106q0 -56 -19 -115t-57 -97q-69 -70 -211 -74l17 136q32 0 53 20q38 37 38 115q0 44 -20 63q-16 15 -59 15l-16 -134h-172z" />
    <glyph glyph-name="uni04C7" unicode="&#x4c7;" horiz-adv-x="532" 
d="M363 667h177l-87 -710q-12 -96 -57 -135q-41 -37 -126 -37q-42 0 -81 12l17 139q13 -12 30 -12q18 0 28 12q10 11 16 58l34 274h-86l-33 -268h-177l82 667h177l-29 -236h86z" />
    <glyph glyph-name="uni04C8" unicode="&#x4c8;" horiz-adv-x="486" 
d="M240 467l-19 -159h64l19 159h172l-55 -460q-15 -130 -69 -179q-47 -43 -127 -43q-32 0 -74 10l18 145q13 -15 31 -15t31 13q11 13 15 50l22 180h-64l-21 -168h-172l57 467h172z" />
    <glyph glyph-name="uni04D0" unicode="&#x4d0;" horiz-adv-x="524" 
d="M491 0h-183l-3 85h-119l-25 -85h-184l240 667h217zM300 305v87q0 1 3 115q-3 -11 -10.5 -43.5t-12.5 -50.5q-6 -21 -24 -86t-29 -100h75q-2 52 -2 78zM397 874l125 -37q-17 -67 -72 -99q-45 -27 -121 -27q-75 0 -118 26q-56 34 -73 99l127 38q4 -26 20 -41q17 -15 47 -15
t47 17q14 16 18 39z" />
    <glyph glyph-name="uni04D1" unicode="&#x4d1;" horiz-adv-x="489" 
d="M479 467l-57 -467h-171q3 13 8 39.5t7 39.5q-53 -89 -130 -89q-33 0 -56.5 17t-35 45t-16.5 56t-5 59q0 69 14 128q8 33 21 63t32.5 58t48.5 44.5t63 16.5q40 0 62 -21.5t37 -62.5q0 12 1.5 36.5t2.5 37.5h174zM282 288q0 46 -28 46q-31 0 -45 -51t-14 -95q0 -55 31 -55
q30 0 43 54.5t13 100.5zM355 677l111 -26q-19 -67 -72 -102q-39 -25 -100 -25q-65 0 -103 27q-50 34 -60 100l118 26q-2 -27 12 -42q12 -13 34 -13q25 0 38 13q16 14 22 42z" />
    <glyph glyph-name="uni04D2" unicode="&#x4d2;" horiz-adv-x="524" 
d="M491 0h-183l-3 85h-119l-25 -85h-184l240 667h217zM300 305v87q0 1 3 115q-3 -11 -10.5 -43.5t-12.5 -50.5q-6 -21 -24 -86t-29 -100h75q-2 52 -2 78zM493 800q0 -31 -24.5 -55.5t-56.5 -24.5q-27 0 -45 18.5t-18 45.5q0 32 24 56t56 24q28 0 46 -18t18 -46zM303 792
q0 -8 -5 -20q-9 -23 -30 -37.5t-45 -14.5q-28 0 -46 18t-18 46q0 32 24.5 56t56.5 24q31 0 47 -20t16 -52z" />
    <glyph glyph-name="uni04D3" unicode="&#x4d3;" horiz-adv-x="489" 
d="M479 467l-57 -467h-171q3 13 8 39.5t7 39.5q-53 -89 -130 -89q-33 0 -56.5 17t-35 45t-16.5 56t-5 59q0 69 14 128q8 33 21 63t32.5 58t48.5 44.5t63 16.5q40 0 62 -21.5t37 -62.5q0 12 1.5 36.5t2.5 37.5h174zM282 288q0 46 -28 46q-31 0 -45 -51t-14 -95q0 -55 31 -55
q30 0 43 54.5t13 100.5zM473 610q0 -31 -24.5 -55.5t-56.5 -24.5q-27 0 -45 18.5t-18 45.5q0 32 24 56t56 24q28 0 46 -18t18 -46zM283 602q0 -8 -5 -20q-9 -23 -30 -37.5t-45 -14.5q-28 0 -46 18t-18 46q0 32 24.5 56t56.5 24q31 0 47 -20t16 -52z" />
    <glyph glyph-name="uni04D4" unicode="&#x4d4;" horiz-adv-x="606" 
d="M630 667l-19 -157h-177l3 -97h148l-18 -151h-122l4 -102h119l-20 -160h-252l-2 85h-114l-24 -85h-184l234 667h424zM219 223h74q-2 122 -2 184q0 33 2 99q-17 -77 -74 -283z" />
    <glyph glyph-name="uni04D5" unicode="&#x4d5;" horiz-adv-x="724" 
d="M88 321l17 135q80 21 140 21q87 0 135 -46q68 46 138 46q88 0 135.5 -56t47.5 -145q0 -26 -8 -78h-252q0 -3 -0.5 -9t-0.5 -9q0 -62 37 -62q27 0 43 35l161 -3q-17 -44 -36.5 -73t-53.5 -51q-56 -36 -135 -36q-77 0 -130 48q-74 -48 -154 -48q-66 0 -111 38t-45 103
q0 79 53 124.5t133 45.5q39 0 86 -10q-1 57 -83 57q-60 0 -117 -27zM453 291h86q0 65 -36 65t-50 -65zM273 156q0 17 -11.5 26t-29.5 9q-20 0 -35 -13.5t-15 -33.5q0 -35 41 -35q22 0 36 13t14 34z" />
    <glyph glyph-name="uni04D6" unicode="&#x4d6;" horiz-adv-x="405" 
d="M430 667l-20 -157h-152l-12 -97h137l-19 -151h-136l-13 -102h152l-19 -160h-330l82 667h330zM342 874l125 -37q-17 -67 -72 -99q-45 -27 -121 -27q-75 0 -118 26q-56 34 -73 99l127 38q4 -26 20 -41q17 -15 47 -15t47 17q14 16 18 39z" />
    <glyph glyph-name="uni04D7" unicode="&#x4d7;" horiz-adv-x="474" 
d="M266 157h166q-26 -80 -84 -123.5t-141 -43.5q-89 0 -136.5 51t-47.5 140q0 116 68 205.5t180 89.5q87 0 133.5 -55.5t46.5 -144.5q0 -27 -8 -79h-250q-1 -6 -1 -19q0 -53 32 -53q31 0 42 32zM207 290h79q0 2 0.5 6t0.5 6q0 47 -34 47q-20 0 -31.5 -18t-14.5 -41zM335 677
l111 -26q-19 -67 -72 -102q-39 -25 -100 -25q-65 0 -103 27q-50 34 -60 100l118 26q-2 -27 12 -42q12 -13 34 -13q25 0 38 13q16 14 22 42z" />
    <glyph glyph-name="uni04D8" unicode="&#x4d8;" horiz-adv-x="554" 
d="M47 385h310q2 88 -18 115q-14 18 -38 18t-38 -14q-19 -17 -30 -54l-168 55q37 80 99 126q66 48 151 48q97 0 158 -61q69 -71 69 -208q0 -97 -30.5 -195t-94.5 -161q-38 -38 -76.5 -52t-92.5 -14q-90 0 -140 52q-70 72 -70 226q0 42 6 92zM341 253h-129q-6 -69 16 -91
q11 -13 34 -13q21 0 38 15q29 26 41 89z" />
    <glyph glyph-name="afii10846" unicode="&#x4d9;" horiz-adv-x="482" 
d="M201 308l-154 38q27 56 78 91q58 40 138 40q88 0 138 -48q57 -54 57 -155q0 -66 -22 -126.5t-62 -99.5q-60 -58 -161 -58q-87 0 -134 51q-55 58 -55 164q0 22 7 64h254q6 43 -11 61q-10 11 -28 11q-15 0 -27 -8q-13 -9 -18 -25zM272 176h-81q-2 -36 11 -50q9 -9 24 -9
q14 0 24 10q16 16 22 49z" />
    <glyph glyph-name="uni04DA" unicode="&#x4da;" horiz-adv-x="554" 
d="M47 385h310q2 88 -18 115q-14 18 -38 18t-38 -14q-19 -17 -30 -54l-168 55q37 80 99 126q66 48 151 48q97 0 158 -61q69 -71 69 -208q0 -97 -30.5 -195t-94.5 -161q-38 -38 -76.5 -52t-92.5 -14q-90 0 -140 52q-70 72 -70 226q0 42 6 92zM341 253h-129q-6 -69 16 -91
q11 -13 34 -13q21 0 38 15q29 26 41 89zM490 800q0 -31 -24.5 -55.5t-56.5 -24.5q-27 0 -45 18.5t-18 45.5q0 32 24 56t56 24q28 0 46 -18t18 -46zM300 792q0 -8 -5 -20q-9 -23 -30 -37.5t-45 -14.5q-28 0 -46 18t-18 46q0 32 24.5 56t56.5 24q31 0 47 -20t16 -52z" />
    <glyph glyph-name="uni04DB" unicode="&#x4db;" horiz-adv-x="482" 
d="M201 308l-154 38q27 56 78 91q58 40 138 40q88 0 138 -48q57 -54 57 -155q0 -66 -22 -126.5t-62 -99.5q-60 -58 -161 -58q-87 0 -134 51q-55 58 -55 164q0 22 7 64h254q6 43 -11 61q-10 11 -28 11q-15 0 -27 -8q-13 -9 -18 -25zM272 176h-81q-2 -36 11 -50q9 -9 24 -9
q14 0 24 10q16 16 22 49zM438 610q0 -31 -24.5 -55.5t-56.5 -24.5q-27 0 -45 18.5t-18 45.5q0 32 24 56t56 24q28 0 46 -18t18 -46zM248 602q0 -8 -5 -20q-9 -23 -30 -37.5t-45 -14.5q-28 0 -46 18t-18 46q0 32 24.5 56t56.5 24q31 0 47 -20t16 -52z" />
    <glyph glyph-name="uni04DC" unicode="&#x4dc;" horiz-adv-x="777" 
d="M709 0h-182l-61 321l-34 -321h-170l45 321l-140 -321h-182l177 349l-98 318h180l69 -300l31 300h170l-42 -300l142 300h178l-176 -324zM601 800q0 -31 -24.5 -55.5t-56.5 -24.5q-27 0 -45 18.5t-18 45.5q0 32 24 56t56 24q28 0 46 -18t18 -46zM411 792q0 -8 -5 -20
q-9 -23 -30 -37.5t-45 -14.5q-28 0 -46 18t-18 46q0 32 24.5 56t56.5 24q31 0 47 -20t16 -52z" />
    <glyph glyph-name="uni04DD" unicode="&#x4dd;" horiz-adv-x="723" 
d="M686 0h-187l-26 96q-18 67 -25 120l-27 -216h-168l27 216q-29 -70 -55 -120l-50 -96h-192l145 239l-79 228h178l30 -104q17 -60 26 -118l27 222h168l-27 -222q18 44 56 118l54 104h180l-137 -228zM568 610q0 -31 -24.5 -55.5t-56.5 -24.5q-27 0 -45 18.5t-18 45.5
q0 32 24 56t56 24q28 0 46 -18t18 -46zM378 602q0 -8 -5 -20q-9 -23 -30 -37.5t-45 -14.5q-28 0 -46 18t-18 46q0 32 24.5 56t56.5 24q31 0 47 -20t16 -52z" />
    <glyph glyph-name="uni04DE" unicode="&#x4de;" horiz-adv-x="452" 
d="M70 453l24 190q62 36 139 36q107 0 163 -58q46 -47 46 -123q0 -73 -40 -114q-37 -37 -96 -45q52 0 86 -34t34 -92q0 -44 -18.5 -88.5t-50.5 -74.5q-66 -62 -180 -62q-75 0 -157 43l25 201q21 -36 49 -57q30 -23 69 -23q35 0 53 17q17 15 17 42t-24 43q-19 12 -58 12h-26
l17 148h24q44 0 65 11q26 14 26 42q0 21 -18 35q-19 15 -55 15q-32 0 -61 -18q-23 -14 -53 -46zM423 800q0 -31 -24.5 -55.5t-56.5 -24.5q-27 0 -45 18.5t-18 45.5q0 32 24 56t56 24q28 0 46 -18t18 -46zM233 792q0 -8 -5 -20q-9 -23 -30 -37.5t-45 -14.5q-28 0 -46 18
t-18 46q0 32 24.5 56t56.5 24q31 0 47 -20t16 -52z" />
    <glyph glyph-name="uni04DF" unicode="&#x4df;" horiz-adv-x="435" 
d="M108 303l-55 127q41 21 74 32q48 15 101 15q99 0 147 -48q34 -34 34 -85q0 -48 -29 -75q-28 -27 -74 -30q42 -3 68 -28q25 -23 25 -65q0 -55 -41 -99q-55 -57 -157 -57q-62 0 -110 18q-40 15 -81 45l82 121q12 -23 37 -38q22 -14 49 -14q16 0 32 8q12 8 12 23
q0 19 -20 26q-15 5 -49 5h-20l13 109h30q26 0 41 4q22 7 22 25q0 12 -13 20q-11 7 -33 7q-25 0 -46 -12q-12 -7 -39 -34zM413 610q0 -31 -24.5 -55.5t-56.5 -24.5q-27 0 -45 18.5t-18 45.5q0 32 24 56t56 24q28 0 46 -18t18 -46zM223 602q0 -8 -5 -20q-9 -23 -30 -37.5
t-45 -14.5q-28 0 -46 18t-18 46q0 32 24.5 56t56.5 24q31 0 47 -20t16 -52z" />
    <glyph glyph-name="uni04E2" unicode="&#x4e2;" horiz-adv-x="557" 
d="M18 0l82 667h170l-23 -185q-14 -118 -47 -225q45 105 92 195l115 215h158l-82 -667h-170l22 178q12 102 37 214q-27 -79 -87 -190l-109 -202h-158zM519 837l-12 -94h-335l12 94h335z" />
    <glyph glyph-name="uni04E3" unicode="&#x4e3;" horiz-adv-x="504" 
d="M68 467h166l-16 -131q-7 -59 -22 -123q24 53 46 90l94 164h158l-57 -467h-166l15 125q4 35 22 129q-23 -55 -46 -94l-93 -160h-158zM464 647l-12 -94h-335l12 94h335z" />
    <glyph glyph-name="uni04E4" unicode="&#x4e4;" horiz-adv-x="557" 
d="M18 0l82 667h170l-23 -185q-14 -118 -47 -225q45 105 92 195l115 215h158l-82 -667h-170l22 178q12 102 37 214q-27 -79 -87 -190l-109 -202h-158zM513 800q0 -31 -24.5 -55.5t-56.5 -24.5q-27 0 -45 18.5t-18 45.5q0 32 24 56t56 24q28 0 46 -18t18 -46zM323 792
q0 -8 -5 -20q-9 -23 -30 -37.5t-45 -14.5q-28 0 -46 18t-18 46q0 32 24.5 56t56.5 24q31 0 47 -20t16 -52z" />
    <glyph glyph-name="uni04E5" unicode="&#x4e5;" horiz-adv-x="504" 
d="M68 467h166l-16 -131q-7 -59 -22 -123q24 53 46 90l94 164h158l-57 -467h-166l15 125q4 35 22 129q-23 -55 -46 -94l-93 -160h-158zM465 610q0 -31 -24.5 -55.5t-56.5 -24.5q-27 0 -45 18.5t-18 45.5q0 32 24 56t56 24q28 0 46 -18t18 -46zM275 602q0 -8 -5 -20
q-9 -23 -30 -37.5t-45 -14.5q-28 0 -46 18t-18 46q0 32 24.5 56t56.5 24q31 0 47 -20t16 -52z" />
    <glyph glyph-name="uni04E6" unicode="&#x4e6;" horiz-adv-x="558" 
d="M337 679q86 0 140 -57q69 -72 69 -208q0 -96 -30.5 -195t-94.5 -161q-71 -70 -167 -70q-87 0 -146 62q-70 72 -70 213q0 116 34.5 203t88.5 139q75 74 176 74zM315 511q-17 0 -35 -19q-25 -27 -41 -91q-17 -67 -17 -139t22 -94q11 -11 26 -11q19 0 33 16q28 31 44 99
q15 61 15 134q0 77 -22 96q-10 9 -25 9zM518 800q0 -31 -24.5 -55.5t-56.5 -24.5q-27 0 -45 18.5t-18 45.5q0 32 24 56t56 24q28 0 46 -18t18 -46zM328 792q0 -8 -5 -20q-9 -23 -30 -37.5t-45 -14.5q-28 0 -46 18t-18 46q0 32 24.5 56t56.5 24q31 0 47 -20t16 -52z" />
    <glyph glyph-name="uni04E7" unicode="&#x4e7;" horiz-adv-x="480" 
d="M270 477q82 0 131 -47q55 -53 55 -152q0 -66 -22 -126.5t-62 -99.5q-64 -62 -164 -62q-79 0 -127 44q-57 52 -57 156q0 137 85 222q67 65 161 65zM254 346q-13 0 -24 -11q-18 -18 -29 -60.5t-11 -79.5t11 -57q10 -17 26 -17q15 0 25 12q19 19 29 61t10 79q0 35 -11 56
q-8 17 -26 17zM453 610q0 -31 -24.5 -55.5t-56.5 -24.5q-27 0 -45 18.5t-18 45.5q0 32 24 56t56 24q28 0 46 -18t18 -46zM263 602q0 -8 -5 -20q-9 -23 -30 -37.5t-45 -14.5q-28 0 -46 18t-18 46q0 32 24.5 56t56.5 24q31 0 47 -20t16 -52z" />
    <glyph glyph-name="uni04E8" unicode="&#x4e8;" horiz-adv-x="558" 
d="M337 679q86 0 140 -57q69 -72 69 -208q0 -96 -30.5 -195t-94.5 -161q-71 -70 -167 -70q-87 0 -146 62q-70 72 -70 213q0 116 34.5 203t88.5 139q75 74 176 74zM240 407h122q3 25 -2.5 55.5t-19.5 43.5q-9 9 -25 9q-17 0 -35 -19q-29 -32 -40 -89zM348 276h-126
q0 -90 23 -113q10 -10 25 -10q16 0 32 14q16 16 29 47t17 62z" />
    <glyph glyph-name="uni04E9" unicode="&#x4e9;" horiz-adv-x="480" 
d="M270 477q82 0 131 -47q55 -53 55 -152q0 -66 -22 -126.5t-62 -99.5q-64 -62 -164 -62q-79 0 -127 44q-57 52 -57 156q0 137 85 222q67 65 161 65zM201 291h92q-2 31 -10 45q-10 18 -30 18q-14 0 -25 -10q-19 -16 -27 -53zM282 185h-94q0 -37 11 -55q10 -17 28 -17
q15 0 28 11q22 22 27 61z" />
    <glyph glyph-name="uni04EA" unicode="&#x4ea;" horiz-adv-x="558" 
d="M337 679q86 0 140 -57q69 -72 69 -208q0 -96 -30.5 -195t-94.5 -161q-71 -70 -167 -70q-87 0 -146 62q-70 72 -70 213q0 116 34.5 203t88.5 139q75 74 176 74zM240 407h122q3 25 -2.5 55.5t-19.5 43.5q-9 9 -25 9q-17 0 -35 -19q-29 -32 -40 -89zM348 276h-126
q0 -90 23 -113q10 -10 25 -10q16 0 32 14q16 16 29 47t17 62zM518 800q0 -31 -24.5 -55.5t-56.5 -24.5q-27 0 -45 18.5t-18 45.5q0 32 24 56t56 24q28 0 46 -18t18 -46zM328 792q0 -8 -5 -20q-9 -23 -30 -37.5t-45 -14.5q-28 0 -46 18t-18 46q0 32 24.5 56t56.5 24
q31 0 47 -20t16 -52z" />
    <glyph glyph-name="uni04EB" unicode="&#x4eb;" horiz-adv-x="480" 
d="M270 477q82 0 131 -47q55 -53 55 -152q0 -66 -22 -126.5t-62 -99.5q-64 -62 -164 -62q-79 0 -127 44q-57 52 -57 156q0 137 85 222q67 65 161 65zM201 291h92q-2 31 -10 45q-10 18 -30 18q-14 0 -25 -10q-19 -16 -27 -53zM282 185h-94q0 -37 11 -55q10 -17 28 -17
q15 0 28 11q22 22 27 61zM453 610q0 -31 -24.5 -55.5t-56.5 -24.5q-27 0 -45 18.5t-18 45.5q0 32 24 56t56 24q28 0 46 -18t18 -46zM263 602q0 -8 -5 -20q-9 -23 -30 -37.5t-45 -14.5q-28 0 -46 18t-18 46q0 32 24.5 56t56.5 24q31 0 47 -20t16 -52z" />
    <glyph glyph-name="uni04EE" unicode="&#x4ee;" 
d="M54 667h184l23 -109q15 -70 17 -141q22 78 49 146l41 104h186l-318 -667h-177l108 230zM484 837l-12 -94h-335l12 94h335z" />
    <glyph glyph-name="uni04EF" unicode="&#x4ef;" horiz-adv-x="458" 
d="M487 467l-301 -682h-176l110 234l-82 448h172q2 -18 7 -57t7.5 -61.5t5 -55.5t2.5 -61q0 -5 -0.5 -15t-0.5 -15q36 133 48 164l38 101h170zM434 647l-12 -94h-335l12 94h335z" />
    <glyph glyph-name="uni04F0" unicode="&#x4f0;" 
d="M54 667h184l23 -109q15 -70 17 -141q22 78 49 146l41 104h186l-318 -667h-177l108 230zM483 800q0 -31 -24.5 -55.5t-56.5 -24.5q-27 0 -45 18.5t-18 45.5q0 32 24 56t56 24q28 0 46 -18t18 -46zM293 792q0 -8 -5 -20q-9 -23 -30 -37.5t-45 -14.5q-28 0 -46 18t-18 46
q0 32 24.5 56t56.5 24q31 0 47 -20t16 -52z" />
    <glyph glyph-name="uni04F1" unicode="&#x4f1;" horiz-adv-x="458" 
d="M487 467l-301 -682h-176l110 234l-82 448h172q2 -18 7 -57t7.5 -61.5t5 -55.5t2.5 -61q0 -5 -0.5 -15t-0.5 -15q36 133 48 164l38 101h170zM438 610q0 -31 -24.5 -55.5t-56.5 -24.5q-27 0 -45 18.5t-18 45.5q0 32 24 56t56 24q28 0 46 -18t18 -46zM248 602q0 -8 -5 -20
q-9 -23 -30 -37.5t-45 -14.5q-28 0 -46 18t-18 46q0 32 24.5 56t56.5 24q31 0 47 -20t16 -52z" />
    <glyph glyph-name="uni04F2" unicode="&#x4f2;" 
d="M54 667h184l23 -109q15 -70 17 -141q22 78 49 146l41 104h186l-318 -667h-177l108 230zM516 868l-105 -148h-88l65 148h128zM351 868l-104 -148h-88l65 148h127z" />
    <glyph glyph-name="uni04F3" unicode="&#x4f3;" horiz-adv-x="458" 
d="M487 467l-301 -682h-176l110 234l-82 448h172q2 -18 7 -57t7.5 -61.5t5 -55.5t2.5 -61q0 -5 -0.5 -15t-0.5 -15q36 133 48 164l38 101h170zM471 678l-105 -148h-88l65 148h128zM306 678l-104 -148h-88l65 148h127z" />
    <glyph glyph-name="uni04F4" unicode="&#x4f4;" horiz-adv-x="521" 
d="M270 0l33 269q-39 -11 -79 -11q-71 0 -113 33q-51 40 -51 112q0 29 6 74l24 190h176l-22 -178q-3 -27 -3 -30q0 -21 13 -32q12 -11 35 -11q18 0 33 7l30 244h177l-82 -667h-177zM493 800q0 -31 -24.5 -55.5t-56.5 -24.5q-27 0 -45 18.5t-18 45.5q0 32 24 56t56 24
q28 0 46 -18t18 -46zM303 792q0 -8 -5 -20q-9 -23 -30 -37.5t-45 -14.5q-28 0 -46 18t-18 46q0 32 24.5 56t56.5 24q31 0 47 -20t16 -52z" />
    <glyph glyph-name="uni04F5" unicode="&#x4f5;" horiz-adv-x="476" 
d="M237 0l20 161q-34 -10 -71 -10q-73 0 -112 37q-34 34 -34 91q0 27 5 65l15 123h170l-15 -122q-2 -14 -2 -26q0 -16 9 -23q8 -7 24 -7q15 0 27 8l21 170h172l-57 -467h-172zM443 610q0 -31 -24.5 -55.5t-56.5 -24.5q-27 0 -45 18.5t-18 45.5q0 32 24 56t56 24q28 0 46 -18
t18 -46zM253 602q0 -8 -5 -20q-9 -23 -30 -37.5t-45 -14.5q-28 0 -46 18t-18 46q0 32 24.5 56t56.5 24q31 0 47 -20t16 -52z" />
    <glyph glyph-name="uni04F8" unicode="&#x4f8;" horiz-adv-x="751" 
d="M674 0h-177l79 667h183zM220 0h-202l82 667h177l-30 -245h8q118 0 174 -55q52 -50 52 -131q0 -105 -65 -170q-67 -66 -196 -66zM229 278l-16 -133q44 -6 73 24q18 18 18 51q0 30 -20 46q-22 17 -55 12zM598 800q0 -31 -24.5 -55.5t-56.5 -24.5q-27 0 -45 18.5t-18 45.5
q0 32 24 56t56 24q28 0 46 -18t18 -46zM408 792q0 -8 -5 -20q-9 -23 -30 -37.5t-45 -14.5q-28 0 -46 18t-18 46q0 32 24.5 56t56.5 24q31 0 47 -20t16 -52z" />
    <glyph glyph-name="uni04F9" unicode="&#x4f9;" horiz-adv-x="694" 
d="M626 0h-172l57 467h172zM219 301h49q87 0 131 -36q43 -36 43 -100q0 -75 -45 -119q-48 -46 -139 -46h-248l57 467h172zM196 110h5q36 0 50 7q21 11 21 38q0 14 -9 24q-13 14 -51 14h-6zM558 610q0 -31 -24.5 -55.5t-56.5 -24.5q-27 0 -45 18.5t-18 45.5q0 32 24 56t56 24
q28 0 46 -18t18 -46zM368 602q0 -8 -5 -20q-9 -23 -30 -37.5t-45 -14.5q-28 0 -46 18t-18 46q0 32 24.5 56t56.5 24q31 0 47 -20t16 -52z" />
    <glyph glyph-name="uni1E9E" unicode="&#x1e9e;" horiz-adv-x="521" 
d="M290 418l45 59q2 10 2 20q0 18 -10 28t-25 10q-21 0 -33 -15q-13 -14 -16 -46l-58 -474h-177l54 439q15 121 80 179q67 61 165 61q86 0 135 -41q64 -54 58 -148l-91 -99q34 -8 56 -40t22 -97q0 -124 -91 -199q-67 -55 -167 -55l18 145q21 1 35 21q20 27 20 78
q0 27 -10 41t-26 15z" />
    <glyph glyph-name="uni2010" unicode="&#x2010;" horiz-adv-x="317" 
d="M262 186h-217l16 134h217z" />
    <glyph glyph-name="uni2011" unicode="&#x2011;" horiz-adv-x="317" 
d="M262 186h-217l16 134h217z" />
    <glyph glyph-name="figuredash" unicode="&#x2012;" horiz-adv-x="574" 
d="M500 279h-434l14 120h434z" />
    <glyph glyph-name="endash" unicode="&#x2013;" horiz-adv-x="574" 
d="M500 193h-434l14 120h434z" />
    <glyph glyph-name="emdash" unicode="&#x2014;" horiz-adv-x="820" 
d="M746 193h-680l14 120h680z" />
    <glyph glyph-name="afii00208" unicode="&#x2015;" horiz-adv-x="820" 
d="M746 193h-680l14 120h680z" />
    <glyph glyph-name="quoteleft" unicode="&#x2018;" horiz-adv-x="320" 
d="M341 721l-120 -321h-174l154 321h140z" />
    <glyph glyph-name="quoteright" unicode="&#x2019;" horiz-adv-x="320" 
d="M341 721l-154 -321h-140l120 321h174z" />
    <glyph glyph-name="quotesinglbase" unicode="&#x201a;" horiz-adv-x="320" 
d="M279 159l-154 -320h-140l120 320h174z" />
    <glyph glyph-name="quotedblleft" unicode="&#x201c;" horiz-adv-x="560" 
d="M581 721l-120 -321h-174l154 321h140zM348 721l-120 -321h-174l154 321h140z" />
    <glyph glyph-name="quotedblright" unicode="&#x201d;" horiz-adv-x="560" 
d="M581 721l-154 -321h-140l120 321h174zM348 721l-154 -321h-140l120 321h174z" />
    <glyph glyph-name="quotedblbase" unicode="&#x201e;" horiz-adv-x="553" 
d="M512 159l-154 -320h-140l120 320h174zM279 159l-154 -320h-140l120 320h174z" />
    <glyph glyph-name="dagger" unicode="&#x2020;" horiz-adv-x="525" 
d="M541 566l-18 -140h-157l-78 -635h-158l78 635h-157l17 140h157l21 163h157l-20 -163h158z" />
    <glyph glyph-name="daggerdbl" unicode="&#x2021;" horiz-adv-x="525" 
d="M540 565l-16 -138h-158l-24 -199h157l-17 -137h-157l-37 -300h-158l37 300h-158l17 137h158l24 199h-157l17 138h157l20 164h158l-20 -164h157z" />
    <glyph glyph-name="bullet" unicode="&#x2022;" horiz-adv-x="1000" 
d="M652 340q0 -57 -40.5 -98.5t-97.5 -41.5t-97 41.5t-40 98.5t40.5 98.5t97.5 41.5t97 -41.5t40 -98.5z" />
    <glyph glyph-name="ellipsis" unicode="&#x2026;" horiz-adv-x="985" 
d="M905 102q0 -44 -34.5 -78t-78.5 -34q-38 0 -63 26t-25 64q0 44 33.5 78t77.5 34q39 0 64.5 -25.5t25.5 -64.5zM576 102q0 -44 -34 -78t-78 -34q-38 0 -63.5 26t-25.5 64q0 44 34 78t78 34q38 0 63.5 -26t25.5 -64zM248 102q0 -44 -34.5 -78t-78.5 -34q-38 0 -63 26
t-25 64q0 44 34 78t78 34q38 0 63.5 -26t25.5 -64z" />
    <glyph glyph-name="perthousand" unicode="&#x2030;" horiz-adv-x="1057" 
d="M335 531q0 -78 -44.5 -136t-115.5 -58q-61 0 -94.5 38t-33.5 105q0 85 44 142t122 57q61 0 91.5 -40t30.5 -108zM219 533q0 48 -20 48t-28 -32t-8 -66q0 -49 21 -49q19 0 27 33t8 66zM599 667l-370 -667h-92l372 667h90zM692 189q0 -78 -44.5 -136t-115.5 -58
q-61 0 -94.5 38t-33.5 105q0 85 44 142t122 57q61 0 91.5 -40t30.5 -108zM576 191q0 48 -20 48t-28 -32t-8 -66q0 -49 21 -49q19 0 27 33t8 66zM1024 189q0 -78 -44.5 -136t-115.5 -58q-61 0 -94.5 38t-33.5 105q0 85 44 142t122 57q61 0 91.5 -40t30.5 -108zM908 191
q0 48 -20 48t-28 -32t-8 -66q0 -49 21 -49q19 0 27 33t8 66z" />
    <glyph glyph-name="guilsinglleft" unicode="&#x2039;" horiz-adv-x="285" 
d="M237 63l-85 -50l-124 226l179 226l71 -66l-134 -168z" />
    <glyph glyph-name="guilsinglright" unicode="&#x203a;" horiz-adv-x="285" 
d="M11 79l133 168l-92 168l85 50l123 -226l-178 -226z" />
    <glyph glyph-name="fraction" unicode="&#x2044;" horiz-adv-x="64" 
d="M276 667l-370 -667h-92l372 667h90z" />
    <glyph glyph-name="Euro" unicode="&#x20ac;" horiz-adv-x="532" 
d="M498 205l-35 -193q-59 -24 -110 -24q-105 0 -164 64t-70 171h-105l41 78h63q1 21 7 58h-94l43 78h71q39 112 120 177t194 65q48 0 87 -17l-24 -190q-34 40 -78 40q-71 0 -109 -75h173l-49 -78h-150l-4 -25q-2 -22 -2 -33h132l-41 -78h-81q22 -61 85 -61q45 0 100 43z" />
    <glyph glyph-name="uni20B4" unicode="&#x20b4;" horiz-adv-x="532" 
d="M142 505l17 140q85 34 153 34q79 0 122 -41q40 -38 40 -98q0 -48 -31 -85h72l-12 -94h-121l-56 -66h169l-11 -93h-220q-10 -15 -10 -36q0 -19 13 -29q15 -11 49 -11q62 0 112 30l-17 -140q-73 -28 -156 -28q-85 0 -131 40q-44 38 -44 97q0 39 26 77h-62l11 93h113l56 66
h-161l12 94h214q15 17 15 37q0 27 -15 40q-16 12 -40 12q-52 0 -107 -39z" />
    <glyph glyph-name="uni20B6" unicode="&#x20b6;" horiz-adv-x="532" 
d="M106 352l39 315h172q237 0 240 -183q0 -53 -19 -102.5t-54 -77.5q-44 -38 -93 -50t-122 -12l-8 -66h140l-11 -93h-140l-10 -83h-177l12 83h-71l11 93h71l7 66h-71l13 110h71zM286 352h21q31 0 50 28t19 67q0 32 -12 53t-35 21h-23z" />
    <glyph glyph-name="uni20B6" unicode="&#x20cf;" horiz-adv-x="532" 
d="M106 352l39 315h172q237 0 240 -183q0 -53 -19 -102.5t-54 -77.5q-44 -38 -93 -50t-122 -12l-8 -66h140l-11 -93h-140l-10 -83h-177l12 83h-71l11 93h71l7 66h-71l13 110h71zM286 352h21q31 0 50 28t19 67q0 32 -12 53t-35 21h-23z" />
    <glyph glyph-name="uni20B6" unicode="&#x20ce;" horiz-adv-x="532" 
d="M106 352l39 315h172q237 0 240 -183q0 -53 -19 -102.5t-54 -77.5q-44 -38 -93 -50t-122 -12l-8 -66h140l-11 -93h-140l-10 -83h-177l12 83h-71l11 93h71l7 66h-71l13 110h71zM286 352h21q31 0 50 28t19 67q0 32 -12 53t-35 21h-23z" />
    <glyph glyph-name="uni20B6" unicode="&#x20cd;" horiz-adv-x="532" 
d="M106 352l39 315h172q237 0 240 -183q0 -53 -19 -102.5t-54 -77.5q-44 -38 -93 -50t-122 -12l-8 -66h140l-11 -93h-140l-10 -83h-177l12 83h-71l11 93h71l7 66h-71l13 110h71zM286 352h21q31 0 50 28t19 67q0 32 -12 53t-35 21h-23z" />
    <glyph glyph-name="uni20B6" unicode="&#x20cc;" horiz-adv-x="532" 
d="M106 352l39 315h172q237 0 240 -183q0 -53 -19 -102.5t-54 -77.5q-44 -38 -93 -50t-122 -12l-8 -66h140l-11 -93h-140l-10 -83h-177l12 83h-71l11 93h71l7 66h-71l13 110h71zM286 352h21q31 0 50 28t19 67q0 32 -12 53t-35 21h-23z" />
    <glyph glyph-name="uni20B6" unicode="&#x20cb;" horiz-adv-x="532" 
d="M106 352l39 315h172q237 0 240 -183q0 -53 -19 -102.5t-54 -77.5q-44 -38 -93 -50t-122 -12l-8 -66h140l-11 -93h-140l-10 -83h-177l12 83h-71l11 93h71l7 66h-71l13 110h71zM286 352h21q31 0 50 28t19 67q0 32 -12 53t-35 21h-23z" />
    <glyph glyph-name="uni20B6" unicode="&#x20ca;" horiz-adv-x="532" 
d="M106 352l39 315h172q237 0 240 -183q0 -53 -19 -102.5t-54 -77.5q-44 -38 -93 -50t-122 -12l-8 -66h140l-11 -93h-140l-10 -83h-177l12 83h-71l11 93h71l7 66h-71l13 110h71zM286 352h21q31 0 50 28t19 67q0 32 -12 53t-35 21h-23z" />
    <glyph glyph-name="uni20B6" unicode="&#x20c9;" horiz-adv-x="532" 
d="M106 352l39 315h172q237 0 240 -183q0 -53 -19 -102.5t-54 -77.5q-44 -38 -93 -50t-122 -12l-8 -66h140l-11 -93h-140l-10 -83h-177l12 83h-71l11 93h71l7 66h-71l13 110h71zM286 352h21q31 0 50 28t19 67q0 32 -12 53t-35 21h-23z" />
    <glyph glyph-name="uni20B6" unicode="&#x20c8;" horiz-adv-x="532" 
d="M106 352l39 315h172q237 0 240 -183q0 -53 -19 -102.5t-54 -77.5q-44 -38 -93 -50t-122 -12l-8 -66h140l-11 -93h-140l-10 -83h-177l12 83h-71l11 93h71l7 66h-71l13 110h71zM286 352h21q31 0 50 28t19 67q0 32 -12 53t-35 21h-23z" />
    <glyph glyph-name="uni20B6" unicode="&#x20c7;" horiz-adv-x="532" 
d="M106 352l39 315h172q237 0 240 -183q0 -53 -19 -102.5t-54 -77.5q-44 -38 -93 -50t-122 -12l-8 -66h140l-11 -93h-140l-10 -83h-177l12 83h-71l11 93h71l7 66h-71l13 110h71zM286 352h21q31 0 50 28t19 67q0 32 -12 53t-35 21h-23z" />
    <glyph glyph-name="uni20B6" unicode="&#x20c6;" horiz-adv-x="532" 
d="M106 352l39 315h172q237 0 240 -183q0 -53 -19 -102.5t-54 -77.5q-44 -38 -93 -50t-122 -12l-8 -66h140l-11 -93h-140l-10 -83h-177l12 83h-71l11 93h71l7 66h-71l13 110h71zM286 352h21q31 0 50 28t19 67q0 32 -12 53t-35 21h-23z" />
    <glyph glyph-name="uni20B6" unicode="&#x20c5;" horiz-adv-x="532" 
d="M106 352l39 315h172q237 0 240 -183q0 -53 -19 -102.5t-54 -77.5q-44 -38 -93 -50t-122 -12l-8 -66h140l-11 -93h-140l-10 -83h-177l12 83h-71l11 93h71l7 66h-71l13 110h71zM286 352h21q31 0 50 28t19 67q0 32 -12 53t-35 21h-23z" />
    <glyph glyph-name="uni20B6" unicode="&#x20c4;" horiz-adv-x="532" 
d="M106 352l39 315h172q237 0 240 -183q0 -53 -19 -102.5t-54 -77.5q-44 -38 -93 -50t-122 -12l-8 -66h140l-11 -93h-140l-10 -83h-177l12 83h-71l11 93h71l7 66h-71l13 110h71zM286 352h21q31 0 50 28t19 67q0 32 -12 53t-35 21h-23z" />
    <glyph glyph-name="uni20B6" unicode="&#x20c3;" horiz-adv-x="532" 
d="M106 352l39 315h172q237 0 240 -183q0 -53 -19 -102.5t-54 -77.5q-44 -38 -93 -50t-122 -12l-8 -66h140l-11 -93h-140l-10 -83h-177l12 83h-71l11 93h71l7 66h-71l13 110h71zM286 352h21q31 0 50 28t19 67q0 32 -12 53t-35 21h-23z" />
    <glyph glyph-name="uni20B6" unicode="&#x20c2;" horiz-adv-x="532" 
d="M106 352l39 315h172q237 0 240 -183q0 -53 -19 -102.5t-54 -77.5q-44 -38 -93 -50t-122 -12l-8 -66h140l-11 -93h-140l-10 -83h-177l12 83h-71l11 93h71l7 66h-71l13 110h71zM286 352h21q31 0 50 28t19 67q0 32 -12 53t-35 21h-23z" />
    <glyph glyph-name="uni20B6" unicode="&#x20c1;" horiz-adv-x="532" 
d="M106 352l39 315h172q237 0 240 -183q0 -53 -19 -102.5t-54 -77.5q-44 -38 -93 -50t-122 -12l-8 -66h140l-11 -93h-140l-10 -83h-177l12 83h-71l11 93h71l7 66h-71l13 110h71zM286 352h21q31 0 50 28t19 67q0 32 -12 53t-35 21h-23z" />
    <glyph glyph-name="uni20B6" unicode="&#x20c0;" horiz-adv-x="532" 
d="M106 352l39 315h172q237 0 240 -183q0 -53 -19 -102.5t-54 -77.5q-44 -38 -93 -50t-122 -12l-8 -66h140l-11 -93h-140l-10 -83h-177l12 83h-71l11 93h71l7 66h-71l13 110h71zM286 352h21q31 0 50 28t19 67q0 32 -12 53t-35 21h-23z" />
    <glyph glyph-name="uni20B6" unicode="&#x20bf;" horiz-adv-x="532" 
d="M106 352l39 315h172q237 0 240 -183q0 -53 -19 -102.5t-54 -77.5q-44 -38 -93 -50t-122 -12l-8 -66h140l-11 -93h-140l-10 -83h-177l12 83h-71l11 93h71l7 66h-71l13 110h71zM286 352h21q31 0 50 28t19 67q0 32 -12 53t-35 21h-23z" />
    <glyph glyph-name="uni20B6" unicode="&#x20be;" horiz-adv-x="532" 
d="M106 352l39 315h172q237 0 240 -183q0 -53 -19 -102.5t-54 -77.5q-44 -38 -93 -50t-122 -12l-8 -66h140l-11 -93h-140l-10 -83h-177l12 83h-71l11 93h71l7 66h-71l13 110h71zM286 352h21q31 0 50 28t19 67q0 32 -12 53t-35 21h-23z" />
    <glyph glyph-name="uni20B6" unicode="&#x20bd;" horiz-adv-x="532" 
d="M106 352l39 315h172q237 0 240 -183q0 -53 -19 -102.5t-54 -77.5q-44 -38 -93 -50t-122 -12l-8 -66h140l-11 -93h-140l-10 -83h-177l12 83h-71l11 93h71l7 66h-71l13 110h71zM286 352h21q31 0 50 28t19 67q0 32 -12 53t-35 21h-23z" />
    <glyph glyph-name="uni20B6" unicode="&#x20bc;" horiz-adv-x="532" 
d="M106 352l39 315h172q237 0 240 -183q0 -53 -19 -102.5t-54 -77.5q-44 -38 -93 -50t-122 -12l-8 -66h140l-11 -93h-140l-10 -83h-177l12 83h-71l11 93h71l7 66h-71l13 110h71zM286 352h21q31 0 50 28t19 67q0 32 -12 53t-35 21h-23z" />
    <glyph glyph-name="uni20B6" unicode="&#x20bb;" horiz-adv-x="532" 
d="M106 352l39 315h172q237 0 240 -183q0 -53 -19 -102.5t-54 -77.5q-44 -38 -93 -50t-122 -12l-8 -66h140l-11 -93h-140l-10 -83h-177l12 83h-71l11 93h71l7 66h-71l13 110h71zM286 352h21q31 0 50 28t19 67q0 32 -12 53t-35 21h-23z" />
    <glyph glyph-name="uni20B6" unicode="&#x20ba;" horiz-adv-x="532" 
d="M106 352l39 315h172q237 0 240 -183q0 -53 -19 -102.5t-54 -77.5q-44 -38 -93 -50t-122 -12l-8 -66h140l-11 -93h-140l-10 -83h-177l12 83h-71l11 93h71l7 66h-71l13 110h71zM286 352h21q31 0 50 28t19 67q0 32 -12 53t-35 21h-23z" />
    <glyph glyph-name="uni20B6" unicode="&#x20b9;" horiz-adv-x="532" 
d="M106 352l39 315h172q237 0 240 -183q0 -53 -19 -102.5t-54 -77.5q-44 -38 -93 -50t-122 -12l-8 -66h140l-11 -93h-140l-10 -83h-177l12 83h-71l11 93h71l7 66h-71l13 110h71zM286 352h21q31 0 50 28t19 67q0 32 -12 53t-35 21h-23z" />
    <glyph glyph-name="uni20B6" unicode="&#x20b7;" horiz-adv-x="532" 
d="M106 352l39 315h172q237 0 240 -183q0 -53 -19 -102.5t-54 -77.5q-44 -38 -93 -50t-122 -12l-8 -66h140l-11 -93h-140l-10 -83h-177l12 83h-71l11 93h71l7 66h-71l13 110h71zM286 352h21q31 0 50 28t19 67q0 32 -12 53t-35 21h-23z" />
    <glyph glyph-name="uni20B8" unicode="&#x20b8;" horiz-adv-x="532" 
d="M494 507l-19 -150h-102l-44 -357h-177l44 357h-98l19 150h377zM499 557h-377l15 110h377z" />
    <glyph glyph-name="afii61352" unicode="&#x2116;" horiz-adv-x="871" 
d="M562 667l-82 -667h-169l-59 245q-19 81 -28 139q-1 -16 -2 -33.5t-2 -39t-2 -33.5q-2 -42 -7 -86.5t-13 -105.5t-11 -86h-169l82 667h169l60 -234q8 -32 20 -93.5t15 -74.5q2 193 10 252l19 150h169zM881 547q0 -82 -43 -138t-124 -56q-60 0 -91 36t-31 98q0 78 44.5 135
t120.5 57q59 0 91.5 -36t32.5 -96zM828 296l-12 -100h-249l12 100h249zM771 540q0 52 -26 52q-21 0 -31.5 -35.5t-10.5 -63.5q0 -52 25 -52q21 0 32 35.5t11 63.5z" />
    <glyph glyph-name="uni2117" unicode="&#x2117;" horiz-adv-x="760" 
d="M287 529h108q78 0 119 -39q36 -36 36 -95q0 -55 -30 -87q-34 -37 -114 -37h-10v-117h-109v375zM396 357h2q20 0 31 11q12 12 12 33q0 20 -12 30q-11 10 -30 10h-3v-84zM740 333q0 -141 -100 -244q-102 -104 -247 -104t-247 104q-100 102 -100 245q0 141 100 244
q102 104 247 104t247 -104q100 -102 100 -245zM393 609q-106 0 -183 -75q-84 -82 -84 -201t84 -201q77 -75 183 -75t183 75q84 82 84 201t-84 201q-77 75 -183 75z" />
    <glyph glyph-name="trademark" unicode="&#x2122;" horiz-adv-x="657" 
d="M660 667l-9 -380h-114l15 195l-62 -195h-89l-8 185l-34 -185h-117l92 380h134l8 -164l51 164h133zM279 667l-12 -96h-59l-35 -284h-110l35 284h-57l12 96h226z" />
    <glyph glyph-name="partialdiff" unicode="&#x2202;" 
d="M56 557l17 112q188 -20 288 -106q127 -109 127 -294q0 -120 -64.5 -199t-181.5 -79q-96 0 -164 66.5t-68 162.5q0 89 59 150.5t148 61.5q75 0 121 -45q-62 149 -282 170zM244 323h-10q-9 0 -30 -8q-28 -12 -44 -38.5t-16 -58.5q0 -46 28 -78t73 -32t73.5 32t28.5 77
t-29 75.5t-74 30.5z" />
    <glyph glyph-name="product" unicode="&#x220f;" horiz-adv-x="733" 
d="M696 -250h-294v117h80v766h-226v-766h79v-117h-292v117h83v766h-83v117h653v-117h-82v-766h82v-117z" />
    <glyph glyph-name="summation" unicode="&#x2211;" horiz-adv-x="667" 
d="M632 -250h-609v130l244 387l-244 353v130h600v-247h-117l-13 130h-323l249 -366l-249 -400h332l8 133h122v-250z" />
    <glyph glyph-name="minus" unicode="&#x2212;" 
d="M481 280h-434v120h434v-120z" />
    <glyph glyph-name="uni2215" unicode="&#x2215;" horiz-adv-x="526" 
d="M565 729l-489 -945h-120l489 945h120z" />
    <glyph glyph-name="uni2219" unicode="&#x2219;" horiz-adv-x="322" 
d="M291 353q0 -52 -39.5 -91t-91.5 -39q-44 0 -73.5 29.5t-29.5 73.5q0 52 39 91.5t91 39.5q45 0 74.5 -29.5t29.5 -74.5z" />
    <glyph glyph-name="radical" unicode="&#x221a;" horiz-adv-x="667" 
d="M706 710h-178l-165 -710h-173l-56 271h-95v116h202l21 -99q10 -72 10 -131h11q9 142 43 290l89 380h291v-117z" />
    <glyph glyph-name="infinity" unicode="&#x221e;" horiz-adv-x="667" 
d="M664 340q0 -71 -45.5 -117.5t-116.5 -46.5q-82 0 -152 79q-71 -79 -156 -79q-71 0 -117.5 46t-46.5 117t46 117t117 46q45 0 79.5 -20t71.5 -58q70 78 156 78q72 0 118 -45t46 -117zM530 340q0 19 -15.5 32.5t-34.5 13.5q-36 0 -69 -47q34 -46 69 -46q20 0 35 13.5
t15 33.5zM283 339q-34 46 -69 46q-20 0 -35 -13t-15 -33t15.5 -33t35.5 -13q32 0 68 46z" />
    <glyph glyph-name="integral" unicode="&#x222b;" 
d="M456 740l-23 -116q-30 10 -56 10q-58 0 -58 -71v-538q0 -65 -1 -98q-6 -177 -175 -177q-42 0 -94 10l24 116q30 -10 56 -10q20 0 32.5 7t17.5 22t6 26.5t1 33.5v44q0 89 -0.5 267.5t-0.5 267.5q0 66 12 108q16 54 61.5 81t105.5 27q32 0 92 -10z" />
    <glyph glyph-name="approxequal" unicode="&#x2248;" 
d="M433 528l73 -43q-30 -65 -64.5 -99.5t-94.5 -34.5q-30 0 -95 25t-87 25q-28 0 -43.5 -15.5t-30.5 -45.5l-71 47q26 66 59 102.5t93 36.5q34 0 95.5 -24.5t93.5 -24.5q26 0 42 12.5t30 38.5zM433 324l73 -42q-30 -65 -64.5 -99.5t-94.5 -34.5q-32 0 -94.5 25t-87.5 25
q-19 0 -34 -9.5t-22 -20t-18 -31.5l-71 46q27 68 59.5 104t92.5 36q34 0 96.5 -25t92.5 -25q41 0 72 51z" />
    <glyph glyph-name="notequal" unicode="&#x2260;" 
d="M478 171h-241l-49 -95h-102l47 95h-88v117h141l34 67h-175v116h228l55 108h102l-54 -108h102v-116h-155l-33 -67h188v-117z" />
    <glyph glyph-name="lessequal" unicode="&#x2264;" 
d="M467 145l-433 208v109l433 207v-121l-296 -141l295 -141zM467 0h-433v117h433v-117z" />
    <glyph glyph-name="greaterequal" unicode="&#x2265;" 
d="M480 353l-434 -208v121l297 141l-296 141l-1 121l434 -207v-109zM480 0h-434v117h434v-117z" />
    <glyph glyph-name="dotmath" unicode="&#x22c5;" horiz-adv-x="322" 
d="M291 353q0 -52 -39.5 -91t-91.5 -39q-44 0 -73.5 29.5t-29.5 73.5q0 52 39 91.5t91 39.5q45 0 74.5 -29.5t29.5 -74.5z" />
    <glyph glyph-name="lozenge" unicode="&#x25ca;" horiz-adv-x="667" 
d="M606 334l-260 -360l-259 360l259 359zM454 334l-108 148l-107 -148l107 -148z" />
    <glyph glyph-name="openbullet" unicode="&#x25e6;" 
d="M439 509q0 -64 -45.5 -108.5t-109.5 -44.5q-63 0 -108.5 45t-45.5 108t45.5 107t108.5 44q64 0 109.5 -44t45.5 -107zM361 509q0 31 -22.5 53t-54.5 22q-31 0 -53.5 -22t-22.5 -53t22 -53.5t54 -22.5t54.5 22t22.5 54z" />
    <glyph glyph-name="uniF400" unicode="&#xf400;" horiz-adv-x="2" 
d="M-69 678l-105 -148h-98l65 148h138z" />
    <glyph glyph-name="uniF401" unicode="&#xf401;" horiz-adv-x="2" 
d="M-69 868l-105 -148h-98l65 148h138z" />
    <glyph glyph-name="uniF406" unicode="&#xf406;" 
d="M393 866h69q-14 -68 -60.5 -108t-115.5 -40q-61 0 -100.5 35.5t-39.5 95.5v17h69q8 -32 27.5 -42.5t54.5 -10.5q37 0 58.5 11t37.5 42z" />
    <glyph glyph-name="uniF407" unicode="&#xf407;" 
d="M311 -113l-126 -124l-77 53l107 137z" />
    <glyph glyph-name="uniF408" unicode="&#xf408;" 
d="M316 870l124 -98l-65 -70l-71 55l-94 -57l-53 70z" />
    <glyph glyph-name="uniF409" unicode="&#xf409;" horiz-adv-x="246" 
d="M267 -45l-94 -188h-102l50 188h146z" />
    <glyph glyph-name="uniF40A" unicode="&#xf40a;" horiz-adv-x="246" 
d="M267 667l-104 -209h-102l60 209h146z" />
    <glyph glyph-name="uniF40B" unicode="&#xf40b;" 
d="M372 796q0 -11 -6 -21q-9 -24 -31 -39.5t-47 -15.5q-28 0 -47.5 19t-19.5 48q0 34 25 59t59 25q33 0 50 -20.5t17 -54.5z" />
    <glyph glyph-name="uniF40C" unicode="&#xf40c;" horiz-adv-x="503" 
d="M203 810q0 40 28 68t68 28t68 -28t28 -68t-28.5 -68t-66.5 -28q-40 0 -68.5 28.5t-28.5 67.5zM262 810q0 -16 10.5 -26.5t26.5 -10.5t26.5 10.5t10.5 26.5t-10.5 26.5t-26.5 10.5t-26.5 -10.5t-10.5 -26.5z" />
    <glyph glyph-name="uniF40D" unicode="&#xf40d;" 
d="M383 855h88q-5 -56 -35.5 -94.5t-84.5 -38.5q-25 0 -61 16.5t-50 16.5q-25 0 -31 -35h-89q4 34 12 56q13 33 41 54.5t62 21.5q27 0 63.5 -16.5t52.5 -16.5q26 0 32 36z" />
    <glyph glyph-name="uniF40E" unicode="&#xf40e;" 
d="M378 -92l-16 -70q-22 -9 -44 -9q-36 0 -64 18t-28 53q0 53 64 100h60q-42 -35 -42 -68q0 -30 36 -30q18 0 34 6z" />
    <glyph glyph-name="uniF4C6" unicode="&#xf4c6;" horiz-adv-x="521" 
d="M90 667h176l-22 -178q-3 -21 -3 -30q0 -21 13 -32q12 -11 35 -11q18 0 33 7l30 244h177l-86 -710q-11 -94 -57 -135q-41 -37 -126 -37q-42 0 -81 12l17 139q13 -12 30 -12q18 0 28 12q10 11 16 58l33 275q-39 -11 -79 -11q-71 0 -113 33q-51 40 -51 112q0 29 6 74z" />
    <glyph glyph-name="uniF4C7" unicode="&#xf4c7;" horiz-adv-x="476" 
d="M294 467h172l-58 -460q-17 -130 -69 -179q-47 -43 -127 -43q-32 0 -74 10l18 145q13 -15 31 -15q20 0 31 13q10 10 15 50l24 173q-34 -10 -71 -10q-73 0 -112 37q-34 34 -34 91q0 27 5 65l15 123h170l-15 -122q-2 -12 -2 -26q0 -16 9 -23q8 -7 24 -7q15 0 27 8z" />
    <glyph glyph-name="uniF4CC" unicode="&#xf4cc;" 
d="M54 667h184l23 -109q15 -70 17 -141q22 78 49 146l41 104h186l-318 -667h-177l108 230zM432 868l-105 -148h-98l65 148h138z" />
    <glyph glyph-name="uniF4CD" unicode="&#xf4cd;" horiz-adv-x="458" 
d="M487 467l-301 -682h-176l110 234l-82 448h172q2 -18 7 -57t7.5 -61.5t5 -55.5t2.5 -61q0 -5 -0.5 -15t-0.5 -15q36 133 48 164l38 101h170zM402 678l-105 -148h-98l65 148h138z" />
    <glyph glyph-name="dollar.fitted" unicode="&#xf5f5;" horiz-adv-x="432" 
d="M416 642l-24 -202q-45 71 -99 71q-20 0 -34.5 -12.5t-14.5 -31.5q0 -15 14 -30.5t34.5 -32t41 -36.5t34.5 -53t14 -72q0 -94 -62 -169q-33 -38 -90 -67l-12 -101h-84l10 85q-43 2 -68.5 7.5t-62.5 22.5l26 208q16 -33 43.5 -54t60.5 -21q23 0 40.5 13t17.5 36
q0 18 -21.5 41.5t-46.5 45t-46.5 59t-21.5 80.5q0 105 72 180q45 47 98 65l11 93h84l-10 -88q47 -10 96 -37z" />
    <glyph glyph-name="Euro.fitted" unicode="&#xf5f6;" horiz-adv-x="566" 
d="M494 205l-35 -193q-59 -24 -110 -24q-105 0 -164 64t-70 171h-105l41 78h63q1 21 7 58h-94l43 78h71q39 112 120 177t194 65q48 0 87 -17l-24 -190q-34 40 -78 40q-71 0 -109 -75h173l-49 -78h-150l-4 -25q-2 -22 -2 -33h132l-41 -78h-81q22 -61 85 -61q45 0 100 43z" />
    <glyph glyph-name="cent.fitted" unicode="&#xf5f7;" horiz-adv-x="312" 
d="M296 590l-18 -148q-40 -2 -63.5 -30t-23.5 -69q0 -28 14 -49t41 -21h11l-19 -161q-9 -2 -25 -2t-23 -1l-10 -86h-84l13 105q-97 62 -97 187q0 109 69 194q31 38 82 62l12 108h84l-10 -86q5 1 16 1t31 -4z" />
    <glyph glyph-name="sterling.fitted" unicode="&#xf5f8;" horiz-adv-x="511" 
d="M490 584l-107 -96q-12 24 -25 37t-34 13q-23 0 -38.5 -18.5t-15.5 -42.5q0 -16 6 -48t6 -48h159l-12 -93h-148q-7 -70 -58 -129q36 -2 71 -21q19 -11 35 -11q31 0 56 32l82 -48q-61 -123 -171 -123q-41 0 -81 17q-7 3 -18 8t-16.5 7t-15.5 4t-21 2q-39 0 -88 -30l-39 82
q49 33 83 48q28 41 28 98q0 22 -8 64h-60l11 93h33q-12 67 -12 85q0 91 63 151t154 60q106 0 181 -93z" />
    <glyph glyph-name="yen.fitted" unicode="&#xf5f9;" horiz-adv-x="576" 
d="M562 667l-111 -212h78l-11 -94h-115l-34 -66h141l-12 -93h-146l-25 -202h-177l25 202h-157l11 93h152l-20 66h-124l12 94h84l-64 212h184q32 -157 38 -206q30 82 87 206h184z" />
    <glyph glyph-name="florin.fitted" unicode="&#xf5fa;" horiz-adv-x="469" 
d="M460 729l-22 -138q-6 0 -16 1.5t-16 1.5q-32 0 -38 -34l-18 -93h70l-18 -94h-71l-64 -332q-16 -84 -58.5 -129t-123.5 -45q-30 0 -76 13l26 143q20 -2 31 -2q22 0 33 7.5t15 28.5l61 316h-68l17 94h69l21 106q17 83 53 125t114 42q31 0 79 -11z" />
    <glyph glyph-name="uni20B4.fitted" unicode="&#xf5fb;" horiz-adv-x="509" 
d="M117 505l17 140q85 34 153 34q79 0 122 -41q40 -38 40 -98q0 -48 -31 -85h72l-12 -94h-121l-56 -66h169l-11 -93h-220q-10 -15 -10 -36q0 -19 13 -29q15 -11 49 -11q62 0 112 30l-17 -140q-73 -28 -156 -28q-85 0 -131 40q-44 38 -44 97q0 39 26 77h-62l11 93h113l56 66
h-161l12 94h214q15 17 15 37q0 27 -15 40q-16 12 -40 12q-52 0 -107 -39z" />
    <glyph glyph-name="uni20B6.fitted" unicode="&#xf5fc;" horiz-adv-x="588" 
d="M122 352l39 315h172q237 0 240 -183q0 -53 -19 -102.5t-54 -77.5q-44 -38 -93 -50t-122 -12l-8 -66h140l-11 -93h-140l-10 -83h-177l12 83h-71l11 93h71l7 66h-71l13 110h71zM302 352h21q31 0 50 28t19 67q0 32 -12 53t-35 21h-23z" />
    <glyph glyph-name="uni20B8.fitted" unicode="&#xf5fd;" horiz-adv-x="452" 
d="M419 507l-19 -150h-102l-44 -357h-177l44 357h-98l19 150h377zM424 557h-377l15 110h377z" />
    <glyph glyph-name="uniF639" unicode="&#xf639;" horiz-adv-x="519" 
d="M496 426q0 -95 -20 -178q-12 -50 -32.5 -93.5t-51 -82.5t-74 -61.5t-95.5 -22.5q-55 0 -95.5 22.5t-62.5 62t-32 84.5t-10 97q0 93 21 171q27 106 93.5 180t165.5 74q53 0 91.5 -21.5t60 -58.5t31.5 -80t10 -93zM323 436q0 87 -43 87q-26 0 -44 -37t-25.5 -93t-10.5 -96
t-3 -71q0 -82 38 -82q35 0 56.5 66t26.5 123.5t5 102.5z" />
    <glyph glyph-name="uniF63A" unicode="&#xf63a;" horiz-adv-x="558" 
d="M270 425h-172q9 110 75.5 182t174.5 72q84 0 134.5 -51.5t50.5 -135.5q0 -51 -18 -100.5t-51.5 -93.5t-66.5 -78t-77 -72q37 3 165 5l-19 -153h-452l209 243q29 33 45.5 53.5t41.5 56.5t37.5 69t12.5 63q0 18 -9 32t-26 14q-49 0 -55 -106z" />
    <glyph glyph-name="uniF63B" unicode="&#xf63b;" horiz-adv-x="511" 
d="M239 477h-171q18 92 81.5 147t155.5 55q78 0 130.5 -47.5t52.5 -124.5q0 -66 -42 -117q-19 -24 -57 -45q71 -44 71 -131q0 -99 -74.5 -162.5t-174.5 -63.5q-82 0 -138 45t-56 125q0 7 2 20t2 18h173q-1 -6 -1 -18q0 -42 37 -42q26 0 41.5 22.5t15.5 49.5q0 60 -63 60
q-5 0 -15.5 -1t-16.5 -1l18 142q7 -1 21 -1q81 0 81 80q0 43 -31 43t-42 -53z" />
    <glyph glyph-name="uniF63C" unicode="&#xf63c;" horiz-adv-x="523" 
d="M498 279l-17 -144h-56l-17 -135h-177l16 135h-238l17 141l247 391h217l-48 -388h56zM173 279h98q25 165 31 200q-78 -134 -129 -200z" />
    <glyph glyph-name="uniF63D" unicode="&#xf63d;" horiz-adv-x="524" 
d="M503 667l-19 -157h-187l-24 -75q10 1 30 1q76 0 122.5 -50.5t46.5 -126.5q0 -113 -84 -192t-197 -79q-92 0 -174 52l40 158q73 -46 135 -46q40 0 70.5 22t30.5 61q0 66 -96 66q-56 0 -119 -23l98 389h327z" />
    <glyph glyph-name="uniF63E" unicode="&#xf63e;" horiz-adv-x="487" 
d="M431 667l-128 -190q-16 -24 -39 -52q34 18 64 18q67 0 102.5 -54.5t35.5 -124.5q0 -114 -73.5 -195t-186.5 -81q-90 0 -139 56t-49 148q0 36 12.5 81t26 79t44 89t45 78.5t52 81.5t42.5 66h191zM295 254q0 23 -10.5 41t-31.5 18q-18 0 -31 -13t-19 -33.5t-8.5 -38.5
t-2.5 -35q0 -61 39 -61q34 0 49 40t15 82z" />
    <glyph glyph-name="uniF63F" unicode="&#xf63f;" horiz-adv-x="596" 
d="M590 667l-377 -667h-191l201 355q46 80 104 155h-222l19 157h466z" />
    <glyph glyph-name="uniF640" unicode="&#xf640;" horiz-adv-x="520" 
d="M497 513q0 -67 -40 -116q-24 -29 -69 -50q84 -37 84 -130q0 -100 -74.5 -164.5t-175.5 -64.5q-82 0 -141.5 49t-59.5 129q0 90 67 146q22 18 66 35q-43 15 -63 43t-20 75q0 92 70 153t163 61q79 0 136 -44.5t57 -121.5zM320 492q0 17 -7.5 30t-23.5 13q-23 0 -33.5 -22.5
t-10.5 -48.5q0 -45 33 -45q21 0 31.5 24.5t10.5 48.5zM293 225q0 52 -36 52q-24 0 -38 -27.5t-14 -54.5q0 -53 36 -53q26 0 39 27t13 56z" />
    <glyph glyph-name="uniF641" unicode="&#xf641;" horiz-adv-x="486" 
d="M56 0l128 189q20 30 39 53q-33 -19 -65 -19q-66 0 -101.5 54.5t-35.5 124.5q0 114 74 195.5t187 81.5q90 0 138.5 -56t48.5 -148q0 -36 -12.5 -81.5t-25.5 -78.5t-45 -90t-44.5 -77t-53 -82t-42.5 -66h-190zM296 475q0 60 -39 60q-24 0 -40 -23.5t-20.5 -49t-4.5 -50.5
q0 -23 10.5 -41t31.5 -18q24 0 39 24t19 48.5t4 49.5z" />
    <glyph glyph-name="uniF6BA" unicode="&#xf6ba;" horiz-adv-x="317" 
d="M262 272h-217l16 134h217z" />
    <glyph glyph-name="uniF6BB" unicode="&#xf6bb;" horiz-adv-x="574" 
d="M500 279h-434l14 120h434z" />
    <glyph glyph-name="uniF6BC" unicode="&#xf6bc;" horiz-adv-x="820" 
d="M746 279h-680l14 120h680z" />
    <glyph glyph-name="uniF6C3" unicode="&#xf6c3;" horiz-adv-x="246" 
d="M267 -46l-94 -188h-102l50 188h146z" />
    <glyph glyph-name="uniF6C9" unicode="&#xf6c9;" 
d="M437 868l-105 -148h-98l65 148h138z" />
    <glyph glyph-name="uniF6CA" unicode="&#xf6ca;" 
d="M451 802l-166 -98l-121 103l71 63l70 -58l92 56z" />
    <glyph glyph-name="uniF6CB" unicode="&#xf6cb;" 
d="M463 800q0 -31 -24.5 -55.5t-56.5 -24.5q-27 0 -45 18.5t-18 45.5q0 32 24 56t56 24q28 0 46 -18t18 -46zM273 792q0 -8 -5 -20q-9 -23 -30 -37.5t-45 -14.5q-28 0 -46 18t-18 46q0 32 24.5 56t56.5 24q31 0 47 -20t16 -52z" />
    <glyph glyph-name="uniF6CE" unicode="&#xf6ce;" 
d="M340 720h-98l-68 148h138z" />
    <glyph glyph-name="uniF6CF" unicode="&#xf6cf;" 
d="M516 868l-105 -148h-88l65 148h128zM351 868l-104 -148h-88l65 148h127z" />
    <glyph glyph-name="uniF6D0" unicode="&#xf6d0;" 
d="M469 837l-12 -94h-335l12 94h335z" />
    <glyph glyph-name="uniF6D1" unicode="&#xf6d1;" horiz-adv-x="394" 
d="M277 874l125 -37q-17 -67 -72 -99q-45 -27 -121 -27q-75 0 -118 26q-56 34 -73 99l127 38q4 -26 20 -41q17 -15 47 -15t47 17q14 16 18 39z" />
    <glyph glyph-name="uniF6D4" unicode="&#xf6d4;" horiz-adv-x="356" 
d="M235 677l111 -26q-19 -67 -72 -102q-39 -25 -100 -25q-65 0 -103 27q-50 34 -60 100l118 26q-2 -27 12 -42q12 -13 34 -13q25 0 38 13q16 14 22 42z" />
    <glyph glyph-name="uniF6DC" unicode="&#xf6dc;" horiz-adv-x="314" 
d="M296 667l-82 -667h-177l62 510h-71l19 157h249z" />
    <glyph glyph-name="uniF6DE" unicode="&#xf6de;" horiz-adv-x="615" 
d="M559 193h-510l11 120h510z" />
    <glyph glyph-name="nbspace" horiz-adv-x="233" 
 />
    <glyph glyph-name="hyphenminus" horiz-adv-x="317" 
d="M262 186h-217l16 134h217z" />
    <glyph glyph-name="dotlessi1" horiz-adv-x="249" 
d="M239 467l-57 -467h-171l58 467h170z" />
    </font>
</defs>
</svg>
